<svg width="141" height="123" fill="none" xmlns="http://www.w3.org/2000/svg"><g opacity=".999" fill="#3E4241" fill-opacity=".6"><path d="m115.034 30.494.006.003c-.004-.002-.007-.005-.011-.006l.005.003ZM131.258 49.602c0 .001 0 .001 0 0l.003-.01c0 .005-.002.007-.003.01ZM123.517 70.295l.002.004-.002-.004Z"/><path d="M107.265 16.997c1.774 1.58 4.282 1.422 6.439 1.82.334-.026.636.31.942.225 1.982 1.259 3.596 2.994 5.142 4.805-2.119-1.316-7.194-1.95-8.205 1.087.619 1.36 2.168 1.274 3.341.95 1.785-.325 3.474-1.454 5.263-1.552.593.738 1.166 1.495 1.741 2.248l-.032-.041c.716.958 1.283 2.028 1.854 3.09-2.127-1.809-5.377-2.382-7.992-1.69-2.475.851-1.648 3.255.707 3.029l-.011.001.029-.001.064-.001h-.016l.066-.003h-.026c9.142-1.002 7.449-3.115 10.745 8.797-1.652-2.977-4.611-5.576-7.959-5.439-1.116.28-1.914 1.335-.835 2.302l.006.007-.019-.027.028.039c-.002-.002-.005-.005-.006-.008 2.001 3.16 6.244 2.15 8.941 4.038.41 3.444.889 6.897.895 10.377-1.188-3.119-6.996-9.573-10.125-6.53-.067.04-.09.14-.056.212-.021.285.16.533.243.795a.04.04 0 0 1-.004-.01l.011.03-.001-.004c1.43 3.959 6.277 3.432 9.054 5.673l.197.17-.005-.004c.226.224.505.403.684.67-.013 3.087-.283 6.171-.74 9.217-.117-.36-.255-.71-.39-1.062.005.011.009.02.012.031l-.003-.01-.053-.138.018.047c-2.458-9.714-11.556-9.9-6.738-3.606 2.216 1.757 4.632 3.206 6.729 5.137l-.054-.045c.093.079.184.166.264.263-.276 3.668-1.571 7.22-2.786 10.645-.681-11.885-8.759-13.325-5.266-5.806 1.626 2.329 3.732 4.239 4.805 6.98a28.244 28.244 0 0 1-1.627 3.671 31.358 31.358 0 0 1-.991 1.73c-.348.565-.677 1.126-1.056 1.667-.38.541-.828 1.18-1.234 1.698-.196.25-.155.434-.06.523.102.094.244.14.592-.325.274-.366.937-1.212 1.206-1.648.195-.316.362-.572.603-.904.006-.007.034-.049.042-.049 11.377.42 11.948-12.338 3.353-3.82l-.02.02-.057.057.007-.008-.042.04.003-.002c-.004.002-.006.006-.009.008l.018-.018c-.78.681-1.51 1.42-2.263 2.135.772-1.41 1.368-2.92 1.972-4.42a.286.286 0 0 0 .134-.337 70.245 70.245 0 0 0 2.08-6.101c3.345-1.028 8.62-2.406 9.137-6.87.047-1.09-.721-2.22-1.8-2.11-2.588.35-3.968 3.341-5.35 5.421a.204.204 0 0 0-.004.007l.016-.022-.024.033.011-.016-.046.065.03-.04-.046.061.004-.004-.039.053c.003-.004.007-.008.009-.013-.551.698-1.127 1.384-1.563 2.176a60.985 60.985 0 0 0 1.497-9.186l-.008.077.02-.22-.003.03c.047-.499.09-.997.121-1.496.663-.648 1.534-.946 2.225-1.558.028-.023.057-.045.084-.07a.086.086 0 0 1-.01.008l.037-.03-.006.005c1.61-1.276 3.252-3.016 3.601-5.23.176-1.56-1.137-2.88-2.334-1.556-1.547 2.254-2.185 5.044-3.543 7.434.135-2.887.084-5.787-.23-8.659 2.674-2.723 5.516-6.72 4.832-10.919-.257-.946-1.175-2.218-2.118-1.35.002 0 .003-.002.005-.003-1.42 1.473-1.201 3.885-1.586 5.826l-.023.172.002-.016a1.459 1.459 0 0 1-.01.07l.002-.005-.01.068.001-.009-.004.022.002-.008c-.378 1.77-.484 3.668-1.187 5.332-.344-2.98-.585-5.995-1.569-8.83 4.866-8.997.262-15.666-.928-9.886-.206 2.953.942 5.802.583 8.764-.712-2.845-2.185-5.33-3.642-7.788.049-.204.138-.397.191-.6a.222.222 0 0 1-.007.024c3.097-9.358-3.191-10.541-1.026-2.09l-.003-.018c.005.021.008.044.012.067l-.005-.026.006.035.004.02v.002-.002l.001.006c.151.746.449 1.453.579 2.205-1.1-1.508-2.25-2.983-3.52-4.328-.049-.55-.115-1.154-.029-1.737l-.002.012.003-.025c.076-2.067 1.025-7.678-2.02-7.403l.016-.007-.048.02a.142.142 0 0 0 .02-.008c-1.715 1.442-.013 4.73.48 6.56l-.012-.032.095.264a.617.617 0 0 0-.021-.055l.049.132c-.007-.018-.013-.037-.021-.055.055.154.11.31.167.462a31.147 31.147 0 0 0 .274.723c-.939-1.108-2.151-1.87-3.286-2.715-1.511-1.672-3.423-3.111-5.442-3.999l.009.003c-1.441-.619-3.986.527-2.149 2.21Zm11.79 7.302c-1.533.412-2.995 1.102-4.549 1.43.001 0 .002 0 .003-.002l-.029.006h.006c-.941.207-2.027.227-2.621-.73 1.002.145 2.055-.06 3.05-.24l-.048.01c.636-.12 1.276-.203 1.915-.306-.001 0-.002 0-.003.002a.452.452 0 0 1 .039-.009l-.01.001c.8-.204 1.608-.369 2.426-.22l-.179.058Zm.411-.287c-1.178-.157-2.344.092-3.519.185l.046-.01c-1.366.127-2.744.631-4.118.45a2.29 2.29 0 0 1 .202-.319c2.014-1.939 5.285-1.533 7.544-.307a1.384 1.384 0 0 1-.155.001Zm3.31 5.863.009-.001c-.099.003-.197.004-.297.008-1.917.234-3.802.781-5.736.868h.025c-.584.02-1.206.043-1.74-.254a.07.07 0 0 0 .009.006l-.022-.013.004.002c-.325-.159-.483-.524-.583-.873 2.826.606 5.783-.664 8.594.26-.086-.002-.174-.006-.263-.003Zm-6.698-.447c-.312-.037-.625.02-.938 0l.04.004a9.92 9.92 0 0 0-.188-.016c.006.001.013.001.019.003-.13-.008-.261-.01-.384-.065l.01.004-.026-.01.007.004a1.096 1.096 0 0 0-.193-.058.582.582 0 0 1 .04-.113c1.902-2.448 6.997-1.196 9.07.503-2.446-.747-4.967-.165-7.457-.256Zm9.946 9.997c-2.588-.77-6.692-.724-7.634-3.937.391.177.695.53 1.114.646l-.017-.006c.385.154.775.292 1.168.42h-.002c.142.056.284.116.427.169l-.005-.002.132.049h-.001l.157.058-.023-.01.121.045-.002-.001.023.008-.004-.001c.1.037.202.075.304.11l.022.008-.01-.004a.886.886 0 0 1 .017.008c1.151.475 2.312.978 3.32 1.755-.002 0-.004-.003-.006-.004l.09.064-.027-.019c.401.316.879.484 1.283.793a10.05 10.05 0 0 0-.447-.149Zm-4.999-2.92h.003c-.332-.138-.677-.229-1.014-.348l.005.002a.143.143 0 0 0-.011-.003h.004l-.343-.123a.076.076 0 0 0 .019.006l-.221-.08.017.007-.069-.025c.005.002.012.003.017.006a2.532 2.532 0 0 1-.551-.31 2.023 2.023 0 0 0-.433-.258c.037-.062.089-.108.137-.161 2.909-1.61 6.344 1.62 8.104 3.996l.005.008-.001-.001.002.003.016.022-.009-.012.003.005.01.014-.004-.007.113.162-.001-.002.041.058a.03.03 0 0 0-.007-.01c.024.034.046.069.068.102-1.859-1.248-3.763-2.445-5.9-3.052Zm5.906 13.862c-2.657-1.644-6.827-1.34-8.236-4.771l.001.004c-.081-.224-.18-.44-.259-.666 1.492 1.195 3.284 1.792 4.977 2.565 1.274.976 2.607 1.907 3.788 3.011-.09-.049-.18-.097-.271-.143Zm-4.796-3.82.04.022c-1.265-.609-2.527-1.201-3.7-2.003.014-.024.025-.049.041-.072 3.351-2.096 7.801 3.285 9.361 6.171-1.638-1.732-3.628-3.16-5.742-4.117Zm3.787 13.333c-2.16-2.052-6.28-2.969-6.438-6.584 2.542 1.85 4.615 4.39 6.71 6.787-.09-.068-.18-.136-.272-.203Zm-3.043-4.225s.001 0 0 0l-.037-.035.026.024.011.01a2.004 2.004 0 0 1-.047-.042l.01.008a.068.068 0 0 1-.012-.012l.017.016-.047-.043a.058.058 0 0 0 .008.007c-1.004-.938-1.92-1.976-3.086-2.684.079-.063.163-.116.253-.161 3.585-.478 5.674 3.996 6.731 7.08-1.153-1.511-2.53-2.804-3.827-4.168Zm1.9 21.298c1.521-1.306 3.058-3.315 5.166-3.212-1.51 2.202-4.196 3.149-6.394 4.37a19.04 19.04 0 0 1 1.228-1.158Zm.193.866c1.835-1.073 4.055-1.964 5.278-3.86.121.198.166.447.175.68-.54 3.453-5.105 4.696-7.901 4.647.766-.59 1.603-1.026 2.448-1.467Zm-1.426-6.392c-1.504-2.793-5.506-4.958-4.434-8.681 1.162 2.226 2.137 4.626 3.689 6.6l-.018-.021c.523.83.906 1.794 1.118 2.775a11.63 11.63 0 0 0-.355-.673Zm-.027-1.129a78.394 78.394 0 0 1-4.19-7.714c.143-.049.295-.03.443-.014 3.411 1.364 4.087 6.67 4.557 10.13-.196-.827-.414-1.66-.81-2.401Zm11.929-9.193c-.821 3.223-4.396 4.769-7.174 5.399 2.113-1.53 4.195-3.23 5.826-5.368l-.016.022.099-.13-.005.007c.365-.459.687-.96.926-1.507.336.437.413 1.028.344 1.578Zm-7.333 4.435c2.028-2.024 3.404-6.923 6.727-6.259-1.803 3.012-4.669 5.105-7.323 7.158.18-.314.388-.608.596-.9Zm6.039-18.326c1.284 3.124-2.608 6.075-4.802 7.405 1.687-2.416 3.562-4.815 4.559-7.678.093.079.168.177.243.273Zm-4.234 5.563c.63-.967.949-2.082 1.338-3.175 0 .002-.002.002-.002.003l.013-.03-.007.018c.573-1.05 1.045-2.813 2.404-2.773-.463 1.446-1.252 2.718-2.035 3.977.006-.01.013-.022.02-.031l-.205.32.005-.007-.02.03.02-.03a2.307 2.307 0 0 1-.041.064l.02-.032a.99.99 0 0 1-.038.06c.007-.011.012-.022.02-.033-.237.38-.489.747-.721 1.13l.02-.032c-.555.732-1.027 1.528-1.596 2.248.277-.562.519-1.147.805-1.707Zm2.231-18.824v.012l.021-.258c.051.013.094.046.137.078 2.469 2.808-.866 8.467-2.932 10.655 1.395-3.308 2.471-6.851 2.774-10.487Zm-2.966 9.99c.894-2.395.616-9.475 2.765-10.247-.145 2.493-.837 4.895-1.477 7.28-.46 1.244-.841 2.549-1.485 3.7.082-.238.141-.485.197-.732Zm-1.644-19.411c2.914 2.566.81 7.812-.506 10.836.677-3.58.392-7.225.34-10.854.056-.008.111.007.166.018Zm-1.312 3.262c-.007-1.094-.079-2.673.961-3.238-.022 3.491.308 7.023-.373 10.465.079-1.236.13-2.47-.121-3.691-.16-1.178-.415-2.344-.467-3.536Zm-3.35-8.47c.027.004.054.007.081.014.124.036.219.128.304.227 1.123 2.13.261 4.98-.322 7.2a.304.304 0 0 1-.01.028 155.063 155.063 0 0 1-.053-7.47Zm-.298 6.48c-.384-1.934-1.558-4.937.028-6.468-.071 2.231-.085 4.482.032 6.714a5.159 5.159 0 0 0-.06-.246Zm-4.977-11.975c2.06 1.297 1.16 4.623 1.174 6.774l.007-.057-.016.117.007-.059-.008.067c-.026-.155-.061-.307-.095-.46-.206-.696-.311-1.418-.487-2.122l.001.007c-.49-1.38-.284-2.906-.765-4.266.061-.015.123-.005.182-.001Zm.245 5.7-.03-.082.003.01c-.005-.018-.012-.033-.017-.05a.619.619 0 0 0 .014.04l-.017-.044V19.4v.002a3.064 3.064 0 0 0-.032-.088c.002.008.006.013.008.02-.448-1.59-1.67-4.066-.501-5.463.054.205.154.394.203.6l-.002-.009.004.022-.002-.008c.114 1.348.222 2.69.583 3.995l-.006-.029c.126.572.173 1.163.337 1.725l-.004-.023c.002.012.004.024.008.036l-.002-.002c.111.474.145.96.199 1.443-.09-.23-.164-.466-.249-.698l.004.012c-.167-.476-.329-.953-.508-1.424l.007.017Zm-5.493-1.334c-1.328-.267-5.656-.55-5.188-2.52 2.045.314 3.808 1.687 5.679 2.574a7.577 7.577 0 0 1-.491-.054Zm1.078-.238c-.186-.08-.377-.144-.563-.227-1.879-.868-3.777-2.493-5.87-2.384 2.348-1.349 4.635 1.216 6.433 2.611Z"/><path d="M119.162 20.862a.365.365 0 0 1-.005.033v.002c.003-.013.004-.024.005-.035ZM124.98 77.816l-.007.003-.035.02.042-.023ZM122.125 24.765l.002.01-.001-.008-.001-.003ZM122.125 24.763v-.002l-.001-.002.001.004ZM129.733 39.464l.002-.004.004-.037-.006.04ZM113.712 18.819l-.008-.002h-.002l.01.002ZM118.673 20.205l.001.006.002.007-.003-.013ZM134.188 61.023l-.004.005.015-.017-.011.012ZM121.466 36.86l-.005-.002.016.006-.011-.005ZM117.482 14.48l-.001-.006.001.005ZM118.399 20.18l-.003-.01.003.01c0 .001 0 0 0 0ZM25.764 30.494c.001-.002.003-.002.005-.003l-.01.006c0-.002.002-.002.005-.003ZM9.54 49.602l-.004-.01c0 .005.002.009.004.01 0 .001 0 .001 0 0ZM18.673 24.758l-.001.002v.002-.004ZM18.67 24.773c0-.004 0-.006.002-.01 0 0 0 .002-.002.003v.007ZM22.12 20.22l.003-.008.001-.006-.003.013ZM21.638 20.896v-.002a.322.322 0 0 1 0 .002ZM11.058 39.424a.383.383 0 0 1 .006.04l-.006-.04ZM17.278 70.299l.002-.004c0 .001 0 .003-.002.004ZM27.097 18.817h-.003l-.008.002.01-.002ZM15.859 77.839c-.012-.006-.023-.014-.036-.02l-.006-.003a.47.47 0 0 1 .042.023Z"/><path d="M13.982 67.62a70.83 70.83 0 0 0 2.08 6.1.285.285 0 0 0 .134.338c.603 1.499 1.201 3.01 1.973 4.42-.753-.715-1.483-1.454-2.263-2.135l.018.018-.01-.009c.002.001.003.001.003.003-.014-.013-.027-.028-.042-.04l.008.008-.058-.057-.02-.02c-8.594-8.517-8.023 4.242 3.354 3.82.007 0 .036.04.042.05.241.331.407.587.602.902.27.436.934 1.282 1.207 1.649.347.465.49.419.591.325.096-.088.136-.274-.06-.524a41.483 41.483 0 0 1-1.234-1.697c-.379-.541-.708-1.103-1.056-1.668a30.48 30.48 0 0 1-.99-1.73 28.648 28.648 0 0 1-.877-1.8 26.52 26.52 0 0 1-.75-1.87c1.071-2.742 3.177-4.651 4.804-6.98 3.493-7.52-4.585-6.08-5.266 5.806-1.215-3.425-2.51-6.977-2.785-10.646a2.023 2.023 0 0 1 .21-.217c2.096-1.932 4.511-3.38 6.728-5.138 4.817-6.294-4.28-6.107-6.738 3.606l.017-.046-.053.138c0 .004-.002.008-.003.01.005-.01.008-.022.012-.031-.135.352-.273.702-.39 1.062-.457-3.045-.726-6.13-.74-9.217.18-.268.459-.447.684-.67l-.004.003.196-.17c2.777-2.24 7.623-1.713 9.054-5.672v.004l.01-.03-.003.01c.083-.261.264-.51.243-.795.033-.073.012-.172-.056-.211-3.13-3.044-8.937 3.41-10.126 6.529.008-3.48.485-6.934.896-10.377 2.697-1.889 6.94-.878 8.94-4.039a.036.036 0 0 0-.005.009l.027-.04-.019.028.006-.008c1.079-.967.282-2.022-.835-2.301-3.347-.138-6.307 2.462-7.958 5.438 3.295-11.911 1.603-9.798 10.744-8.796h-.026l.066.002h-.015l.064.002h.029-.011c2.353.225 3.181-2.178.706-3.03-2.615-.693-5.864-.118-7.991 1.69.57-1.062 1.137-2.132 1.853-3.09-.01.015-.021.028-.032.042.575-.754 1.149-1.51 1.742-2.248 1.789.098 3.477 1.227 5.262 1.552 1.173.322 2.723.41 3.341-.95-1.01-3.038-6.085-2.403-8.205-1.087 1.546-1.81 3.16-3.546 5.142-4.806.306.085.608-.25.943-.224 2.157-.398 4.666-.239 6.438-1.82 1.836-1.685-.708-2.83-2.153-2.215.003-.001.005-.003.009-.003-2.02.888-3.932 2.329-5.442 3.998-1.134.846-2.347 1.608-3.285 2.716.1-.258.2-.518.293-.778l-.02.055c.057-.154.11-.31.167-.462l-.02.055.048-.132-.021.055.095-.264c-.005.01-.008.022-.012.032.493-1.83 2.195-5.118.48-6.56l.02.008-.048-.02.016.007c-3.045-.277-2.096 5.336-2.02 7.403l.003.026c0-.004 0-.008-.002-.012.086.583.02 1.189-.029 1.737-1.27 1.345-2.42 2.82-3.52 4.328.13-.753.428-1.459.58-2.207v-.006.003-.003l.004-.019.006-.036-.005.027c.004-.023.007-.045.012-.067l-.003.018c2.165-8.451-4.123-7.269-1.026 2.09l-.007-.024c.053.203.144.396.191.6-1.457 2.458-2.93 4.943-3.642 7.788-.36-2.963.79-5.812.583-8.764-1.19-5.78-5.793.89-.928 9.886-.984 2.834-1.225 5.85-1.57 8.83-.702-1.664-.808-3.561-1.186-5.333l.002.009-.004-.022.001.009c-.003-.023-.005-.046-.01-.069l.002.006a10.122 10.122 0 0 0-.01-.07c0 .005 0 .01.002.015l-.023-.172c-.385-1.94-.166-4.352-1.586-5.825l.005.003c-.943-.868-1.86.403-2.118 1.35-.684 4.199 2.159 8.195 4.832 10.92-.314 2.87-.365 5.771-.23 8.658-1.358-2.39-1.997-5.18-3.543-7.434-1.197-1.325-2.51-.004-2.334 1.556.35 2.214 1.99 3.954 3.6 5.23l-.005-.005.037.03a.57.57 0 0 0 .074.062c.69.611 1.563.91 2.225 1.558.031.499.074.998.12 1.495 0-.01 0-.019-.002-.028l.02.22a60.955 60.955 0 0 0 1.489 9.108c-.437-.792-1.013-1.477-1.563-2.176l.009.013-.039-.053c.002 0 .003.003.004.004l-.046-.062.03.04-.046-.064.01.016-.023-.034.016.023c-.003-.006-.008-.01-.012-.017.002.004.004.008.008.01-1.38-2.08-2.762-5.07-5.35-5.42-1.08-.112-1.847 1.018-1.8 2.109.521 4.467 5.798 5.846 9.142 6.874Zm2.036 9.333c.425.367.834.753 1.228 1.159-2.198-1.222-4.884-2.168-6.395-4.37 2.107-.104 3.645 1.906 5.167 3.211Zm2.255 2.334c-2.797.05-7.36-1.194-7.901-4.646.009-.235.054-.483.174-.68 1.224 1.896 3.444 2.787 5.278 3.86.845.439 1.681.875 2.449 1.466Zm-1.023-7.86c-.127.22-.242.446-.355.674a8.746 8.746 0 0 1 1.117-2.775.302.302 0 0 1-.018.022c1.552-1.976 2.529-4.375 3.69-6.601 1.072 3.72-2.93 5.888-4.434 8.68Zm3.775-8.858c.148-.016.3-.034.443.014a78.363 78.363 0 0 1-4.19 7.714c-.398.742-.614 1.575-.81 2.401.47-3.459 1.147-8.765 4.557-10.13Zm-6.15-2.689c-.092.067-.183.135-.272.204 2.095-2.397 4.168-4.937 6.71-6.787-.159 3.615-4.278 4.53-6.438 6.583Zm5.947-7.137c.088.045.173.099.253.161-1.166.708-2.082 1.746-3.086 2.684l.008-.007-.048.043.018-.016a.115.115 0 0 0-.012.012l.01-.008a1.582 1.582 0 0 1-.047.042l.01-.01a.476.476 0 0 1 .027-.024l-.037.034v.001-.001c-1.296 1.364-2.673 2.656-3.827 4.167 1.056-3.081 3.146-7.556 6.73-7.078Zm1.279-7.144v-.003c-1.408 3.43-5.579 3.127-8.236 4.77-.09.046-.18.095-.27.143 1.18-1.103 2.514-2.035 3.789-3.011 1.693-.773 3.484-1.37 4.976-2.565-.08.226-.179.442-.26.666Zm.179-1.106c.015.023.026.05.04.072-1.171.802-2.435 1.394-3.7 2.003l.04-.021c-2.113.957-4.104 2.385-5.742 4.116 1.561-2.885 6.012-8.266 9.362-6.17Zm-7.507-5.068c-.15.045-.3.097-.446.152.404-.31.882-.478 1.283-.793l-.028.019.091-.065-.007.005c1.009-.778 2.17-1.28 3.32-1.756l-.025.008c.014-.006.029-.01.043-.015l-.01.004.022-.008c.102-.035.203-.074.304-.11h-.005c.008-.002.016-.004.024-.008l-.003.001.122-.044-.023.01.157-.059h-.002c.045-.015.089-.032.133-.049l-.006.002c.144-.052.284-.113.428-.17l-.002.002c.393-.129.781-.266 1.168-.42l-.018.006c.42-.116.724-.47 1.115-.647-.945 3.211-5.048 3.165-7.635 3.935Zm-.833.031-.006.01.04-.059v.003l.113-.163-.004.007.01-.014.003-.005-.009.012c.006-.007.01-.014.014-.021a.016.016 0 0 0 .004-.005l-.001.001.005-.008c1.76-2.375 5.193-5.604 8.103-3.996.049.051.1.1.137.161a2.076 2.076 0 0 0-.42.249 2.48 2.48 0 0 1-.564.319l.018-.006-.07.025.018-.006c-.074.026-.147.051-.22.079a.087.087 0 0 1 .018-.006l-.344.124.005-.001a.122.122 0 0 1-.011.003.008.008 0 0 0 .004-.002c-.338.12-.682.21-1.014.349l.004-.002c-2.137.606-4.043 1.804-5.9 3.054l.067-.102Zm11.827-8.965c.002 0 .004 0 .005-.002a.143.143 0 0 0-.022.013l.009-.006c-.535.298-1.156.276-1.741.255h.025c-1.933-.088-3.819-.635-5.736-.869-.1-.004-.198-.005-.297-.008h.01c-.088-.002-.177.002-.265.003 2.812-.923 5.768.347 8.594-.259-.1.349-.257.714-.582.873Zm.565-1.311a.6.6 0 0 1 .04.113 1.064 1.064 0 0 0-.194.058l.008-.004a.235.235 0 0 1-.026.01l.01-.004c-.123.055-.255.057-.385.064.007 0 .013 0 .02-.002l-.189.015c.013-.002.027-.002.041-.003-.314.02-.625-.037-.939 0-2.49.09-5.01-.491-7.457.254 2.072-1.697 7.169-2.948 9.07-.501Zm-.02-3.448.005.002-.028-.007s.002 0 .003.002c-1.555-.328-3.016-1.018-4.55-1.43-.058-.02-.117-.038-.176-.057.818-.149 1.626.015 2.425.22h-.01l.04.008s-.002 0-.003-.002c.638.103 1.279.186 1.915.306a5.146 5.146 0 0 1-.049-.01c.996.18 2.05.385 3.05.24-.596.956-1.681.936-2.622.728Zm2.409-1.414c.075.1.143.207.202.319-1.374.18-2.752-.323-4.119-.45l.047.01c-1.175-.092-2.342-.342-3.519-.185a1.35 1.35 0 0 1-.156-.001c2.259-1.226 5.53-1.632 7.545.307Zm-.282-6.123a6.79 6.79 0 0 1-.49.054c1.87-.886 3.634-2.26 5.679-2.573.469 1.968-3.86 2.252-5.189 2.519Zm5.356-2.849c-2.092-.11-3.99 1.516-5.87 2.384-.185.083-.377.147-.563.227 1.798-1.395 4.086-3.96 6.433-2.611ZM23.52 13.873c1.168 1.398-.053 3.873-.502 5.464l.008-.02c-.01.028-.02.058-.032.087v-.001l-.016.045.015-.042-.019.052.004-.01-.03.082.005-.014c-.18.47-.341.949-.508 1.424l.005-.012c-.085.232-.16.468-.25.698.054-.484.088-.97.199-1.443l-.001.002a.418.418 0 0 1 .007-.036c0 .008-.003.016-.004.023.165-.563.211-1.153.337-1.725a.262.262 0 0 0-.006.029c.361-1.305.47-2.647.583-3.995 0 .003 0 .005-.002.007a.146.146 0 0 0 .005-.021l-.003.01c.05-.21.15-.398.205-.604Zm-.327-.044c.06-.004.121-.014.18.001-.48 1.36-.275 2.887-.764 4.266v-.007c-.176.704-.28 1.426-.486 2.122-.035.153-.07.306-.095.46l-.01-.067.009.059-.017-.117.008.057c.015-2.151-.886-5.477 1.175-6.774Zm-5.004 5.507c1.586 1.531.413 4.533.027 6.468a5.017 5.017 0 0 0-.06.247c.118-2.233.103-4.484.033-6.715Zm-.655.23c.085-.099.181-.19.303-.227.027-.007.055-.01.081-.014.033 2.477.033 4.985-.053 7.47l-.01-.028c-.583-2.22-1.444-5.071-.321-7.2Zm-4.278 4.966c.054-.01.11-.028.166-.02-.052 3.63-.337 7.274.34 10.855-1.314-3.023-3.42-8.27-.506-10.835Zm.352.024c1.04.565.967 2.144.96 3.238-.051 1.192-.307 2.357-.467 3.536-.25 1.22-.2 2.455-.12 3.69-.681-3.44-.351-6.973-.373-10.464Zm-5.12 9.229c.044-.031.087-.066.138-.078.007.086.016.172.02.258v-.012c.303 3.635 1.38 7.179 2.775 10.485-2.067-2.186-5.4-7.845-2.932-10.653Zm1.835 7.192c-.638-2.384-1.33-4.788-1.477-7.28 2.148.772 1.871 7.852 2.766 10.248.055.247.115.495.196.733-.642-1.152-1.023-2.458-1.485-3.701Zm-3.68 6.238c.075-.097.15-.195.243-.273.997 2.863 2.873 5.262 4.56 7.678-2.194-1.33-6.085-4.28-4.803-7.405Zm3.444 5.024c.005.01.012.021.02.032-.231-.383-.483-.752-.722-1.13l.02.032a1.765 1.765 0 0 0-.037-.06c.006.011.012.022.02.033l-.041-.065c.006.01.013.022.02.031l-.02-.03c0 .002.003.004.004.006a30.562 30.562 0 0 0-.204-.32c.006.01.013.022.02.031-.783-1.259-1.573-2.53-2.036-3.976 1.36-.04 1.831 1.722 2.405 2.772l-.007-.018.012.03-.001-.002c.389 1.093.708 2.206 1.338 3.175.284.561.526 1.144.803 1.71-.568-.724-1.04-1.52-1.594-2.251Zm2.595 13.3c.208.293.417.587.598.9-2.654-2.053-5.52-4.145-7.324-7.157 3.323-.665 4.698 4.233 6.726 6.258Zm-6.989-6.011c.24.548.561 1.05.927 1.507l-.006-.007.1.13-.017-.021c1.631 2.137 3.713 3.838 5.826 5.367-2.778-.631-6.353-2.176-7.173-5.399-.07-.549.008-1.14.343-1.577Z"/><path d="m6.6 61.011.015.017-.004-.005c-.004-.003-.007-.007-.01-.012ZM19.331 36.86l-.011.003.015-.006-.004.002ZM23.314 14.48l.002-.006-.002.005ZM22.398 20.18s0 .001 0 0l.002-.01-.002.01ZM23.299 85.014a.415.415 0 0 0-.09.548c5.219 8.069 12.217 14.775 20.237 19.395a54.9 54.9 0 0 0 12.909 5.394 53.843 53.843 0 0 0 14.192 1.9c4.829 0 9.628-.646 14.263-1.921a54.83 54.83 0 0 0 12.962-5.446c8.053-4.665 15.063-11.433 20.273-19.573a.416.416 0 0 0-.091-.548.348.348 0 0 0-.507.099c-10.662 16.656-28.195 26.599-46.9 26.599-18.594 0-36.067-9.851-46.741-26.352a.348.348 0 0 0-.507-.095Z"/><path d="M139.873 49.335c-.308-.016-.563.24-.576.57-1.619 38.705-29.863 69.252-65.697 71.053-18.402.926-36.036-5.956-49.653-19.376C10.331 88.162 2.36 69.81 1.505 49.907c-.014-.33-.273-.583-.577-.569-.305.016-.54.295-.526.625.44 10.22 2.716 20.042 6.767 29.192 3.913 8.838 9.308 16.68 16.035 23.309 6.727 6.63 14.447 11.713 22.947 15.106 7.761 3.1 15.876 4.665 24.167 4.665 1.109 0 2.22-.028 3.335-.084 17.565-.883 34.059-8.794 46.443-22.276 12.308-13.4 19.519-31.126 20.305-49.917.012-.328-.223-.608-.528-.623ZM70.627 6.023c1.538 0 2.784-1.348 2.784-3.012C73.411 1.348 72.165 0 70.627 0c-1.538 0-2.784 1.348-2.784 3.011 0 1.664 1.246 3.012 2.784 3.012Z"/></g><path d="M62.33 45.677c-.31-.167-.791-.252-1.43-.252-2.105 0-5.38.863-7.82 2.056-1.352-.63-2.958-.962-4.649-.962-1.623 0-3.247.287-4.816.563-1.483.261-2.884.508-4.205.508-3 0-4.399-1.157-4.399-3.64 0-3.297 3.311-8.073 8.642-12.463 5.174-4.26 10.853-7.014 14.47-7.014 3.206 0 4.765 1.351 4.765 4.13 0 2.643-1.626 6.28-4.25 7.544l-.014.007c-.25.15-.28.309-.28.414 0 .246.136.412.338.412.071 0 .15-.029.226-.056l.029-.015c2.595-1.584 4.627-5.273 4.627-8.4 0-3.147-1.838-4.743-5.462-4.743-3.918 0-9.908 2.81-15.261 7.159-5.622 4.568-8.978 9.445-8.978 13.047 0 2.916 1.903 4.395 5.657 4.395 1.478 0 2.974-.28 4.42-.55 1.433-.267 2.915-.544 4.365-.544 1.187 0 2.737.315 3.726.74-3.031 1.7-6.111 4.602-8.498 8.015-2.423 3.465-3.812 6.966-3.812 9.604 0 2.983 1.794 4.627 5.054 4.627 6.544 0 13.73-7.675 13.73-14.665 0-3.272-1.48-5.717-4.651-7.674 1.894-.953 4.999-1.788 6.726-1.788.646 0 .952.102 1.097.193.082.099.228.204.474.204.313 0 .532-.16.532-.388-.004-.175-.13-.344-.354-.464ZM44.813 69.505c-2.892 0-4.42-1.355-4.42-3.919 0-5.23 6.165-13.71 12.473-17.172 3.22 1.79 4.787 4.154 4.787 7.228 0 2.978-1.603 6.466-4.29 9.33-2.66 2.838-5.857 4.533-8.55 4.533ZM85.79 50.534c.394 0 .703-.334.703-.76 0-.408-.316-.74-.704-.74-.387 0-.703.332-.703.74 0 .426.31.76.703.76Z" fill="#3E4241" fill-opacity=".6"/><path d="M105.972 53.117c-.053-.171-.103-.333-.265-.333-.075 0-.116.028-.163.078-1.038 1.168-2.188 1.785-3.325 1.785-1.356 0-2.52-.924-3.274-2.6-.163-.371-.304-.692-.54-.776a.377.377 0 0 0-.08-.02.658.658 0 0 0-.078-.191c-.218-.372-.788-.653-1.325-.653-1.546 0-2.97 1.241-3.802 2.62-2.37 2.573-4.53 3.879-6.426 3.879-.91 0-1.299-.434-1.299-1.452 0-.5.088-1.052.172-1.587.078-.492.152-.956.152-1.347 0-.721-.28-1.087-.833-1.087-.64 0-1.281.739-1.706 1.227a9.36 9.36 0 0 1-.13.147h-.002l-.05.057c-2.862 3.328-5.958 5.495-8.962 6.274-.776-1.67-1.442-3.78-1.931-6.118 3.85-4.25 7.09-11.228 7.09-15.287 0-2.681-1.576-3.882-3.138-3.882-1.17 0-2.33.608-3.264 1.71-1.584 1.822-2.457 5.282-2.457 9.741 0 2.584.295 5.302.816 7.823-1.108 1.133-2.543 1.802-3.9 1.802h-.083c.42-.922.657-2.02.657-3.058 0-1.8-1.051-2.438-1.953-2.438-1.146 0-2.383.977-2.383 2.556 0 .353.062.713.189 1.096-.359.41-.555.96-.555 1.559 0 1.121.682 2.322 1.695 2.322.753 0 1.46-.483 2-1.364.139.013.267.013.41.013 1.433 0 2.915-.662 4.073-1.792.466 2.057 1.082 3.957 1.812 5.505-.625.101-1.305.142-2.024.12-1.033-.037-1.623.081-1.911.384a.722.722 0 0 0-.199.517c0 .266.224.552.855.552.458 0 1.002-.146 1.617-.434.61-.289 1.28-.44 1.991-.45 1.298 2.438 2.797 3.725 4.338 3.725.863 0 1.375-.508 1.55-.944.095-.228.144-.464.144-.679 0-1.492-2.092-2.373-4.406-2.66 4.21-1.492 7.404-5.05 8.32-6.157h.002c.063-.069.13-.146.202-.228.343-.393.813-.929 1.229-.929.058 0 .07.143.07.263 0 .258-.058.628-.126 1.058-.092.577-.196 1.232-.196 1.853 0 1.51.664 2.275 1.975 2.275 1.846 0 3.834-1.022 5.923-3.042a3.2 3.2 0 0 0-.103.768c0 .48.14.877.404 1.147.269.273.653.412 1.142.412.058 0 .117-.003.178-.006 1.394-.07 2.798-1.473 4.175-4.17 1.008 1.786 2.326 2.726 3.827 2.726 1.293 0 2.623-.736 3.845-2.129l.069-.078-.033-.103Zm-11.914 3.02c-.575 0-.868-.308-.868-.915 0-1.553 1.818-4.129 3.753-4.129.256 0 .568.137.665.4l.005.013c.038.083.097.207.207.26l.007.032-.039.09.055-.033a.794.794 0 0 0 .052.123c-.707 1.597-2.11 4.16-3.837 4.16Zm-15.304 6.405c-.127.252-.458.396-.91.396-1.16 0-2.31-.995-3.343-2.883 2.168.166 4.361.91 4.361 2.038.002.138-.038.299-.108.45Zm-2.697-28.077c1.56 0 2.57 1.292 2.57 3.291 0 3.849-3.032 10.43-6.67 14.538-.463-2.508-.708-5.07-.708-7.434 0-4.004.698-7.114 1.964-8.76.774-1.024 1.837-1.635 2.844-1.635ZM64.883 56.277c-.66 0-1.105-.859-1.105-1.66 0-.204.029-.55.2-.846.493.874 1.263 1.472 2.205 1.71-.31.403-.754.796-1.3.796Zm-.459-2.99c.049-.045.08-.078.167-.173a.386.386 0 0 0 .113-.266.283.283 0 0 0-.295-.297.46.46 0 0 0-.204.063 2.839 2.839 0 0 1-.061-.558c0-1.256.93-2.033 1.793-2.033.66 0 1.363.479 1.363 1.824 0 1.025-.267 2.144-.718 3.018-.977-.179-1.72-.721-2.158-1.578Z" fill="#3E4241" fill-opacity=".6"/><g opacity=".999" fill="#3E4241" fill-opacity=".6"><path d="M33.484 81.18c-.685.54-1.575.562-2.158-.303-.563-.835-.297-1.715.408-2.27.715-.566 1.591-.517 2.149.31.525.779.354 1.67-.399 2.263Zm-1.339-1.988c-.48.378-.69.893-.372 1.365.346.511.864.38 1.302.034.466-.367.693-.862.358-1.358-.323-.48-.808-.419-1.288-.041ZM35.495 84.273l-.898.892-.435-.512 2.242-2.23.906 1.066c.45.53.422 1.081.076 1.425-.3.299-.614.285-.83.175.06.161.099.457-.302.856l-.11.11c-.152.15-.322.323-.398.46l-.422-.497c.062-.14.222-.314.46-.55l.034-.033c.245-.243.305-.426-.028-.817l-.295-.345Zm.387-.383.373.44c.244.286.44.296.626.11.182-.181.175-.412-.043-.668l-.384-.452-.572.57ZM39.903 90.665l-.364-.342c.041-.094.098-.192.158-.28-.276.065-.582-.045-.902-.345-.668-.627-.603-1.522-.034-2.23.6-.749 1.454-.935 2.179-.254.592.555.65 1.243.366 1.72l-.497-.467c.086-.212.122-.522-.214-.837-.472-.444-.95-.143-1.302.296-.343.427-.528.994-.072 1.422.426.4.76.153.94-.069l.017-.022-.505-.474.354-.44.991.93-1.115 1.392ZM43.295 92.476l-.593.484-.535-.394 2.571-2.09.684.503-.826 3.378-.572-.421.19-.782-.92-.678Zm1.106.11c.184-.706.302-1.158.396-1.447l-.004-.002c-.23.222-.626.556-1.079.941l.687.508ZM47.033 95.934l1.418-2.916.722.411c.018.846.067 2.38.036 2.769l.008.005c.118-.322.364-.828.597-1.306l.42-.864.529.301-1.418 2.916-.685-.39c-.012-.735-.042-2.484-.012-2.896l-.008-.005c-.105.267-.39.869-.644 1.39l-.432.887-.53-.302ZM53.991 95.861l-1.146 3.052-.611-.269 1.146-3.052.611.27ZM58.514 99.9c-.28.551-.809.848-1.54.612-.925-.298-1.167-1.149-.92-2.046.239-.865.905-1.495 1.847-1.19.777.25 1.017.865.943 1.416l-.63-.204c.006-.263-.085-.557-.481-.685-.52-.168-.862.274-1.02.848-.147.534-.128 1.153.437 1.335.412.132.624-.123.73-.29l.634.205ZM65.157 101.527l-.312.728-.644-.075 1.356-3.155.822.096.747 3.4-.688-.08-.174-.786-1.107-.128Zm1.024-.469c-.146-.716-.24-1.174-.283-1.476h-.005c-.107.314-.309.81-.54 1.381l.828.095ZM69.972 102.679l-.05-3.293.816-.014c.391.732 1.115 2.054 1.26 2.41h.01c-.04-.342-.048-.915-.057-1.456l-.014-.976.596-.01.05 3.293-.774.013c-.337-.638-1.14-2.156-1.296-2.534h-.009c.027.288.044.964.053 1.555l.016 1.001-.601.011ZM75.377 99.156l1.198-.16c.88-.116 1.528.434 1.637 1.401.108.953-.368 1.75-1.293 1.873l-1.17.155-.372-3.27Zm.96 2.612.491-.066c.58-.077.783-.577.71-1.214-.06-.534-.356-.993-.948-.914l-.494.065.242 2.129ZM84.669 100.575l-.93-3.138.778-.27c.571.58 1.617 1.618 1.851 1.915l.008-.003c-.13-.316-.29-.861-.443-1.376l-.275-.93.569-.198.929 3.138-.738.256c-.493-.505-1.667-1.708-1.918-2.021l-.008.002c.102.268.3.91.466 1.472l.283.954-.572.199ZM90.339 97.525l.074.8-.59.288-.315-3.463.753-.369 2.24 2.52-.63.309-.518-.582-1.014.497ZM91 96.56c-.463-.536-.757-.88-.937-1.117l-.005.002c.055.33.114.869.183 1.486l.76-.371ZM93.912 93.402l-.801.501-.27-.505 2.168-1.358.27.505-.798.5 1.256 2.345-.57.358-1.255-2.346ZM97.639 90.136l1.075 1.581c.345.51.69.469.955.257.303-.241.373-.57.045-1.053l-1.075-1.582.532-.423 1.056 1.553c.617.908.282 1.53-.259 1.96-.553.441-1.195.58-1.798-.308l-1.063-1.563.532-.422ZM103.021 87.974l.827.968-.473.472-2.066-2.42.983-.982c.488-.487.998-.459 1.317-.085.278.325.264.664.164.897.149-.066.423-.108.792.325l.101.12c.139.162.298.346.427.429l-.459.457c-.129-.066-.291-.24-.511-.497l-.03-.036c-.226-.265-.394-.328-.755.033l-.317.319Zm-.356-.417.405-.405c.265-.265.274-.476.102-.679-.168-.197-.381-.189-.617.048l-.418.417.528.619ZM107.063 84.35l.375.694-.424.529-1.624-3.003.542-.676 3.008 1.275-.453.567-.696-.294-.728.909Zm.227-1.175c-.627-.278-1.028-.456-1.283-.591l-.003.004c.178.273.439.737.741 1.267l.545-.68ZM108.153 78.857l.377-.584 2.057 1.548.866-1.347.4.4-1.2 1.864-2.5-1.88Z"/></g></svg>