<svg width="123" height="123" fill="none" xmlns="http://www.w3.org/2000/svg"><g opacity=".999" fill="#3E4241" fill-opacity=".6"><path d="M117.833 37.328a60.908 60.908 0 0 0-13.098-19.427A60.91 60.91 0 0 0 85.309 4.803C77.773 1.615 69.77 0 61.52 0s-16.255 1.616-23.79 4.803a60.915 60.915 0 0 0-19.427 13.098A60.924 60.924 0 0 0 5.205 37.328C2.017 44.863.402 52.868.402 61.118s1.615 16.254 4.803 23.789a60.918 60.918 0 0 0 13.098 19.426 60.919 60.919 0 0 0 19.426 13.099c7.536 3.188 15.539 4.803 23.79 4.803s16.255-1.617 23.79-4.803a60.913 60.913 0 0 0 19.426-13.099 60.902 60.902 0 0 0 13.098-19.426c3.188-7.535 4.803-15.54 4.803-23.79s-1.615-16.254-4.803-23.789Zm-56.314 83.918c-33.153 0-60.125-26.973-60.125-60.127C1.394 27.963 28.366.99 61.519.99s60.125 26.973 60.125 60.127-26.972 60.128-60.125 60.128Z"/><path d="M16.77 51.771a.496.496 0 0 0 .59-.378C21.87 30.833 40.44 15.91 61.52 15.91c10.368 0 20.498 3.598 28.523 10.133a.495.495 0 1 0 .627-.767 46.025 46.025 0 0 0-13.412-7.606 46.076 46.076 0 0 0-15.738-2.75A45.991 45.991 0 0 0 32.37 25.275c-8.085 6.583-13.76 15.784-15.979 25.908a.495.495 0 0 0 .378.59ZM16.184 62.325a1.689 1.689 0 1 0 0-3.378 1.689 1.689 0 0 0 0 3.378Z"/><path d="m113.053 84.668-.012-.002-.022-.003h.001l-.01-.002c-2.644.313-5.381.922-7.64 2.421l.029-.017c-1.639 1.019-3.057 2.318-4.565 3.509l.036-.028c-3.112 2.417-5.695 5.423-8.713 7.928-1.628.76-3.528.934-5.317 1.284a46.197 46.197 0 0 0 5.277-4.028.49.49 0 0 0 .163-.422 21.23 21.23 0 0 0 1.938-1.943l-.013.012.018-.016c1.56-1.576 3.128-3.218 4.388-5.044l-.015.024a15.72 15.72 0 0 1 1.35-1.788c1.352-1.138 2.771-2.2 4.41-2.9 1.69-.755 3.034-2.11 4.301-3.428 2.583-2.634 2.806-6.457 3.106-9.925.359-2.524.709-5.057.918-7.592.01-.044.036-.104-.013-.131-.058-.02-.078.046-.106.085h.001l-.006.01a.009.009 0 0 0 .002-.004l-.04.06.008-.01c-.417.6-.603 1.33-.973 1.962-.435.665-1.026 1.209-1.496 1.848-.171.225-.339.453-.506.683.016-.492.03-.982.053-1.475v.032c.054-1.37-.335-2.795.131-4.112l-.013.038c.657-2.207 2.387-3.813 3.312-5.876.613-1.425.413-3.011.127-4.49-.082-2.41-1.182-4.552-2.207-6.68-1.186-2.182-1.795-4.575-2.008-7.037-.019-.403-.067-.815.004-1.21.005-.01.007-.021.013-.03.026-.037-.029-.083-.061-.05l-.007.007-.011.014h.001l-.005.006c-.797 2.02-1.418 4.222-1.213 6.425l-.001-.028c.098 1.571.484 3.092.756 4.637l-.006-.036c.533 3.17 1.695 6.187 2.328 9.324-.094 1.643-.851 3.247-1.287 4.838a2.747 2.747 0 0 1-.035.098c-.324-2.823-.54-5.71-1.553-8.392l.003.014a.144.144 0 0 0-.005-.02c-.529-1.73-1.102-3.49-1.928-5.102.005.005.008.012.012.02a12.63 12.63 0 0 1-.762-1.662c-.296-1.41-.51-2.84-.38-4.29.111-1.505-.342-2.994-.8-4.414-.894-2.873-3.553-4.512-5.93-6.068-1.674-1.233-3.36-2.463-5.1-3.593-.028-.025-.06-.065-.099-.042-.036.035.004.073.021.109v-.002l.005.01-.003-.004c.01.018.02.035.028.052l-.005-.01c.272.531.724.948 1.034 1.458.31.569.472 1.203.75 1.788.818 1.791 1.81 3.52 3.198 4.936l-.004-.004.034.033-.007-.008c1.209 1.05 2.639 1.808 3.893 2.803.299.261.623.56.813.927l-.001-.002c.232.452.311.962.504 1.428.27.52.712.932.924 1.486.383.96.457 1.994.705 2.988-2.866-5.08-6.745-9.769-11.796-12.772l-.026-.014c.006.002.01.006.016.009a9.522 9.522 0 0 1-1.371-1.127c-.13-.124-.256-.25-.384-.374-2.088-2.007-5.68-3.764-8.56-2.688l.007-.001c-.215.063-.435.11-.651.168l.023-.006c-.282.063-.548.177-.826.256l.01-.002-.124.036.023-.007c-.095.036-.196.032-.294.049l.014-.001a3.277 3.277 0 0 0-.103.014l.015-.002c-.244.044-1.114-.193-.362.168-.002 0-.004 0-.007-.003l.045.02-.003-.001c.035.015.07.03.106.043 0 0 0-.002-.002-.002a.04.04 0 0 1 .01.005c.683.203 1.42.099 2.12.002 1.082.084 2.173.224 3.183.65 1.517.681 2.717 1.979 4.434 2.198l.076.017h-.004c2.689.78 4.916 2.45 6.932 4.346-1.976-.504-4.013-.807-5.814-1.837-1.953-1.22-4.081-1.513-6.336-1.612-.144.021-1.23-.015-.85.212 3.392 1.187 4.292 4.55 8.652 4.342h-.001.034-.002.018-.02c.959-.084 1.92-.117 2.844-.414.444-.094.902-.1 1.354-.137l-.05.001.232-.009h-.02.05-.027c1.092-.103 2.671 2.293 3.41 3.103 2.465 3.213 4.635 6.694 6.02 10.514-1.639-3.281-4.612-4.185-7.016-6.555l.007.007-.028-.026a.024.024 0 0 0 .006.004l-.029-.026-.011-.011.015.015c-.546-.587-1.267-.945-1.923-1.385-.642-.518-1.264-1.084-2.038-1.403-1.225-.51-2.604-.509-3.793-1.12l.01.005c-1.552-.756-.794-.274-.097.463.8.977 1.517 2.032 2.387 2.952l.015.016-.001-.001.015.016-.003-.003c1.566 1.509 2.994 3.403 5.385 3.312 1.33-.055 2.704-.228 3.86.612l.015.009-.004-.002c.026.015.051.03.075.046l-.018-.012c.014.01.029.018.045.027l-.008-.004c.236.193.462.398.683.608l-.029-.03.048.047-.011-.011.029.028-.003-.003c1.167 1.078 1.939 2.477 2.73 3.835a.097.097 0 0 1-.01-.018c.726 1.213.962 2.682 1.255 4.055l-.001-.009a.308.308 0 0 0 .008.042l-.006-.03c.518 3.23.944 6.487.743 9.765.084.452-.116 1.005.055 1.413-1.064 1.555-1.973 3.216-2.535 5.025l.002-.007-.015.056.004-.013c-.432 1.916-.417 3.9-.765 5.83-.108.474-.241.998-.528 1.416l.002-.003c-.353.513-.858.893-1.249 1.373-.405.593-.593 1.31-1.067 1.86-.815.97-1.888 1.652-2.817 2.497 3.819-6.044 6.627-12.953 6.936-20.15v-.036.022c.066-.723.221-1.436.42-2.134.058-.212.12-.422.182-.632.953-3.42.765-8.319-2.069-10.802l.005.005c-.193-.195-.372-.406-.561-.605.007.007.013.015.021.021-.232-.267-.509-.488-.756-.742.002.004.006.006.009.01-.039-.038-.075-.077-.111-.114l.019.02c-.093-.08-.148-.193-.222-.29l.01.016-.075-.102c.003.004.006.01.01.013-.19-.237-.439-1.314-.393-.293l-.001-.009c.001.02.002.04.005.06v-.004c.003.047.007.093.014.139v-.002l.001.012c.177.856.719 1.591 1.229 2.29.539 1.217 1.02 2.477 1.147 3.812.146 2.035-.558 4.083.202 6.064l.025.093-.001-.003c.719 3.354.209 6.73-.665 10.007-.604-2.426-1.461-4.8-1.395-7.343.183-2.816-.737-5.284-1.94-7.777-.105-.143-.696-1.335-.722-.794.69 4.352-2.417 7.275.338 11.862v-.002c.006.013.014.025.021.037l-.001-.002a.091.091 0 0 0 .011.018l-.011-.02c.645.985 1.24 2.003 2.097 2.83.359.424.633.915.934 1.383l-.031-.054.144.246-.012-.022.03.053-.017-.028c.745 1.118-.923 4.215-1.369 5.484-2.037 4.527-4.533 8.89-7.853 12.604 2.59-3.675 1.84-7.409 3.001-11.381l-.003.011a.54.54 0 0 0 .012-.045c0 .002 0 .005-.002.008l.012-.047.006-.018-.007.025c.315-.93.284-1.917.378-2.88.185-.993.437-1.993.33-3.013-.16-1.618-.963-3.108-.992-4.745l-.001.013c-.085-2.114-.165-1.016-.557.166-.59 1.43-1.312 2.817-1.8 4.29l-.009.027v-.001l-.009.026.003-.005c-.72 2.567-1.935 5.208-.448 7.736.831 1.403 1.817 2.786 1.58 4.523v.02-.004l-.006.108.002-.028c0 .022-.002.043-.003.065v-.01c-.072.366-.162.729-.26 1.09l.014-.05-.022.08.006-.02-.014.048.002-.005c-.488 1.886-1.548 3.532-2.555 5.173l.013-.02c-.634 1.064-1.555 1.933-2.509 2.75a.497.497 0 0 0-.458.106 45.148 45.148 0 0 1-29.94 11.336c-21.6 0-40.262-15.365-44.375-36.536a.495.495 0 0 0-.973.188C18.191 80.35 23.8 89.813 31.968 96.62a46.017 46.017 0 0 0 13.566 7.849 46.045 46.045 0 0 0 15.99 2.842c8.7 0 17.15-2.447 24.435-6.99.078-.017.155-.033.233-.046l-.05.008c2.765-.572 5.502.363 8.266.164 1.894-.166 3.492-1.303 4.92-2.47 2.555-1.488 4.229-3.92 5.931-6.262 1.667-2.547 3.895-4.594 6.43-6.255.424-.254.841-.545 1.308-.697.013-.001.027-.006.04-.005.051.01.069-.075.016-.09Zm-2.59-31.305c-.169-.543-.451-1.043-.602-1.594a.23.23 0 0 0 .01.029c-.044-.134-.08-.269-.124-.402l.001.004-.099-.312.01.03-.098-.3.01.029-.053-.16a.097.097 0 0 0 .008.021c-.847-3.303-1.648-6.672-1.477-10.105l-.001.006a.235.235 0 0 0 .002-.026l-.001.013c.109-.728.247-1.45.383-2.173l-.014.207c-.05 1.07.019 2.16.226 3.212l.002.01-.001-.006.033.158-.001-.008.084.385-.007-.03c.2 1.124.625 2.187.9 3.292a.135.135 0 0 1-.006-.027l.008.037-.002-.008.008.042-.003-.015.007.032-.004-.017.005.023-.001-.004.006.032-.009-.037c.533 2.878.709 5.8 1.113 8.697l-.016-.049.01.028c-.105-.34-.193-.684-.312-1.02l.005.006Zm.278-1.647c-.132-2.07-.459-4.127-.819-6.17-.353-1.276-.827-2.516-1.068-3.823a.208.208 0 0 0-.005-.024l.002.007c-.257-1.307-.285-2.65-.21-3.977l.001.102c.25 2.455.922 4.84 2.101 7.016l-.018-.033c.387.737.653 1.53 1.034 2.27l-.018-.035c1.066 2.174 1.282 4.7 1.367 7.087-.116 1.914-1.448 3.419-2.558 4.871.999-2.366.52-4.845.191-7.29ZM98.73 36.603c-2.198-1.688-3.33-4.317-4.353-6.8 2.64 2.998 5.335 5.975 7.767 9.146-1.13-.794-2.3-1.53-3.414-2.346Zm4.827 5.14c-.363-.442-.524-.995-.666-1.54.275.568.538 1.14.823 1.703-.053-.053-.105-.108-.157-.163Zm.867-.272.001-.013c-.041.34-.068.679-.113 1.017-.009-.035-.017-.069-.027-.102-1.023-2.95-3.085-5.316-5.159-7.587-1.58-1.714-2.978-3.586-4.634-5.229.515.353 1 .758 1.538 1.071l.095.053c2.392 1.844 5.348 3.15 6.958 5.816.783 1.457 1.219 3.134 1.355 4.77a4.635 4.635 0 0 0-.014.204ZM83.501 29.459h.006c-.21.003-.418.026-.627.035h.014-.027.005c-.42-.017-.821.1-1.228.187.347-.118.712-.17 1.065-.268l-.014.005c.114-.031.229-.063.341-.1h.002c2.09-.719 4.124.26 5.982 1.168.89.48 1.63 1.192 2.365 1.875-.38-.213-.715-.5-1.079-.741-1.042-.674-2.083-1.443-3.317-1.708h.003c-.119-.028-.24-.053-.36-.08l.01.002-.034-.01c-.83-.147-1.647-.43-2.5-.386.005 0 .01 0 .014-.002l-.025.002h.009c-.045 0-.089.002-.132.003l.03-.001c-.16.004-.32.01-.48.016h.006c-.01.003-.02.003-.029.003Zm7.962 3.371c-.861-.406-1.835-.483-2.692-.891-1.56-.979-3.074-2.172-4.995-2.267 1.023-.09 1.986.284 2.97.498.468.116.93.263 1.36.487l-.04-.022c1.23.634 2.304 1.514 3.487 2.22-.032-.007-.06-.016-.09-.025Zm4.123 4.533-.04.011.05-.014h-.001l.008-.002-.017.005Zm.197-.058c-2.692.812-5.95.604-7.918-1.623-.553-.498-1.195-.89-1.788-1.338.204.058.413.091.617.152l-.027-.008c.098.03.196.06.294.088l-.012-.003c.917.263 1.884.38 2.662.981l-.007-.004c1.819 1.35 4.03 1.616 6.219 1.75a.15.15 0 0 0-.04.005Zm-6.01-1.986c-1.263-.939-2.955-.791-4.337-1.404 1.294.215 2.657.088 3.894.59 2.195 1.048 4.367 2.183 6.807 2.507-2.212-.17-4.478-.408-6.364-1.693Zm4.166 6.29.024.005c1.362.211 2.568.836 3.574 1.77.701.482 1.478.859 2.058 1.5l.024.023-.013-.012c.155.15.306.305.462.453-.006-.003-.01-.008-.015-.013.005.005.009.01.014.012-.278-.137-.554-.278-.831-.417-1.285-.637-2.597-1.222-3.844-1.933l.037.02c-.928-.497-1.824-1.042-2.66-1.683.378.146.787.189 1.18.278l-.01-.004Zm-1.11.357-.006-.007.008.01-.002-.003Zm9.177 5.048c-1.275-.186-2.569.261-3.838-.187-.782-.219-1.344-.797-1.92-1.334-1.276-1.014-2.344-2.24-3.381-3.486L92.862 42l.005.005-.001-.001a8.987 8.987 0 0 1-.65-.766c3.006 2.45 6.745 3.67 9.943 5.812-.051-.013-.101-.028-.153-.037Zm4.829 26.836c.546-3.353 2.726-6.1 4.814-8.648-1.703 4.59-3.352 9.228-5.363 13.696.201-1.68.316-3.373.549-5.048Zm-2.744 8.196c.265-.65.768-1.143 1.275-1.613-.454.626-.917 1.242-1.361 1.876.027-.088.056-.175.086-.263Zm-.259 1.15c2.591-2.817 3.946-6.417 5.194-9.974.933-2.7 2.142-5.297 2.953-8.04-.08.762-.237 1.519-.261 2.283l-.002.134c-.602 3.652-.295 7.602-2.239 10.889-1.117 1.69-2.674 3.136-4.362 4.231l-.227.105.014-.007c-.39.153-.772.323-1.163.47.031-.03.063-.06.093-.091Zm1.466-30.598.003.005c-.226-.463-.584-.83-.914-1.218.329.306.596.67.907.995l-.013-.014c.1.106.201.21.305.313l-.001-.001a.014.014 0 0 0 .004.003c1.989 1.838 2.114 4.603 2.212 7.135-.001 1.24-.341 2.45-.651 3.642.009-.536.125-1.062.175-1.596.122-1.516.347-3.086-.084-4.573l.001.005c-.039-.145-.081-.29-.121-.436l.003.013-.011-.043c-.323-.981-.491-2.028-1.034-2.921l.008.013a.238.238 0 0 1-.016-.027l.006.008c-.028-.046-.053-.093-.081-.14l.018.033c-.097-.17-.197-.34-.296-.51a.065.065 0 0 0 .004.008l-.018-.03.004.006c-.126-.224-.272-.436-.402-.657l.009.015a.26.26 0 0 1-.017-.028Zm.789 7.792c.151-2.251.56-4.58-.454-6.709.691 1.052.846 2.309 1.186 3.495.146.572.256 1.158.264 1.75l.001-.054c.031 1.695-.297 3.365-.372 5.053l-.024-.112c-.062-1.164-.545-2.26-.601-3.423Zm-1.898 10.507-.035-.036.044.045h-.001l.006.006-.014-.015Zm.177.18c-2.44-2.435-4.107-6.073-2.846-9.49.217-.888.268-1.808.407-2.709.056.255.14.499.194.753l-.007-.034a21.662 21.662 0 0 0 .074.353c.248 1.142.684 2.255.487 3.443v-.009c-.4 2.748.596 5.288 1.722 7.73l-.031-.037Zm-1.346-7.641c.28-1.908-.861-3.649-1.004-5.497.521 1.521 1.449 2.92 1.624 4.545.144 2.978.181 5.982 1.246 8.804-1.101-2.484-2.158-5.07-1.866-7.852Zm-4.367 8.162-.003-.012.008.029c.562 1.593.587 3.258.164 4.888-.112 1.035-.068 2.094-.423 3.091l-.011.04a.147.147 0 0 1 .005-.02c-.071.253-.15.507-.22.762 0-.008.004-.016.005-.023a.148.148 0 0 0-.005.02c-.013-.38-.021-.759-.032-1.14-.057-1.757-.189-3.513-.144-5.271v.05c-.001-1.29.066-2.573.272-3.849.062.492.252.959.384 1.435Zm-1.033-1.003c0-.004.002-.008.003-.011l-.005.013.002-.002Zm-2.148 8.587c-.218-.972.081-1.915.326-2.848.352-1.966 1.056-3.831 1.8-5.674l.003-.008a.02.02 0 0 0-.002.008v-.001c.132-.389.276-.775.45-1.147-.898 4.668-.046 9.413-.5 14.109-.015-.063-.029-.125-.048-.186-.542-1.487-1.775-2.624-2.029-4.253Zm-.806 17.964-.025.026c.306-.31.626-.605.92-.928l-.005.004c.489-.498.864-1.092 1.371-1.576-.007.01-.016.02-.025.028.12-.124.244-.242.362-.366l-.005.004c.094-.096.188-.192.28-.29l-.026.03c.09-.093.177-.188.266-.28-.008.01-.017.017-.026.027l.143-.15a.405.405 0 0 0-.02.022c3.075-2.833 6.247-5.653 10.051-7.463a.013.013 0 0 1-.006.002l.03-.012-.015.007c.849-.305 1.709-.576 2.568-.848l-.231.105a16.443 16.443 0 0 0-3.336 2.11l-.011.008.006-.005c-.051.041-.1.084-.15.127l.007-.005-.367.313.03-.025c-1.099.868-1.999 1.945-3.033 2.884l.027-.022-.035.03a.052.052 0 0 0 .008-.008l-.041.035.014-.012-.03.025.016-.013a.39.39 0 0 0-.021.018l.003-.003a.877.877 0 0 1 .004-.005c-2.798 2.245-5.85 4.133-8.742 6.25l.044-.044Zm16.601-11.883c-2.504 1.696-4.689 3.807-6.353 6.342l.025-.038c-.571.845-1.272 1.594-1.85 2.434a.464.464 0 0 0 .027-.04c-1.728 2.414-4.328 4.114-6.856 5.593-2.134.988-4.532.422-6.745.068 3.134-.296 5.531-2.252 7.98-4.027 2.16-1.346 4.188-2.894 6.185-4.467 1.172-1.122 2.236-2.354 3.507-3.373l.023-.02-.007.007c1.262-1.037 2.696-1.848 4.172-2.537a1.73 1.73 0 0 0-.108.058Z"/></g><path d="M47.672 73.676c0-1.565 1.112-2.676 2.78-2.676 1.468 0 2.681 1.11 2.681 2.676 0 1.564-1.011 2.272-1.011 3.18 0 .96 1.162 1.414 3.337 1.414 6.321 0 6.726-5.806 6.726-11.41V52.523c0-6.917-.455-7.522-2.933-7.623l-1.062-.051v-.606h12.592v.606l-1.061.05c-2.478.102-2.933.707-2.933 7.624v13.933c0 7.017-3.186 12.47-11.328 12.47-5.513 0-7.788-2.777-7.788-5.25Z" fill="#3E4241" fill-opacity=".6" opacity=".999"/></svg>