<svg width="123" height="123" fill="none" xmlns="http://www.w3.org/2000/svg"><g opacity=".999" fill="#3E4241" fill-opacity=".6"><path d="M116.909 42.512a.165.165 0 0 0 .104-.208 57.792 57.792 0 0 0-8.43-15.856A58.887 58.887 0 0 0 95.82 13.955C85.688 6.673 73.688 2.825 61.117 2.825c0 0 .002 0 0 0-12.57 0-24.571 3.85-34.702 11.129a58.926 58.926 0 0 0-12.764 12.494 57.823 57.823 0 0 0-8.43 15.856c-.03.085.017.18.105.208a.166.166 0 0 0 .211-.103c8.104-23.48 30.44-39.256 55.58-39.255 25.14 0 47.476 15.776 55.581 39.255.03.086.124.132.211.103ZM5.074 78.968a.164.164 0 0 0-.107.207 57.775 57.775 0 0 0 8.334 16.14 58.894 58.894 0 0 0 12.795 12.735c10.198 7.431 22.308 11.359 35.022 11.359 12.713 0 24.823-3.928 35.02-11.359a58.934 58.934 0 0 0 12.796-12.735 57.758 57.758 0 0 0 8.334-16.14.163.163 0 0 0-.107-.207.167.167 0 0 0-.21.105c-7.889 23.93-30.326 40.006-55.833 40.006-25.508 0-47.946-16.076-55.834-40.006a.168.168 0 0 0-.21-.105Z"/><path d="M2.72 41.809a.335.335 0 0 0 .424-.205C11.597 17.113 34.894.658 61.118.658c26.222 0 49.52 16.455 57.973 40.946a.334.334 0 0 0 .424.205.327.327 0 0 0 .207-.418 60.598 60.598 0 0 0-8.838-16.624 61.8 61.8 0 0 0-13.382-13.1C86.88 4.034 74.298 0 61.118 0S35.355 4.034 24.733 11.667a61.792 61.792 0 0 0-13.382 13.1A60.645 60.645 0 0 0 2.513 41.39c-.06.172.033.36.207.418ZM119.775 79.636a.334.334 0 0 0-.42.21c-8.229 24.96-31.633 41.729-58.239 41.729-26.605 0-50.01-16.769-58.238-41.728a.333.333 0 0 0-.42-.211.327.327 0 0 0-.213.415 60.552 60.552 0 0 0 8.738 16.921 61.76 61.76 0 0 0 13.415 13.353 61.923 61.923 0 0 0 17.056 8.762 62.531 62.531 0 0 0 19.662 3.148 62.53 62.53 0 0 0 19.662-3.148 61.93 61.93 0 0 0 17.058-8.762 61.734 61.734 0 0 0 13.414-13.353 60.576 60.576 0 0 0 8.739-16.921.328.328 0 0 0-.214-.415Z"/><path d="M84.813 101.598c1.604-.439 3.237-.786 4.916-.743 1.744.017 3.426-.608 5.03-1.23 3.246-1.227 4.938-4.373 6.557-7.19 1.299-1.994 2.593-4 3.767-6.064.026-.033.071-.073.041-.116-.043-.038-.084.009-.124.032l.001-.001-.01.007.004-.004a.786.786 0 0 0-.057.035l.01-.005c-.594.347-1.039.892-1.605 1.282-.632.394-1.354.625-2.006.982-2.004 1.06-3.926 2.317-5.454 3.999.001-.003.004-.004.005-.006l-.036.042.01-.01c-1.123 1.453-1.89 3.136-2.946 4.633-.279.36-.597.75-1.009.993l.003-.002c-.505.298-1.086.422-1.61.677-.58.344-1.022.879-1.644 1.16-1.08.504-2.266.663-3.393 1.019 5.644-3.63 10.762-8.384 13.852-14.35l.014-.03-.009.019c.34-.586.754-1.129 1.198-1.642.134-.156.269-.31.404-.465 2.159-2.522 3.92-6.737 2.469-9.936l.002.007c-.088-.24-.16-.487-.242-.73a.59.59 0 0 0 .009.026c-.095-.316-.245-.611-.357-.92l.003.01c-.018-.046-.034-.093-.051-.14a.651.651 0 0 0 .009.026c-.048-.105-.051-.22-.077-.331.001.005.003.01.003.016l-.024-.116.004.015c-.069-.273.14-1.28-.222-.4.002-.001.002-.005.003-.007l-.02.052.001-.004c-.016.041-.03.082-.042.123l.001-.002a.053.053 0 0 1-.005.011c-.183.792-.009 1.625.154 2.413-.017 1.237-.099 2.49-.515 3.669-.674 1.776-2.081 3.235-2.208 5.205l-.014.088v-.003c-.703 3.116-2.465 5.771-4.5 8.204.436-2.286.635-4.626 1.69-6.75 1.262-2.312 1.443-4.754 1.392-7.328-.035-.161-.073-1.399-.307-.952-1.117 3.947-4.927 5.215-4.368 10.16 0 .013.002.026.003.038v-.002l.002.02c0-.008 0-.015-.002-.021.167 1.083.276 2.174.686 3.204.14.5.182 1.02.256 1.53a.999.999 0 0 0-.005-.056c.008.088.019.175.026.264v-.023c0 .019.003.038.004.056l-.004-.03c.2 1.235-2.445 3.207-3.325 4.106-3.522 3.038-7.373 5.759-11.675 7.613 3.662-2.103 4.484-5.55 7.039-8.459l-.007.008a.716.716 0 0 1 .029-.033l-.005.005.03-.033.011-.014a.708.708 0 0 0-.015.019c.635-.665.996-1.51 1.454-2.289.55-.768 1.157-1.517 1.467-2.42.498-1.43.395-3 1.013-4.397-.003.003-.004.006-.006.01.758-1.82.258-.922-.541-.074-1.068.98-2.23 1.873-3.226 2.93a.267.267 0 0 1-.018.018l.001-.001-.017.018.003-.003c-1.624 1.892-3.702 3.654-3.42 6.37.16 1.508.46 3.06-.423 4.436l-.009.018.003-.004-.048.09.012-.023-.029.053c.001-.003.004-.005.005-.009a14.26 14.26 0 0 1-.652.821l.032-.036-.05.058a.121.121 0 0 1 .012-.013l-.03.035a.014.014 0 0 0 .003-.004c-1.158 1.405-2.711 2.387-4.22 3.384l.02-.012c-1.344.915-3.02 1.291-4.58 1.724l.01-.002a.823.823 0 0 0-.049.011l.035-.009c-3.686.824-7.408 1.545-11.2 1.555-.516.128-1.167-.059-1.626.165-1.87-1.098-3.85-2.011-5.976-2.52l.008.001-.066-.013.016.003c-2.24-.352-4.525-.193-6.776-.447-.555-.088-1.167-.202-1.67-.498l.003.001c-.62-.365-1.093-.912-1.675-1.321-.713-.418-1.553-.58-2.224-1.079-1.178-.857-2.04-2.029-3.083-3.024 7.246 3.907 15.416 6.602 23.732 6.431l.041-.002-.024.002a13.75 13.75 0 0 1 2.49.322c.248.052.495.107.741.161 4.012.837 9.644.266 12.297-3.138l-.007.006c.213-.233.44-.453.657-.682l-.022.025c.291-.284.526-.615.799-.915l-.01.01a3.748 3.748 0 0 1 .101-.111c.087-.112.212-.183.318-.274-.006.004-.011.009-.017.012l.114-.092-.015.013c.259-.233 1.481-.595.31-.468l.01-.001-.069.009.004-.001a2.096 2.096 0 0 0-.16.026h.004c-.004.001-.01.001-.014.003-.974.264-1.782.933-2.549 1.564-1.363.701-2.779 1.341-4.31 1.582-2.334.313-4.746-.339-6.973.67l-.105.035.004-.001c-3.814 1.06-7.74.725-11.582-.032 2.751-.864 5.425-2.01 8.36-2.12 3.26.003 6.036-1.222 8.82-2.771.156-.131 1.487-.89.862-.88-4.964 1.101-8.562-2.223-13.645 1.245h.001a5.516 5.516 0 0 0-.04.026c.001 0 .002 0 .002-.002a3.475 3.475 0 0 0-.02.013l.022-.014c-1.087.806-2.216 1.557-3.105 2.593-.464.439-1.01.786-1.525 1.163l.06-.039-.273.182a.435.435 0 0 1 .024-.015l-.059.038.031-.021c-1.233.93-4.925-.745-6.42-1.16-5.367-1.99-10.58-4.514-15.103-8.023 4.426 2.68 8.673 1.556 13.336 2.59a.642.642 0 0 1-.014-.004l.053.011-.01-.002c.019.003.036.008.055.01l.022.005a.287.287 0 0 0-.03-.005c1.096.292 2.23.184 3.347.221 1.16.14 2.33.352 3.498.158 1.853-.3 3.51-1.322 5.395-1.474h-.014c2.43-.25 1.16-.261-.232-.621-1.691-.569-3.343-1.288-5.076-1.737-.01-.003-.021-.005-.031-.009h.002l-.031-.008c.002 0 .004 0 .006.002-3.011-.632-6.145-1.824-8.948.052-1.556 1.048-3.077 2.27-5.096 2.128h-.025.005-.126.032-.074.012c-.428-.055-.853-.13-1.276-.216.02.004.04.007.058.012l-.093-.02.02.004c-.018-.004-.037-.007-.055-.012l.007.001c-2.21-.417-4.184-1.504-6.15-2.53l.024.012c-1.78-.9-3.164-2.47-4.544-3.882l.009.01a1.443 1.443 0 0 0-.01-.012c-3.04-3.45-5.99-6.999-8.203-11.034-.458-.495-.627-1.348-1.191-1.68-.307-.095-.417.279-.298.502-.007-.021-.012-.04-.02-.06.012.032.02.065.033.098l-.004-.015c.03.089.069.173.117.254l-.013-.02c.413.708.83 1.407 1.235 2.12l-.025-.038c.96 1.663 2.496 3.068 2.92 4.974l-.012-.054c.864 3.103-.013 6.286.42 9.418.33 2.144 1.757 3.878 3.209 5.419 1.902 2.8 4.828 4.528 7.652 6.293 3.059 1.711 5.581 4.098 7.681 6.863.324.464.69.918.9 1.437.003.015.01.031.008.046-.003.063.097.077.11.016l.001-.015.003-.025v.002-.011c-.555-2.985-1.457-6.056-3.353-8.517l.022.032c-1.294-1.791-2.896-3.31-4.38-4.94l.034.038c-3.013-3.367-6.668-6.086-9.777-9.34-1.117-2.017-1.41-4.48-2.077-6.689l-.031-.143c2.503 3.11 4.923 6.375 8.148 8.807l-.014-.014.02.02c1.931 1.661 3.939 3.325 6.137 4.627l-.029-.015c.75.42 1.481.888 2.16 1.407 1.41 1.455 2.74 2.993 3.667 4.808.995 1.867 2.654 3.298 4.267 4.645 3.225 2.748 7.648 2.724 11.667 2.814 2.935.226 5.88.44 8.818.494.052.008.121.033.15-.024.018-.068-.06-.086-.107-.114l.001.001a.045.045 0 0 1-.012-.007c.002.002.003.003.006.003l-.072-.042c.005.003.01.004.013.008-.724-.43-1.58-.591-2.334-.965-.799-.445-1.468-1.079-2.239-1.568a38.273 38.273 0 0 0-.825-.525c.57-.018 1.136-.037 1.705-.047l-.037.003c1.582-.037 3.196-.585 4.749-.149-.015-.005-.03-.008-.046-.012 2.593.587 4.57 2.439 7.015 3.343 1.688.593 3.502.252 5.184-.182 2.773-.268 5.162-1.675 7.538-2.997 2.427-1.508 5.14-2.375 7.962-2.795.462-.051.934-.135 1.394-.084.012.005.026.006.037.012.044.028.093-.038.053-.072l-.009-.007a.172.172 0 0 1-.018-.011l.002.001-.008-.005c-2.387-.76-4.97-1.307-7.494-.913l.03-.003c-1.803.226-3.527.774-5.288 1.197l.043-.01c-3.614.837-7.007 2.378-10.576 3.325-1.9.014-3.805-.731-5.67-1.112l-.116-.033c3.23-.574 6.542-1.029 9.558-2.376l-.016.005a.1.1 0 0 0 .022-.008c1.955-.727 3.942-1.507 5.739-2.564l-.021.016c.59-.369 1.214-.707 1.854-.989Zm10.887-8.07c1.784-2.624 4.729-4.102 7.517-5.447-3.261 3.221-6.494 6.504-9.968 9.502.83-1.343 1.593-2.73 2.451-4.056Zm-5.568 5.866c.482-.447 1.106-.67 1.724-.87-.634.353-1.273.695-1.902 1.059l.178-.19Zm-.674.872c3.325-1.378 5.9-3.896 8.364-6.42 1.86-1.923 3.914-3.649 5.685-5.653-.367.612-.799 1.191-1.12 1.829-.019.037-.035.074-.054.112-1.95 2.855-3.236 6.314-6.192 8.34-1.621.996-3.521 1.614-5.398 1.886h-.236.016c-.395-.021-.788-.026-1.18-.053.038-.015.077-.027.115-.041Zm13.352-25.49a8.616 8.616 0 0 0 .133.367l-.001-.002.001.003c.982 2.325.003 4.711-.907 6.891-.488 1.048-1.254 1.94-1.987 2.828.218-.45.524-.85.776-1.282.7-1.235 1.509-2.475 1.723-3.899l-.001.004c.025-.138.045-.276.068-.415l-.002.012.007-.04c.108-.956.376-1.906.262-2.872l.001.014a2.4 2.4 0 0 0-.003-.029l.001.01-.014-.149.004.034c-.017-.182-.036-.363-.054-.545l.001.008-.003-.032.001.005c-.02-.238-.061-.473-.086-.71l.001.016-.004-.031.001.007c-.011-.48-.174-.929-.304-1.384.161.384.247.796.386 1.19Zm-3.296 10.208c.404-1.01.42-2.123.829-3.128 1.013-1.846 2.277-3.656 2.245-5.85.179 1.158-.181 2.28-.356 3.416-.099.54-.235 1.079-.46 1.583l.022-.046c-.64 1.446-1.576 2.731-2.304 4.128.01-.034.016-.07.024-.103Zm-4.92 5.02a.721.721 0 0 1-.016-.044l.02.055.003.008a.127.127 0 0 1-.008-.019Zm2.832-7.326c-1.046 2.574-2.194 5.129-2.39 7.929.033-2.53.143-5.125 1.485-7.365.99-1.505.695-3.42 1.3-5.037-.153 1.488.094 3.03-.395 4.473Zm-1.463-1.582c.534-.666.938-1.424 1.412-2.132-.053.236-.076.476-.13.713l.008-.031-.078.342c0-.005.002-.01.003-.014-.236 1.062-.3 2.17-.935 3.1l.005-.007c-1.422 2.168-1.567 4.702-1.56 7.203l-.01-.043c-1.137-3.007-1.136-6.729 1.285-9.13ZM89.58 88.44a.219.219 0 0 0-.004.026c-.144 1.566-.776 2.983-1.778 4.197-.504.833-.88 1.744-1.577 2.45a.58.58 0 0 0-.024.03l.012-.015c-.161.188-.33.37-.488.558.003-.006.01-.01.014-.017l-.013.015c.138-.325.28-.65.42-.976.64-1.508 1.218-3.044 1.946-4.514l-.02.043c.506-1.092 1.068-2.15 1.744-3.149-.14.441-.16.91-.234 1.363l.002-.011Zm-.493-1.238a.57.57 0 0 0 .008-.008l-.01.01s0-.002.002-.002Zm-5.21 6.43c.194-.907.82-1.588 1.396-2.283 1.075-1.525 2.408-2.83 3.77-4.1l.005-.006-.005.005c.266-.279.54-.55.835-.796-2.601 3.598-3.735 7.942-5.967 11.736.011-.058.024-.116.031-.175.122-1.466-.488-2.906-.066-4.382Zm-6.862 9.04c-.003.001-.004.002-.006.005.249-.159.482-.341.727-.505l-.018.011.032-.021-.006.004c.517-.29.913-.725 1.335-1.127-.329.396-.729.727-1.08 1.103l.013-.015c-.114.122-.227.243-.336.37v-.001l-.002.003c-1.973 2.397-5.15 2.739-8.06 3.035-1.43.089-2.85-.21-4.245-.477.618-.028 1.233.064 1.851.083 1.757.028 3.583.171 5.264-.427a.009.009 0 0 0-.004.002c.164-.055.329-.113.493-.17l-.014.004.049-.016c1.107-.439 2.3-.704 3.29-1.388l-.013.01.03-.02-.01.007c.05-.034.104-.067.155-.102a.375.375 0 0 0-.034.022c.189-.123.376-.249.565-.374l-.007.005.03-.021Zm-12.088 1.886c1.338-.154 2.566-.783 3.901-.932 2.606.008 5.319.304 7.699-1.004-1.161.862-2.598 1.131-3.94 1.603-.65.208-1.316.376-1.999.428l.064-.004c-1.953.158-3.9-.093-5.85-.057l.125-.034Zm-8.348-2.329.039-.042a2.636 2.636 0 0 0-.049.054l.001-.001-.008.008.017-.019Zm-.193.215c2.627-2.954 6.696-5.114 10.729-3.928 1.037.182 2.101.173 3.15.266-.288.082-.563.195-.853.275l.038-.01-.42.114.018-.005c-1.298.365-2.548.94-3.932.804h.01c-3.195-.257-6.051 1.061-8.78 2.52.012-.013.028-.023.04-.036Zm8.706-2.087c2.22.18 4.143-1.246 6.262-1.541-1.716.702-3.26 1.86-5.12 2.178-3.42.379-6.879.64-10.055 2.058 2.784-1.434 5.686-2.824 8.913-2.695Zm-9.713-4.38c-.011.002-.021.007-.032.01-1.795.756-3.712.905-5.62.542-1.203-.054-2.419.075-3.596-.257l-.046-.01.024.005c-.299-.063-.595-.135-.894-.195.008 0 .017.003.026.005l-.024-.005c.437-.042.873-.08 1.311-.12 2.02-.193 4.036-.47 6.065-.547l-.058.003c1.487-.096 2.972-.111 4.456.03-.562.107-1.086.358-1.625.543.003-.001.007-.004.013-.005Zm1.067-1.245.013.003c-.005 0-.01-.003-.015-.004l.002.001Zm-14.806.795c1.671-.723 2.892-2.208 4.751-2.615 1.104-.32 2.213-.047 3.306.163 2.292.26 4.494.923 6.673 1.636a.033.033 0 0 0 .01.002c-.003 0-.005 0-.009-.002l.003.001c.457.122.913.257 1.354.428-5.445-.682-10.852.632-16.296.457.068-.023.14-.043.208-.07Zm-16.01-2.229c-.012-.009-.022-.018-.033-.025.381.325.743.668 1.137.978-.002 0-.003-.003-.006-.004.61.52 1.324.904 1.917 1.446a7.648 7.648 0 0 0-.033-.026c.152.126.296.26.449.385l-.006-.005c.118.1.236.2.354.298l-.035-.029c.113.096.229.189.342.283-.01-.01-.022-.018-.033-.028l.183.151-.025-.02c3.49 3.292 6.974 6.697 9.338 10.894l-.003-.007.017.033-.009-.017c.414.944.789 1.903 1.166 2.862a20.801 20.801 0 0 0-.138-.256 18.844 18.844 0 0 0-2.676-3.644l-.011-.011.007.007-.158-.162a.027.027 0 0 0 .008.008l-.39-.395c.012.01.022.022.033.032-1.081-1.187-2.39-2.133-3.546-3.241l.028.028-.038-.038.009.009a18.04 18.04 0 0 0-.043-.045l.015.016-.031-.033.017.017-.023-.023.004.003-.032-.033.037.039c-2.794-3.022-5.195-6.357-7.847-9.494.018.016.035.032.054.047Zm-3.232-5.681c.571 3.544 3.002 6.13 5.228 8.788 1.71 2.36 3.643 4.557 5.602 6.714 1.38 1.252 2.879 2.373 4.146 3.747l.024.025-.008-.008c1.288 1.362 2.327 2.933 3.23 4.563-.026-.039-.05-.08-.077-.119-2.138-2.727-4.732-5.059-7.775-6.769l.045.025c-1.015-.589-1.93-1.331-2.941-1.928l.048.028c-2.908-1.792-5.059-4.627-6.949-7.396-1.294-2.358-.819-5.126-.573-7.67Zm21.325 15.309c.768.254 1.375.792 1.953 1.333-.755-.471-1.5-.954-2.263-1.412.105.025.207.052.31.079Zm17.365 7.621-.153.006c-4.254-.42-8.783.217-12.713-1.756-2.032-1.149-3.81-2.816-5.199-4.658l-.136-.251a.116.116 0 0 1 .008.016c-.204-.433-.427-.854-.626-1.289.036.034.072.068.11.1 3.437 2.744 7.685 4.024 11.875 5.186 3.183.865 6.262 2.052 9.484 2.777-.884-.036-1.767-.159-2.65-.131Zm2.603-.243c-5.416-1.605-10.881-3.144-16.178-5.107 1.95.106 3.909.113 5.858.258 3.904.376 7.23 2.659 10.32 4.849Zm12.442-1.796-.03.013c.383-.145.773-.27 1.15-.429l-.005.002c.614-.231 1.169-.589 1.793-.801l-.032.014c.151-.06.304-.11.454-.169l-.006.002.353-.136-.034.013.339-.133-.033.013.18-.071-.024.01c3.745-1.203 7.569-2.359 11.538-2.414h-.007l.032.001h-.016c.847.072 1.69.176 2.532.279l-.238-.001a15.798 15.798 0 0 0-3.686.489c-.005.001-.01.002-.013.004l.008-.003-.179.05.01-.003-.439.123.036-.009c-1.282.308-2.476.87-3.728 1.262l.03-.008-.041.012.01-.004-.05.014.019-.005-.036.01.019-.005-.026.006.005-.001-.036.01.042-.012c-3.278.814-6.634 1.228-9.942 1.897l.051-.02Zm3.034-.216c2.378-.301 4.724-.823 7.05-1.379 1.444-.495 2.839-1.125 4.328-1.493a.289.289 0 0 1 .028-.008l-.01.002c1.489-.387 3.034-.517 4.57-.528-.039.004-.078.006-.118.009-2.81.463-5.51 1.401-7.93 2.9a.671.671 0 0 1 .036-.022c-.821.494-1.716.855-2.54 1.341l.039-.023c-2.428 1.37-5.322 1.8-8.068 2.07-2.216.008-4.047-1.4-5.802-2.557 2.8.965 5.621.24 8.417-.312ZM105.083 36.016c-1.174-2.063-2.468-4.07-3.767-6.064-1.618-2.817-3.311-5.962-6.557-7.189-1.604-.624-3.286-1.248-5.03-1.231-1.679.043-3.312-.305-4.916-.743-.64-.28-1.264-.62-1.859-.988l.021.015c-1.797-1.056-3.783-1.837-5.738-2.564l-.022-.008a.064.064 0 0 1 .015.006c-3.016-1.348-6.327-1.803-9.557-2.377l.115-.033c1.866-.38 3.772-1.125 5.67-1.112 3.57.948 6.961 2.488 10.576 3.325a2.509 2.509 0 0 0-.042-.01c1.76.423 3.485.972 5.288 1.198l-.03-.004c2.522.394 5.105-.153 7.493-.913l.008-.005-.001.001c.006-.003.011-.008.018-.011.003-.002.007-.004.009-.007.04-.032-.01-.098-.054-.072-.01.007-.024.008-.036.012-.46.052-.931-.033-1.395-.083-2.822-.422-5.535-1.288-7.962-2.796-2.377-1.32-4.765-2.729-7.537-2.996-1.683-.435-3.496-.776-5.184-.182-2.446.903-4.423 2.755-7.015 3.343.014-.005.03-.008.045-.012-1.552.435-3.167-.112-4.748-.15l.037.004c-.57-.01-1.137-.029-1.705-.047.278-.173.552-.348.825-.526.77-.488 1.44-1.122 2.239-1.568.754-.375 1.61-.534 2.333-.964-.004.003-.009.004-.012.007l.071-.041-.005.002.012-.007-.001.001c.047-.028.124-.045.106-.114-.028-.057-.099-.031-.15-.024-2.937.054-5.881.268-8.817.494-4.02.089-8.442.067-11.667 2.814-1.613 1.348-3.273 2.777-4.267 4.646-.928 1.814-2.257 3.352-3.667 4.807a18.059 18.059 0 0 1-2.131 1.393c-2.198 1.3-4.206 2.965-6.137 4.627l-.02.02.014-.015c-3.224 2.431-5.645 5.697-8.149 8.807l.031-.143c.668-2.21.96-4.672 2.077-6.69 3.11-3.252 6.763-5.973 9.778-9.338a1.106 1.106 0 0 1-.035.038c1.484-1.63 3.086-3.15 4.38-4.94l-.021.031c1.895-2.46 2.798-5.53 3.353-8.517v-.01.001c-.002-.007-.002-.016-.003-.025l-.001-.014c-.014-.062-.114-.047-.11.015 0 .015-.006.03-.008.046-.21.52-.577.975-.9 1.438-2.1 2.763-4.623 5.15-7.68 6.862-2.826 1.766-5.75 3.495-7.654 6.294-1.451 1.54-2.878 3.275-3.21 5.419-.431 3.13.445 6.313-.418 9.418.003-.019.009-.038.012-.055-.425 1.907-1.961 3.311-2.92 4.974l.024-.037c-.404.712-.82 1.412-1.234 2.119l.013-.02a1.262 1.262 0 0 0-.118.255l.005-.016-.033.099.02-.06c-.12.221-.01.596.297.502.565-.332.735-1.186 1.191-1.68 2.213-4.036 5.163-7.586 8.203-11.035a.774.774 0 0 1-.03.032l.04-.044-.008.01c1.38-1.412 2.763-2.981 4.543-3.882l-.024.013c1.966-1.028 3.941-2.114 6.15-2.531l-.006.001.055-.012-.02.004.093-.02a17.456 17.456 0 0 1 1.218-.205h-.013c.025 0 .05.002.075 0h-.032l.125.002h-.004.024c2.02-.142 3.542 1.08 5.096 2.127 2.805 1.876 5.939.685 8.949.053-.002 0-.005 0-.007.002l.031-.009h-.002c.01-.003.021-.005.031-.009 1.734-.448 3.385-1.168 5.076-1.736 1.392-.36 2.663-.371.233-.621h.014c-1.885-.153-3.542-1.176-5.395-1.475-1.168-.194-2.34.019-3.498.158-1.117.037-2.251-.07-3.347.221l.03-.005-.022.004-.055.011a.02.02 0 0 0 .01-.002l-.053.011.013-.003c-4.664 1.033-8.91-.091-13.336 2.59 4.525-3.51 9.737-6.034 15.103-8.023 1.496-.415 5.187-2.09 6.42-1.161l-.03-.021.058.038-.024-.015c.091.06.181.123.273.182a1.826 1.826 0 0 0-.06-.038c.517.376 1.062.723 1.525 1.163.889 1.036 2.018 1.785 3.106 2.592l-.022-.014.02.013c-.001 0-.002 0-.002-.002l.04.026h-.002c5.083 3.469 8.681.144 13.645 1.246.626.01-.706-.75-.862-.88-2.784-1.55-5.56-2.775-8.82-2.772-2.935-.11-5.608-1.256-8.36-2.12 3.84-.756 7.768-1.092 11.582-.031l-.004-.001.106.035c2.227 1.008 4.639.356 6.973.67 1.53.242 2.947.88 4.31 1.581.767.631 1.576 1.3 2.548 1.565.004 0 .01 0 .014.002h-.003c.052.011.106.02.16.026h-.004l.068.008-.01-.001c1.173.127-.05-.235-.31-.468l.015.014c-.038-.031-.074-.063-.113-.092l.016.012c-.105-.091-.23-.163-.317-.275l.022.024-.123-.134.01.01c-.274-.3-.51-.631-.8-.916l.023.026c-.217-.229-.445-.45-.657-.683l.007.007c-2.654-3.405-8.286-3.975-12.297-3.138-.247.053-.493.108-.741.16-.82.175-1.653.3-2.49.322a.181.181 0 0 1-.017 0c-8.317-.17-16.486 2.524-23.733 6.431 1.043-.995 1.906-2.167 3.084-3.024.669-.499 1.51-.661 2.224-1.078.582-.41 1.056-.957 1.674-1.321h-.003c.503-.295 1.115-.41 1.671-.497 2.25-.255 4.536-.096 6.775-.448l-.015.003.065-.013-.008.001c2.126-.508 4.106-1.422 5.977-2.52.459.225 1.11.038 1.625.166 3.792.01 7.514.73 11.2 1.554a.396.396 0 0 1-.034-.008l.048.01c-.004 0-.007 0-.01-.002 1.561.434 3.237.81 4.58 1.724-.007-.004-.012-.009-.019-.012 1.508.997 3.062 1.978 4.22 3.385a.015.015 0 0 1-.004-.005l.03.035-.012-.013.05.058-.031-.036c.227.267.446.539.651.821l-.004-.009.029.053-.013-.022c.016.03.031.06.048.089l-.002-.003c.003.005.007.01.009.017.883 1.377.583 2.93.422 4.437-.281 2.714 1.797 4.477 3.42 6.37 0-.002-.002-.003-.003-.004l.018.018h-.001l.017.018c.997 1.057 2.159 1.95 3.226 2.93.8.848 1.3 1.745.542-.075a.06.06 0 0 1 .005.01c-.618-1.396-.514-2.966-1.012-4.397-.31-.903-.918-1.652-1.467-2.42-.459-.778-.819-1.624-1.455-2.289l.016.019-.012-.013-.03-.034a.027.027 0 0 0 .005.005l-.029-.033.007.008c-2.555-2.909-3.377-6.356-7.038-8.46 4.301 1.854 8.153 4.576 11.674 7.614.88.9 3.525 2.873 3.326 4.106l.003-.03a.96.96 0 0 0-.004.056l.001-.023-.027.264.006-.057c-.075.512-.116 1.033-.257 1.53-.41 1.031-.519 2.123-.685 3.206 0-.008 0-.014.002-.021l-.002.02v-.002l-.004.038v-.001c-.559 4.946 3.25 6.213 4.369 10.16.234.448.272-.79.306-.952.051-2.574-.13-5.016-1.392-7.328-1.055-2.124-1.254-4.464-1.69-6.75 2.035 2.433 3.798 5.088 4.5 8.204v-.003c.006.03.01.06.014.089.127 1.97 1.534 3.428 2.209 5.205.415 1.18.497 2.431.514 3.669-.162.787-.337 1.619-.153 2.412l.004.011-.001-.002c.012.042.027.082.042.123l-.001-.003.02.051a.022.022 0 0 1-.002-.007c.36.88.152-.127.221-.4l-.003.015.023-.116a.093.093 0 0 0-.002.017c.025-.111.029-.227.077-.332-.004.008-.006.017-.009.026.016-.048.033-.094.051-.14l-.004.011c.113-.31.263-.604.357-.92-.003.008-.007.016-.009.025.082-.241.155-.488.242-.73l-.002.007c1.453-3.198-.31-7.414-2.469-9.936-.134-.155-.27-.308-.403-.464a10.927 10.927 0 0 1-1.198-1.643l.009.019a.35.35 0 0 0-.015-.03C96.021 29.683 90.902 24.93 85.26 21.3c1.127.355 2.313.515 3.392 1.02.623.282 1.065.815 1.645 1.16.523.254 1.105.379 1.61.676-.002 0-.003 0-.003-.002.41.243.73.633 1.009.993 1.055 1.498 1.822 3.18 2.945 4.633l-.01-.01.036.042c0-.002-.003-.003-.004-.005 1.528 1.682 3.45 2.938 5.454 3.998.653.358 1.373.588 2.005.982.565.39 1.012.936 1.605 1.282a.045.045 0 0 0-.01-.005l.058.035-.005-.003.01.006h-.001c.039.022.081.07.125.031.033-.043-.011-.082-.037-.116Zm-13.285-18.05h-.03.006c-3.97-.055-7.793-1.211-11.538-2.414l.024.01-.18-.071.033.013c-.114-.044-.226-.09-.34-.133l.035.014a46.57 46.57 0 0 0-.353-.136c.002 0 .003 0 .005.002-.15-.06-.303-.11-.453-.17l.032.014c-.623-.212-1.179-.57-1.793-.801l.005.002c-.377-.159-.767-.284-1.15-.429l.03.013-.054-.02c3.308.669 6.663 1.082 9.942 1.897l-.042-.012.035.01-.004-.002.025.007-.019-.006.036.01c-.005 0-.011-.003-.018-.004l.05.013-.01-.003.041.012a.331.331 0 0 1-.03-.009c1.253.393 2.446.954 3.727 1.263a54.724 54.724 0 0 0 .402.113l-.008-.002.179.049-.008-.002a15.761 15.761 0 0 0 3.698.493c.08 0 .159 0 .239-.002-.843.104-1.686.209-2.532.279l.018.001Zm-15.246-6.74c2.746.27 5.64.7 8.068 2.07l-.039-.022c.825.486 1.719.847 2.54 1.34l-.036-.022c2.42 1.498 5.12 2.437 7.93 2.9l.118.009c-1.534-.01-3.08-.14-4.57-.528l.01.003-.028-.008c-1.49-.369-2.884-.999-4.328-1.493-2.327-.557-4.673-1.079-7.05-1.38-2.795-.552-5.616-1.277-8.416-.312 1.754-1.158 3.586-2.566 5.801-2.557Zm-37.36 3.539-.016.033.004-.008c-2.365 4.198-5.85 7.602-9.34 10.895l.026-.021c-.06.052-.122.1-.183.151l.033-.028c-.113.094-.229.188-.342.283l.035-.029-.354.298c.003-.001.004-.003.006-.005-.152.125-.297.26-.45.386l.034-.027c-.593.542-1.307.926-1.917 1.446.002 0 .004-.003.006-.004-.394.31-.757.653-1.137.978l.032-.025-.054.045c2.652-3.137 5.053-6.473 7.847-9.494l-.037.039.032-.033-.004.003.023-.023-.017.017.031-.033-.015.016.043-.045-.009.009.038-.038-.028.028c1.157-1.108 2.465-2.054 3.546-3.241l-.032.032c.13-.132.26-.262.389-.395l-.008.008.158-.162-.007.007a18.851 18.851 0 0 0 2.687-3.655c.047-.084.092-.17.138-.255-.377.959-.752 1.916-1.166 2.86l.009-.013ZM22.973 27.1c1.89-2.77 4.04-5.604 6.948-7.396l-.048.029c1.011-.597 1.925-1.34 2.941-1.93-.015.01-.03.017-.045.026 3.044-1.71 5.637-4.042 7.775-6.768l.078-.12c-.904 1.63-1.943 3.202-3.23 4.563l.007-.007a.534.534 0 0 0-.024.025c-1.267 1.372-2.766 2.494-4.146 3.747-1.96 2.157-3.893 4.353-5.602 6.713-2.227 2.659-4.657 5.245-5.228 8.789-.247-2.545-.722-5.314.573-7.67Zm33.473.556h-.002a.083.083 0 0 0 .015-.004c-.005 0-.009.002-.013.004Zm-10.361-1.531.046-.01c1.177-.331 2.393-.204 3.595-.257 1.91-.364 3.826-.214 5.62.542l.033.011c-.005 0-.009-.003-.014-.004.539.184 1.063.435 1.625.543-1.484.142-2.969.125-4.456.03.02 0 .04.002.058.003-2.03-.078-4.045-.355-6.065-.548-.438-.04-.873-.078-1.311-.12.007-.001.016-.002.024-.005-.009.001-.018.006-.026.006.298-.06.595-.133.894-.195-.007 0-.016.002-.023.004Zm11.64 1.122a12.92 12.92 0 0 1-1.354.428l-.002.001c.003 0 .006 0 .009-.002a.032.032 0 0 1-.01.002c-2.18.713-4.38 1.377-6.673 1.636-1.093.21-2.202.483-3.306.164-1.859-.407-3.08-1.893-4.752-2.616-.068-.027-.14-.047-.21-.068 5.447-.177 10.854 1.138 16.299.455Zm-1.146-7.09a.224.224 0 0 1-.016-.017l.008.008v-.002l.048.054-.04-.043Zm10.536 3.713c-4.032 1.186-8.101-.974-10.73-3.928-.013-.013-.027-.023-.04-.035 2.73 1.46 5.585 2.777 8.78 2.52h-.01c1.384-.137 2.633.44 3.932.805l-.018-.006.42.114-.039-.01c.29.08.565.194.854.276-1.048.09-2.112.082-3.15.264Zm-.88-2.477c1.86.317 3.403 1.476 5.119 2.178-2.12-.296-4.043-1.72-6.262-1.542-3.227.13-6.13-1.26-8.913-2.695 3.176 1.42 6.634 1.68 10.056 2.059Zm3.38-4.54c2.911.296 6.088.638 8.06 3.035l.003.003-.001-.001c.109.126.222.248.337.37l-.014-.016c.351.376.751.708 1.08 1.104-.423-.404-.818-.837-1.335-1.128l.006.004a.463.463 0 0 0-.032-.02l.018.01c-.246-.164-.478-.345-.727-.504.002 0 .003.002.006.004l-.034-.022c.003.002.006.003.008.006-.189-.125-.376-.252-.566-.375l.035.022c-.051-.034-.105-.067-.156-.102l.01.007-.03-.02.015.01c-.99-.683-2.184-.949-3.292-1.388l-.049-.016c.005 0 .01.003.015.004-.165-.056-.329-.115-.493-.17l.004.002c-1.681-.599-3.507-.456-5.264-.426-.618.018-1.232.11-1.851.082 1.398-.265 2.818-.564 4.247-.475Zm1.035.883-.063-.003c.683.051 1.35.22 1.998.427 1.343.473 2.78.741 3.94 1.604-2.38-1.308-5.092-1.012-7.698-1.004-1.335-.148-2.563-.778-3.901-.933a7.426 7.426 0 0 0-.126-.035c1.95.037 3.9-.214 5.85-.056Zm-26.927 1.725-.31.079c.763-.459 1.507-.942 2.263-1.412-.578.54-1.185 1.078-1.953 1.333Zm-1.344.21c-.038.032-.074.066-.11.1.199-.434.42-.856.626-1.289l-.008.017.136-.252c1.388-1.842 3.167-3.509 5.199-4.657 3.93-1.974 8.46-1.337 12.713-1.757.051.002.102.006.153.007.883.027 1.767-.096 2.65-.132-3.22.724-6.3 1.912-9.483 2.777-4.191 1.162-8.44 2.442-11.876 5.186Zm10.992-2.74c-1.95.146-3.907.152-5.858.259 5.297-1.963 10.762-3.503 16.178-5.108-3.09 2.19-6.416 4.473-10.32 4.85Zm35.716 18.253h-.001l.009.009a.055.055 0 0 1-.008-.009Zm-2.89-7.941.024.03c.697.706 1.073 1.618 1.577 2.45 1.002 1.214 1.635 2.632 1.778 4.197 0 .01.002.018.004.027 0-.005 0-.008-.002-.012.075.453.093.922.233 1.362-.676-.998-1.239-2.058-1.743-3.149l.02.043c-.728-1.47-1.306-3.006-1.946-4.514-.14-.326-.281-.65-.42-.976l.013.015c-.004-.005-.01-.01-.014-.017.16.188.327.37.488.558a.052.052 0 0 1-.012-.014Zm-2.254-2.868c-.007-.06-.02-.117-.031-.176 2.232 3.794 3.366 8.138 5.967 11.737a10.48 10.48 0 0 1-.834-.796h-.001l.005.005-.005-.006c-1.362-1.27-2.695-2.576-3.77-4.101-.575-.693-1.202-1.376-1.397-2.282-.423-1.477.187-2.916.066-4.381Zm18.094 15.977c.91 2.18 1.889 4.565.907 6.891l-.001.004.001-.002a8.567 8.567 0 0 0-.133.367c-.138.394-.225.806-.386 1.193.13-.457.293-.904.304-1.384l-.001.007.004-.031-.001.016c.025-.238.066-.473.086-.71l-.001.005.003-.032-.001.008c.018-.182.038-.363.054-.546l-.004.034.014-.149-.001.01.003-.028-.001.014c.114-.967-.154-1.916-.262-2.872l-.007-.04.002.012c-.022-.138-.043-.278-.068-.416l.001.005c-.214-1.425-1.023-2.664-1.723-3.9-.252-.431-.557-.831-.776-1.281.734.885 1.499 1.777 1.987 2.825Zm-.242 1.076-.022-.046c.225.504.361 1.041.46 1.582.175 1.136.535 2.258.356 3.416.033-2.194-1.232-4.004-2.245-5.85-.408-1.003-.425-2.118-.83-3.127l-.023-.103c.728 1.397 1.665 2.682 2.304 4.128Zm-4.368-1.72c.489 1.443.242 2.984.394 4.473-.604-1.617-.31-3.533-1.299-5.037-1.342-2.24-1.451-4.835-1.484-7.364.196 2.8 1.343 5.355 2.389 7.928Zm-2.74-7.59c-.007 2.501.138 5.036 1.56 7.204l-.005-.008c.635.93.699 2.038.935 3.1l-.004-.014.08.343-.009-.031c.055.236.078.475.13.712-.473-.708-.877-1.466-1.412-2.132-2.421-2.401-2.422-6.123-1.288-9.128.007-.017.008-.031.012-.045Zm-.093.264.007-.019-.003.01v-.002a4.027 4.027 0 0 1-.02.055l.016-.044Zm-4.461-9.39c-.06-.062-.12-.125-.177-.19.629.364 1.268.706 1.902 1.06-.619-.2-1.243-.423-1.725-.87ZM95.7 28.86c-.86-1.326-1.62-2.713-2.451-4.056 3.476 2.998 6.708 6.281 9.968 9.502-2.787-1.344-5.734-2.821-7.517-5.446Zm2.123-.318c-2.465-2.524-5.039-5.043-8.364-6.42l-.115-.04c.393-.027.785-.031 1.18-.053h-.016.236c1.877.272 3.777.891 5.398 1.887 2.956 2.026 4.242 5.485 6.192 8.34l.054.112c.322.636.753 1.215 1.12 1.829-1.772-2.007-3.825-3.733-5.684-5.655ZM2.562 62.444c1.416 0 2.563-1.132 2.563-2.53 0-1.397-1.147-2.53-2.563-2.53-1.415 0-2.562 1.133-2.562 2.53 0 1.398 1.147 2.53 2.562 2.53ZM119.672 62.444c1.416 0 2.563-1.132 2.563-2.53 0-1.397-1.147-2.53-2.563-2.53-1.415 0-2.562 1.133-2.562 2.53 0 1.398 1.147 2.53 2.562 2.53Z"/></g><g opacity=".999" fill="#3E4241" fill-opacity=".6"><path d="M37.035 52.815c4.658 0 7.02 2.823 7.02 7.679 0 4.77-2.275 7.744-7.28 7.744-4.832 0-7.15-2.76-7.15-7.465 0-4.921 2.578-7.958 7.41-7.958Zm2.557 7.015c0-4.385-.13-6.567-2.73-6.567-2.622 0-2.795 2.268-2.795 6.653v1.54c0 4.021.26 6.332 2.794 6.332 2.428 0 2.73-2.075 2.73-6.375V59.83ZM51.052 51.98v15.658h1.213v.385h-6.434v-.385h1.192V52.365h-1.278v-.385h5.307ZM57.898 57.84v9.797h1.214v.385h-6.434v-.385h1.19v-9.411h-1.277v-.385h5.307Zm-1.95-5.453c1.343 0 2.145.662 2.145 1.968 0 1.133-.628 2.011-2.188 2.011-1.755 0-2.167-1.09-2.167-1.989 0-1.05.585-1.99 2.21-1.99ZM58.677 57.84h6.477v.386H63.79l2.6 7.102 2.34-7.102h-1.45v-.385h2.924v.385h-.953l-3.206 9.797h-2.47l-4.009-9.797h-.888v-.385ZM75.641 57.84v9.797h1.213v.385h-6.433v-.385h1.19v-9.411h-1.277v-.385h5.307Zm-1.95-5.453c1.343 0 2.144.662 2.144 1.968 0 1.133-.627 2.011-2.188 2.011-1.754 0-2.166-1.09-2.166-1.989 0-1.05.585-1.99 2.21-1.99ZM83.115 62.996V61.35c0-2.716-.238-3.421-1.104-3.421-.39 0-1.018.17-1.018.855 0 .171.043.385.13.62h.541c.108.278.173.556.173.962 0 1.005-.823 1.67-1.907 1.67-1.343 0-1.863-.728-1.863-1.776 0-1.797 1.581-2.631 4.528-2.631 3.402 0 4.55.941 4.55 4.043v4.343c0 .876.26 1.112.627 1.112.39 0 .758-.406.867-2.203l.325.022c-.108 2.567-.91 3.294-2.774 3.294-1.755 0-2.73-.535-2.99-1.584-.346 1.027-.974 1.584-2.49 1.584-1.517 0-3.206-.45-3.206-2.589 0-2.16 1.884-2.653 4.982-2.653h.63Zm0 2.332v-1.99h-.15c-.911 0-1.344.643-1.344 1.947v.342c0 1.54.15 1.755.563 1.755.411-.001.931-.685.931-2.054Z"/></g></svg>