<svg width="119" height="123" fill="none" xmlns="http://www.w3.org/2000/svg"><g opacity=".999" fill="#3E4241" fill-opacity=".6"><path opacity=".999" d="M2.812 48.498a.442.442 0 0 0 .525-.336C9.342 20.767 34.087.882 62.176.882c13.817 0 27.313 4.795 38.007 13.503a.442.442 0 0 0 .557-.685A60.88 60.88 0 0 0 82.997 3.638 60.95 60.95 0 0 0 62.176 0a60.93 60.93 0 0 0-20.819 3.637 60.872 60.872 0 0 0-17.742 10.06A61.283 61.283 0 0 0 10.23 28.901a60.632 60.632 0 0 0-7.753 19.071.442.442 0 0 0 .336.526ZM2.022 62.058a1.62 1.62 0 1 0 0-3.241 1.62 1.62 0 0 0 0 3.24ZM116.104 82.093l.004-.01c-.004.01-.01.019-.015.028l.011-.018ZM112.911 87.852c.721-1.037-.647.798-.93 1.208 1.668-2.407-.466.526-1.164 1.51l.001-.002c-1.86 2.328.393-.258 1.048-1.339.363-.438.712-.91 1.045-1.377ZM112.659 87.476c.948-1.51-.933 1.29-1.452 1.9.508-.584 1.037-1.227 1.452-1.9ZM111.208 89.377l-.026.03.026-.03ZM110.674 89.444l.001-.003c-2.093 2.498.967-.89 1.528-2.097.106-.234-1.144 1.647-1.529 2.1Z"/><path opacity=".999" d="m113.75 86.502.001-.002-.114.205.001-.001a32.008 32.008 0 0 1-1.899 2.911l-.004.007v-.001c-1.097 1.425.084-.018.859-1.106-.402.605-.847 1.269-1.037 1.503.652-.743 1.211-1.635 1.734-2.495.184-.322.031-.101-.25.32l.05-.091c.177-.26.243-.4.017-.065.111-.186.221-.37.325-.56.079-.134.421-.776.317-.625ZM103.673 80.473l-.003.01.001-.006.002-.004ZM116.773 67.944v.002c-.002.011-.005.022-.006.034l.006-.036Z"/><path opacity=".999" d="m118.902 74.313.001.001c-.005-.04-.013.038-.013.058h-.001c.001-.063-.014.065-.02.097-.012.013-.011.04-.019.056.005-.019.021-.098.005-.066-.014.055-.039.138-.052.185-.022.073-.065.135-.104.2-1.299 1.602-2.242 3.427-3.142 5.275l.025-.046c-1.716 4.03-4.498 7.347-7.099 10.802-1.571 2.26-2.215 5.054-3.566 7.373.415-2.098.172-4.242.398-6.353.046-.498.161-1.021.417-1.472 2.45-3.254 3.281-7.14 4.728-10.864 2.625-3.52 5.223-7.285 6.311-11.614.502-2.65.687-5.634.282-8.204a.874.874 0 0 0-.01-.05c0-.004-.005-.007-.007-.003.003.204.075.964.023 1.37l-.002.02a4.426 4.426 0 0 1-.113.781c-.131.659-.247 1.323-.471 1.959-2.017 5.925-8.946 9.371-12.626 14.454-1.386 1.503-1.035 4.296-.929 6.406-.182 2.668.322 5.157 1.416 7.598l-.002-.008c.207.494.491.977.478 1.531l-.002-.026c.004.082.012.162.016.244l-.001-.01a20.228 20.228 0 0 1-.359 4.227c.006-.025.013-.05.016-.076-.577 4.692-8.275 12.262-8.333 12.34.507-.7 1.225-2.526 1.541-3.09l-.01.017c.022-.038.053-.122.075-.162l-.004.007c.11-.204.229-.471.332-.678a.193.193 0 0 0-.01.016c.039-.069.074-.138.11-.207 0 .002 0 .004-.002.005l.032-.059v.003c.426-.83 1.163-2.495 1.162-2.49 1.944-4.067 1.358-7.245.547-10.716-.107-.79-.544-2.808-.903-4.815-.436-2.43-.028-4.433-1.163-5.904.154.2.445 1.443.453 3.178.021 4.083-.676 10.961-.234 14.295.197 1.483.071 3.103.066 4.566-.001.375.028.786-.08 1.15-.283.94-1.272 3.506-2.618 5.099-.517.612-.898.975-1.51 1.472-.473.383-.96.693-1.544 1.061a.426.426 0 0 0-.07.032c-9.12 5.282-19.543 8.073-30.143 8.073-28.782 0-53.65-20.473-59.129-48.681a.44.44 0 1 0-.866.169c2.666 13.728 10.087 26.247 20.894 35.253a60.92 60.92 0 0 0 17.948 10.383 60.914 60.914 0 0 0 21.154 3.76c10.755 0 21.332-2.833 30.585-8.193a.37.37 0 0 0 .066-.047c.637-.379 1.477-1.069 2.053-1.577.687-.604 1.158-1.023 1.783-1.675 1.54-1.606 2.715-2.907 4.033-4.536 1.853-2.289 3.448-4.895 4.615-7.889 5.562-6.686 7.826-5.439 10.502-14.995l-.001.001c.09-.164.202-.315.287-.483l-.005.01c1.39-1.844 1.732-4.131 1.943-6.365.086-.28.174-.558.341-.8a.023.023 0 0 0-.004.007c.181-.375.436-.808.524-1.182.015-.065.004-.131.005-.198Zm-1.752-12.725-.003.11.001-.004c-.002.033-.007.065-.012.098l.014-.204Zm-.023 1.051.002.224c-.001-.016-.005-.033-.007-.05l.005-.174Zm-.101-.936v.002c-.002 0-.002-.001 0-.002Zm-18.468 42.651c.009-.032.019-.064.027-.097-.007.033-.013.066-.027.097Zm-.058-1.168a2.875 2.875 0 0 1-.108.527c.039-.177.037-.362.109-.527Zm-.087-14.205.007.013c0-.002-.001-.003-.003-.003l-.004.002v-.012Zm.06 14.233c.08-.505.14-1.016.21-1.523.024-.166.051-.33.068-.498-.04.665-.152 1.363-.278 2.021Zm.71-3.087c-.101.796-.2 1.597-.442 2.364.19-.779.318-1.571.442-2.364Zm-.281-2.812c.159 1.213.055 2.437-.09 3.648l-.04.275c.07-1.298.153-2.614.13-3.923Zm-.086-3.781c-.026-.107-.024-.238-.114-.298.02-.255.032-.511.037-.766l.044.441c-.073-.2.09.463.033.623Zm-.105-.283.021.026c.02.036.03.077.038.118v-.001c.16 1.758.49 3.526.29 5.293.02-.898.038-2.406-.039-.641-.035-.568-.062-1.139-.098-1.707-.047-1.032-.171-2.064-.223-3.094a.056.056 0 0 1 .01.007h.001Zm.24 1.115.004.152c-.026-.365-.137-.728-.118-1.093.033.314.07.628.115.942Zm-.003-2.327c.064.367.134.733.192 1.1.005.429-.01.856-.015 1.284-.178-.814-.153-1.655-.194-2.485.006.069.016.246.017.1Zm-.01-.937c.066.374.153.747.167 1.128-.057-.293-.11-.586-.154-.88-.017-.082-.01-.166-.012-.248Zm.305 2.685c.133.86.148 1.733.203 2.6l.054 1.2c-.016-.105-.021-.225-.036-.318a42.01 42.01 0 0 0-.207-1.618c.46 2.664-.238-1.124-.066-2.195.035.156.057.782.052.331Zm.34 7.229c.015-.231.025-.46.07-.688.004-.017.005-.036.008-.054-.02.247-.019.499-.077.742Zm.127.538-.01.052a6.274 6.274 0 0 1-.044.219l.054-.271Zm-.122.668-.004.025v-.004c-.011.046-.021.092-.037.136 0 .006-.004.01-.005.016a.773.773 0 0 1 .046-.173Zm-.212-1.427c.043-.548.133-1.09.18-1.638.016.392-.074.78-.111 1.171v-.012c-.023.16-.045.32-.069.479Zm-.13.022c.107-1.101-.066.275-.13.717.005-.356.258-1.802.193-1.595a23.7 23.7 0 0 0 .096-1.564 13.47 13.47 0 0 1-.159 2.442Zm-.048 1.024c-.063.428-.113.867-.27 1.273.099-.413.185-.826.26-1.242l.01-.031Zm.047-2.634c-.014.099-.027.197-.042.294.026-.386.044-.772.051-1.16.045.294.044.582-.011.874.002-.003.001-.005.002-.008Zm.219.369c.037-.302.018-.27-.021.009.02-.567.018-1.134.022-1.701a4.547 4.547 0 0 1-.001 1.692Zm-.13-2.462c-.024-.15-.032-.067.015.52v-.005c.005.334-.006.67-.031 1.004-.067-.529-.074-2.947-.104-1.591-.037-.832-.174-1.66-.236-2.487.15.85.28 1.703.355 2.558Zm-.439 4.23.035-.32c.146-1.163.221-2.334.242-3.507.037 1.276-.096 2.565-.277 3.827Zm.025.97c-.023.231-.093.45-.15.674.038-.149.071-.297.103-.449l.047-.225Zm-.14 2.08a.388.388 0 0 1-.01.033c-.004.001-.008-.001-.011.001l.03-.063-.008.029Zm.026-.168c.025-.097.063-.192.095-.287-.022.099-.06.193-.095.287Zm.016-.658.047-.195a.363.363 0 0 1 .035-.104c-.026.101-.05.201-.082.299Zm.093.32c.001-.007-.002-.015-.002-.023a7.96 7.96 0 0 1 .04-.138c-.011.054-.023.108-.038.161Zm.22-.655-.026.086.106-.415.007-.005-.087.334Zm.09-.35-.006.006.018-.074c0 .023-.007.045-.012.068Zm-.008-.444c.018-.1.046-.194.069-.293a1.76 1.76 0 0 1-.07.293Zm.077.55c.02-.06.02-.128.055-.183 0 .011 0 .022.002.033-.005.055-.032.102-.057.15Zm.068-.198-.001-.008.004-.009c0 .006-.002.011-.003.017Zm.003-.057-.007.019c0-.065.03-.128.051-.189-.014.057-.017.117-.044.17Zm.044.035c.023-.081.034-.164.069-.24.001.001.001.002.002.001a.43.43 0 0 1-.07.239Zm.138-1.779.007-.043c.004.172-.024.34-.07.507.02-.155.04-.31.063-.464Zm-.045 1.611.017-.099c0-.008.003-.016.004-.024a.23.23 0 0 0 .08-.086 1.33 1.33 0 0 1-.1.209Zm.732-3.605c-.141 1.147-.243 2.36-.672 3.436l-.037.034c.682-1.966.576-4.063.553-6.113.119.874.207 1.761.156 2.643Zm-.822-6.518v-.009c.076 1.113.138 2.12.087.4.076.474.2.937.303 1.406.022.101.042.204.063.304l-.003-.014c.139.611.133 1.235.123 1.858-.106-.966-.299-1.924-.41-2.887.16 1.958.638 3.904.266 5.885-.009-.794-.029.836-.152 1.13.01-.807.331-3.806.081-1.767.006-.23.082-1.487.021-.855.005-.877-.05-2.535-.159-3.013v-.001c.066 1.2.11 2.416.007 3.616 0-.212-.005-.424-.011-.634.057-1.536-.308-4.839-.528-6.953.173.497.269 1.01.312 1.534Zm-.516-2.358c.045.264.063.532.095.798v-.001l.002.012c.01.11.022.22.033.329-.094-.338-.11-.681-.13-1.03.016.046.002-.078 0-.108Zm-.045 2.332c-.05-.51-.112-1.02-.13-1.532.049.493.086.986.132 1.478 0 .018 0 .037-.002.054Zm-.061-2.09-.078-.45c.01.028.015.06.021.087.018.091.033.183.05.275l.007.088Zm-.071-.885c.018.207.033.415.05.622-.021-.066-.017-.157-.06-.206-.021-.144-.022-.292-.032-.44.012.01.025.025.042.024Zm-.132 1.957c.02.137.004-.48.012-.601.038.403.045 2.446.074 1.821 0 .136-.004.27-.006.406v.011c-.055-.546-.132-1.088-.08-1.637Zm-.002 1.238c.034.267.057 1.285.072 1.176.1 1.549.237 3.091.168 4.645-.035-1.396-.16-2.785-.257-4.177-.039-.546.042-1.097.017-1.644Zm-.065.824v.1c-.014-.205-.024-.409-.034-.614.009.003.019.002.029.002l.005.512Zm-.01-.823c0 .057.001.116.003.173-.006 0-.011-.002-.017 0l.013-.173Zm-.033-.196-.006.196a5.768 5.768 0 0 1 .018-.976c.011.26-.002.52-.012.78Zm0-2.203c-.006-.15-.01-.3-.019-.45.014.15.023.3.02.45Zm-.055-1.25-.002-.029c.005.009.003.02.002.029Zm-.01-.236.009.185-.01-.018a1.701 1.701 0 0 1 .001-.167Zm-.02.54c.013.435.001.87.006 1.304-.006-.232-.012-.464-.012-.696-.004-.2-.002-.405.006-.608Zm.161 14.404c-.08.262-.146.529-.233.79.07-.266.135-.532.233-.79Zm6.27-18.903c.002-.237.049-.47.074-.707.105-.325.235-.643.349-.965.09-.244.176-.489.263-.733-.12.37-.229.747-.324 1.125-.016-.088-.212 1.001-.362 1.28Zm.037.055c-.013.07-.028.138-.038.208v-.1c-.001-.038.027-.072.038-.108Zm.14-1.392c.147-.463.319-.92.48-1.379-.155.462-.322.92-.48 1.38Zm.573-.874c-.085.28-.165.563-.25.843.078-.283.159-.564.25-.843Zm-.377 1.611c-.019.078-.038.156-.055.234l.003-.064.052-.17Zm-.163.534c-.015.121-.034.242-.048.363-.003.042-.015.083-.023.124a1.12 1.12 0 0 1 .071-.487Zm-.037 4.341-.001.008.059-.28.088-.341c-.059.419-.119.837-.202 1.252a3.414 3.414 0 0 1 .056-.639Zm.093 1.982c.032-.262.044-.529.122-.783.053-.201.106-.401.161-.603-.09.462-.209.92-.283 1.386Zm.831-5.105c.232-1.333-.084.321-.287.843.195-1.377.81-2.656 1.242-3.968l.083-.225a98.916 98.916 0 0 0-1.038 3.35Zm.517-.575c.173-.84-.117.41-.254.715.068-.302.127-.606.186-.909l.119-.281-.002.003a35.08 35.08 0 0 0 1.163-2.945c-.322 1.166-.802 2.28-1.212 3.417Zm1.349-3.8.177-.498c-.149.585-.312 1.16-.497 1.736.127-.409.221-.825.32-1.238Zm-1.954 5.529-.08.271c.079-.316.157-.634.232-.952a4.546 4.546 0 0 1-.152.68Zm.375-.482a7.913 7.913 0 0 1-.232.87c.08-.289.129-.588.232-.87Zm-.18-.224c.027-.337.093-.664.24-.97-.078.325-.153.648-.24.97Zm-.373 1.62c-.055.249-.093.501-.133.754.015-.159.028-.318.041-.477l.092-.278Zm-.158-.701c.005-.055.01-.11.024-.165l.029-.132-.01.063v-.007c-.016.08-.023.161-.043.24Zm.101-1.939c-.007.036-.023.069-.033.103.011-.047.026-.095.038-.142l-.005.04Zm-.03.336a9.521 9.521 0 0 1-.191 1.28c.016-.304-.051.37-.09.482.029-.559.076-1.132.246-1.667l.035-.095Zm-.217 1.882c-.02.146-.042.29-.063.436l.024-.256c.006-.06.026-.12.039-.18Zm-.023 1.44-.003.009c.069-.224.138-.45.213-.672-.047.555-.202 1.086-.329 1.625.035-.32.066-.644.119-.961Zm-.164-1.02.051-.303c.019-.118.033-.237.049-.356a3.26 3.26 0 0 1-.1.66Zm.409 1.886.013-.05.017-.054c-.006.035-.009.072-.03.104Zm-.188.353c.147-.534.261-1.077.418-1.608a6.14 6.14 0 0 1-.128.554c-.098.35-.19.707-.29 1.054Zm.331-.632c.478-2.041 1.158-4.038 1.843-6.017-.174.65-.339 1.3-.523 1.947.248-1.243-.203.83-.408 1.28.026-.146.207-.79.156-.681.189-.82-.147.457-.238.769l.001-.005c-.222.737-.463 1.469-.675 2.209l.002-.006c-.049.167-.1.337-.158.504Zm.373-.64a.214.214 0 0 1 .061-.105c-.021.034-.041.07-.061.105Zm.036-.1.025-.07.056-.156c-.026.075-.023.167-.081.226Zm1.343-3.917.077-.238c-.374 1.31-.65 2.693-1.259 3.914.376-1.231.804-2.446 1.182-3.676Zm-.225 1.861c.103-.235.218-.463.315-.7-.185.51-.37 1.022-.667 1.474l.024-.06c.12-.234.228-.474.329-.717l-.001.003Zm9.018-18.008c-.109.352-.253.695-.399 1.033.205-.533.398-1.07.56-1.615-.046.196-.1.39-.161.582Zm.611-4.796a1.395 1.395 0 0 1-.045.201l-.04.144c.029-.115.058-.23.085-.346Zm-.074 1.763c-.018.09-.037.182-.058.272l-.001.004c.022-.091.039-.184.059-.276Zm-.079.364c-.485 2.573-1.777 4.928-3.062 7.154 1.182-1.844 2.301-3.761 2.879-5.888-.926 3.684-2.804 7.204-5.205 10.14-1.195 1.177-1.749 2.769-2.257 4.329.471-2.379-.855 3.548-1.463 4.464.269-.59 1.071-3.475.561-1.893.296-1.693.661-3.396 1.348-4.98a.017.017 0 0 0-.002.007c1.574-2.992-.528.562-.847 2.073.321-2.098-.715 3.685-1.289 4.735l-.005.012c.303-.955.521-1.94.685-2.926-.353 1.48-.721 2.984-1.325 4.391.306-.874 1.585-5.39 1.057-3.847.26-.8.432-1.63.602-2.451-.315 1.202-.634 2.426-1.101 3.586.368-1.77 1.007-3.465 1.453-5.211-.245.764-.478 1.545-.75 2.305.338-1.301-.265.89-.514 1.352.61-1.732-.982 2.425-1.261 3.21.535-1.565 1.948-5.594 1.847-5.985.056-.24-.134.386-.196.492.056-.22-.535 1.416-.718 1.833l.005-.012c-.175.404-.342.813-.521 1.216.586-1.84 1.118-3.7 1.929-5.458l-.002.003c.9-2.068-.523.935-1.281 2.965.255-.763.463-1.35.1-.433-.352.842-1.13 2.766-1.503 4.011.082-.374.201-.738.305-1.105v.001l.154-.522-.001.005c.25-.832.905-2.897.254-1.004.407-1.272-.702 1.817-.903 2.396 1.547-6.583 5.253-12.197 9.449-17.361a55.165 55.165 0 0 1-1.393 2.525 27.338 27.338 0 0 0 2.046-3.612c-.123.449-1.316 2.567-.771 1.66-.639 1.273.743-1.23 1.055-1.941-.785 1.89-1.899 3.651-2.985 5.357.57-.724 1.148-1.445 1.643-2.223-.988 2.002.917-1.52 1.239-2.329-.378 1.585-3.403 6.158-1.172 2.754-.368.775-.755 1.543-1.136 2.312a30.697 30.697 0 0 0 1.69-3.04c-.036.095-.077.188-.109.282-1.175 2.684-.084.468.502-.995.17-.313.466-1.16.658-1.66-.288.997-.662 1.968-.984 2.953.52-1.15 1.018-2.39 1.295-3.648Zm-11.075 19.624c-.014-.383.175-.72.285-1.078.043-.126.089-.253.133-.38-.151.482-.307.966-.418 1.458Zm9.048-17.854.066-.107.059-.087-.125.194Zm1.699-2.583c-.031.14-.081.273-.138.405.051-.133.097-.268.138-.405Zm-.565.21-.006.014.078-.15-.073.176-.146.25c.048-.097.099-.194.147-.29Zm-.214.533c-.228.479-.441.97-.732 1.414-.21.295-.417.592-.626.887a34.63 34.63 0 0 0 1.358-2.301Zm-11.15 12.122c.243-.352.48-.71.761-1.032-.207.52-.474 1.018-.637 1.555.136-1.29-.315 1.401-.571 1.91.053-.313.104-.631.147-.944-.082.324-.133.669-.21 1 .024-.535.052-1.072.071-1.605-.007-.357.258-.602.439-.884Zm-1.101 2.15c.048-.208.121-.411.212-.605-.098.498-.205.995-.281 1.498.004-.298.025-.598.069-.893Zm-.03 2.852a6.023 6.023 0 0 1-.043-.467 6.913 6.913 0 0 1 .133-1.876l-.001.009c.161-.674.167-1.396.58-1.978l-.066.386.001-.004c-.05.257-.097.514-.144.773.001-.004.001-.007.004-.01l-.058.304-.002.011v-.002c-.175.898-.3 1.806-.392 2.717-.028-.252-.003-.004-.012.137Zm.025.31a.252.252 0 0 1-.003-.038l.004-.02c0 .02.003.04-.001.058Zm.015-.159c.149-1.397.436-2.777.638-4.167-.09.753-.078 1.523-.224 2.266.139-1.31.009-.445-.089.345-.047.318-.194.899-.263 1.31v-.003l-.056.3-.006-.05Zm.011.534c.023.305.029.614.033.918v-.008l.001.304c-.006.006-.009.016-.013.024-.033-.413-.021-.825-.021-1.238Zm.046 3.726a.068.068 0 0 0-.025.015c.021-.082.023-.168.029-.251.006.08-.006.159-.004.236Zm.06-2.583c-.01-.454-.04-.91-.086-1.362.068-.322.13-.646.2-.967-.069.775-.088 1.552-.114 2.33Zm.278 4.65.013.069c-.01-.021-.01-.046-.013-.069Zm-.106-5.097h-.003c.051-.82.011-1.647.069-2.466.029-.138.058-.276.085-.414-.089.956-.065 1.925-.151 2.88Zm.157 5.232c.009.042.016.085.026.127-.016-.041-.021-.084-.026-.127Zm.037-5.38-.001-.273c-.003-.078.03-.152.044-.228a4.23 4.23 0 0 1-.043.502Zm.08.694.001-.028c0 .01.001.02-.001.028Zm.015 1.082.002-.026.001.028-.003-.002Zm-.011-1.394c.038-.358.003-.722.051-1.08l.065-.441c-.01.51-.074 1.015-.116 1.521Zm.025 1.23v-.003l.004.05-.004-.047Zm.06 1.18c-.009-.066 0-.134-.001-.2.004.066 0 .133.001.2Zm.04 2.516a.58.58 0 0 1-.007-.15l.033.258-.026-.108Zm.034-4.78c-.014.25-.029.5-.04.749.001-.277-.037-.565.045-.83l-.005.082Zm-.143-1.744c-.017-.381-.023-.59-.025-.677.001.164-.004.7-.082 1.135.048-1.021-.066-2.093.24-3.075.151-.472.297-.945.444-1.418-.044 1.034-.263 2.046-.415 3.066-.007-.939-.017.629-.162.969Zm.252-.573c-.03.182-.059.365-.087.548-.014-.188.046-.367.087-.548Zm.014.771.02-.128c-.035.328-.043.659-.122.98.026-.286.067-.568.102-.852Zm-.003 2.21.003-.17c0-.033.003-.066.003-.1-.004.09.021.184-.006.27Zm-.01 1.48c.001-.018-.005-.038.001-.056l-.001.056Zm-.004-.114c-.003-.07-.006-.143-.003-.213-.003-.072.011-.141.022-.21-.009.14.005.285-.019.423Zm.007-.999.001-.114c.001-.048-.003-.095.021-.137a1.06 1.06 0 0 1-.022.251Zm.024 4.954h.006l.019.143c-.014-.046-.019-.096-.025-.143Zm.031-2.699-.001-.02h.001v.02Zm.043 3.002c-.006-.037-.01-.076-.015-.115l.001.004-.006-.074c.017.088.044.177.048.268l-.028-.083Zm-.043-5.75c-.047-.457-.006-.911.031-1.367l.07-.269c-.047.54.085 1.121-.101 1.635Zm.06-1.72a1.36 1.36 0 0 1 .044-.261.54.54 0 0 1-.044.26Zm.096 5.562a3.327 3.327 0 0 0-.005.2c-.01-.067-.001-.133.005-.2Zm.005-.096v-.01.01Zm.013 2.15.009.043.003.022-.012-.064Zm0-7.309c-.025-.33-.003.237-.018.375-.005-.245-.013-.49-.02-.736l.074-.276c-.013.213-.027.425-.036.637Zm-.042-.524a6.978 6.978 0 0 0-.004-.145c.037-.165.076-.33.115-.494-.009.22-.022.435-.111.639Zm.341 3.977.007-.162.012-.074-.019.236Zm-.214-3.296c-.052-.284.16-1.769.033-1.165.094-1.311.619-2.57.856-3.858-.285.952-.556 1.922-.818 2.885.044-.719-.06.446-.166.7.099-.704.094-1.432.332-2.106l-.001.003c.395-1.252.922-2.465 1.416-3.675-.542 1.137-1.075 2.292-1.477 3.492.196-1.112.454-2.214.693-3.314a66.353 66.353 0 0 0-.547 2.15c-.02-.144-.375 2.008-.583 2.617.334-1.293.116-2.68.641-3.91l-.002.003c.209-.432.275-.94.648-1.266l-.03.033c2.525-2.496 5.209-4.847 7.694-7.397.123-.123.239-.257.352-.391-.522.8.324-.437.573-.707-.731 1.472-5.443 6.446-2.603 3.484-3.198 4.107-5.257 9.156-6.555 14.166.473-3.448 2.028-6.675 3.143-9.927a74.61 74.61 0 0 0-2.371 6.21c.123-.403.238-.809.334-1.219v.001c.13-.778.748-2.12.835-2.556v-.001c-.256.65-.532 1.295-.773 1.954.084-.25.156-.502.233-.755-.062.288.054-.118.077-.233l-.001.004c.232-.762.536-1.507.846-2.237-.555 1.036-.887 2.18-1.322 3.268.156-.609-.603 1.667-.821 2.14.561-1.78.789-3.697 1.592-5.382-.584.962-.792 2.1-1.116 3.167.268-1.245-.666 2.472-.867 3.193.289-1.645.515-3.306.919-4.927-.539 1.812-.803 3.701-1.164 5.556Zm1.263-2.337c.1-.375.22-.748.339-1.116l-.004.015v-.002c-.105.37-.22.736-.335 1.103Zm-.994 8.967c.001-.084-.003-.168 0-.252.01-.163.01-.326.032-.488.018.248-.015.492-.032.74Zm.035-.144c.001-.046.004-.092.006-.137l.001.091-.007.046Zm.032 1.502a.45.45 0 0 1 .006-.196l.01.1c-.005.033-.003.066-.016.096Zm-.058-6.14c.012-.366-.008-.729.141-1.07a4.078 4.078 0 0 1-.04.454c-.023.207-.069.41-.101.615Zm12.719-9.369.043-.06a3.497 3.497 0 0 0-.049.084c.001-.009.004-.016.006-.024Zm-11.097 19.047c.322-.669.761-1.28 1.143-1.916l.056-.08c-.377.678-.749 1.362-1.199 1.996Zm.737-.905-.124.191.047-.078.077-.113Zm-1.091 1.706c.079-.183.162-.365.242-.548.058-.09.118-.18.181-.265-.144.269-.269.55-.423.813Zm1.19-1.439c.15-.193.298-.386.444-.581-.286.495-.578.99-.979 1.401.173-.277.364-.54.535-.82Zm7.844-11.69c-.886 3.802-2.501 7.487-5.738 9.868-.078.067-.156.136-.235.202 1.455-1.674 2.891-3.397 3.977-5.332-1.018 1.62-2.262 3.072-3.428 4.588l-.001.002h.001c-.324.407-.641.833-1.046 1.168.398-.537.787-1.091 1.131-1.656-.658.872-1.259 1.809-2.021 2.598.616-.979 3.177-4.638 1.435-2.277.282-.465-.73 1.012-.921 1.308l.008-.01c-.244.354-.457.725-.708 1.074.37-.709.856-1.36 1.267-2.037-.267.39-.573.762-.827 1.164.6-1.055-.087.131-.43.528.417-.8.996-1.488 1.483-2.241l-.006.008c.363-.618.82-1.187 1.212-1.779-.377.498-.792.977-1.132 1.504-.05.08-.104.16-.157.238-.294.414-.595.83-.905 1.234 1.231-1.823 1.431-2.043-.036-.137.665-1.287.137-.277-.293.374.126-.29-.076.14-.172.222.361-.644.745-1.282 1.152-1.894 1.286-1.843-.025-.057-.707.787 1.663-2.933-.01-.173-.818 1.232.146-.304.284-.612.443-.911l-.014.024c1.482-3.19 4.23-5.508 5.951-8.548.172-.28.345-.577.51-.867-.308.55-.598 1.108-.922 1.648l.004-.007c-1.38 2.122.352-.372.923-1.257-.441.87-.934 1.908-.089.481-.677 1.323.601-.982.838-1.508-.194.509-.376 1.025-.623 1.51.437-.567.68-1.315 1.017-1.961-.375 1.35-1.157 2.992-.123.66Zm-7.726 11.168c.089-.165.159-.342.264-.5.126-.171.254-.342.382-.512-.193.352-.418.685-.646 1.012Zm.361-.986a.564.564 0 0 1 .024-.05l.109-.155c-.045.067-.089.137-.133.205Zm.138-.326.019-.031-.007.014-.012.017Zm.068-.096c.192-.327.439-.618.67-.918l-.233.32h-.003c-.14.204-.294.396-.434.598Zm7.589-9.822.001-.013.018-.02c-.007.01-.012.022-.019.033Zm2.194-6.2-.058.276.006-.03c-.036.169-.069.34-.104.51l.007-.038c-.17.725-.387 1.436-.587 2.153a10.818 10.818 0 0 1-.817 1.894l-.021.04.003-.009c-.108.197-.207.398-.305.6l.015-.032c-.097.187-.204.37-.31.552.009-.074.016-.146.03-.22a.314.314 0 0 1 .004-.02l-.002.012c.205-.644.281-1.325.514-1.956v.002c.024-.085.058-.173.084-.254.177-.408.375-.825.365-1.284v.002c.047-.165.115-.324.169-.488l-.003.007c.033-.099.045-.203.086-.299.261-.562.506-1.147.857-1.675-.359.923-.489 1.171.026.128.023-.017.03-.06.05-.087-.075.345-.264.83-.009.217Zm-.103-.335c-.021.028-.041.057-.063.083.067-.115.122-.237.189-.35-.037.091-.081.18-.126.267Zm.197-.115-.004.01c.006-.024.014-.047.022-.071l-.018.06Zm1.017-2.17.001-.006c.012-.022.016-.047.022-.07a.221.221 0 0 1-.023.076Z"/><path opacity=".999" d="M103.928 82.577c-.001-.072 0-.063 0 0ZM107.377 86.33l.004-.007.001-.004-.005.01Z"/></g><path d="M40.049 65.13c-.503-1.178-.738-2.773-.738-5.013 0-2.265.257-4.863.506-7.376.246-2.477.5-5.038.5-7.24 0-1.676-.12-3.465-1.56-3.465-1.134 0-2.479 1.278-3.408 2.35-4.13 4.686-6.87 14.415-7.754 21.979-.102.871-.208 1.016-.242 1.036-.06 0-.302-.167-.624-.906-.68-1.575-1.01-3.476-1.01-5.813 0-5.01 1.602-11.131 3.168-16.452.044-.131.044-.224.044-.264 0-.174-.104-.254-.201-.254-.16 0-.27.183-.301.318-1.818 5.771-3.5 11.806-3.5 16.847 0 2.184.336 4.093 1 5.678.625 1.463 1.053 2.06 1.477 2.06.459 0 .74-.719.941-2.405 1.104-9.251 4.032-17.327 7.833-21.604.89-1.015 1.774-1.62 2.364-1.62.194 0 .347.057.463.175.399.398.397 1.429.395 2.52v.212c0 2.186-.203 4.587-.4 6.909-.194 2.286-.394 4.65-.394 6.771 0 2.418.25 4.204.791 5.628.274.621.519.91.769.91.164 0 .289-.154.289-.36a.713.713 0 0 0-.408-.622ZM100.43 61.064a.183.183 0 0 0-.08.017h-.03l-.05.056c-.99 1.113-2.969 2.98-5.084 2.98-1.446 0-2.705-.922-3.735-2.732a.04.04 0 0 1-.006-.012c3.724-3.793 7.702-10.87 7.702-15.82 0-3.077-1.354-4.842-3.714-4.842-1.968 0-3.659 1.36-4.89 3.933-1.08 2.256-1.7 5.303-1.7 8.359 0 3.343.622 6.233 1.801 8.396-.77.705-1.604 1.076-2.43 1.076-1.1 0-2.044-.694-2.658-1.953-.136-.288-.256-.537-.46-.603a.28.28 0 0 0-.05-.012.542.542 0 0 0-.062-.135c-.188-.295-.655-.509-1.112-.509-1.262 0-2.427.926-3.118 1.964-1.63 1.487-3.56 2.555-4.631 2.555-.2 0-.35-.43-.4-1.152-.038-.559-.203-.968-.492-1.218-.248-.215-.581-.307-.998-.276-.15.016-.342.016-.528.016-.286 0-.585-.012-.812-.025.861-.997 1.507-2.507 1.507-3.587 0-.88-.416-1.366-1.172-1.366-1.539 0-2.778 1.877-2.778 3.431 0 1.002.495 1.67 1.397 1.891-1.576 1.634-2.778 2.463-3.58 2.463-.465 0-.54-.142-.54-.594 0-.279.036-.622.105-1.003l.008-.06c.015-.123.029-.228.029-.314 0-.547-.29-.589-.378-.589-.14 0-.381.063-.862.6l-.232.252c-.754.822-1.534 1.672-2.136 1.672-.083 0-.276 0-.276-.434 0-.557.148-1.156.291-1.736.061-.243.118-.474.163-.695.044-.177.024-.455-.125-.645a.499.499 0 0 0-.407-.195c-.367 0-.912.528-1.22.865h-.001l-.05.055-.003.003-.021.023c-.999 1.117-2.962 2.955-5.06 2.955-1.447 0-2.706-.923-3.736-2.733l-.006-.011c2.674-2.71 5.274-6.887 6.664-10.711h.308c1.573 0 3.455-.046 5.481-.39 1.139-.194 1.949-.585 2.553-1.24.106-.127.162-.25.162-.354 0-.187-.15-.324-.36-.324-.228 0-.465.154-.465.413l.001.037c-.505.494-1.124.792-1.89.911-2.138.341-3.961.386-5.464.386h-.139c.566-1.683.852-3.212.852-4.547 0-3.078-1.354-4.843-3.713-4.843-1.684 0-3.195 1.026-4.37 2.965-1.019 1.683-1.749 4.015-2.062 6.579a46.68 46.68 0 0 0-5.605.856c-.708.148-1.633.362-2.51.713-.14.045-.357.15-.61.409l-.718.72.91-.455c.088-.044.244-.107.37-.157a7.8 7.8 0 0 0 .159-.065c.74-.27 1.511-.481 2.359-.647a51.147 51.147 0 0 1 5.59-.792c-.069.673-.103 1.4-.103 2.166 0 3.344.622 6.233 1.802 8.396-.772.705-1.605 1.076-2.43 1.076-1.1 0-2.045-.694-2.658-1.953-.137-.288-.256-.537-.46-.603a.283.283 0 0 0-.051-.012.542.542 0 0 0-.062-.135c-.188-.294-.655-.508-1.112-.508-2.006 0-3.766 2.336-3.766 3.748 0 .373.118.681.34.89.227.214.548.322.957.322.047 0 .097-.001.148-.005 1.145-.054 2.296-1.106 3.422-3.13.828 1.333 1.908 2.037 3.136 2.037.94 0 1.902-.435 2.806-1.261 1.143 1.878 2.55 2.832 4.184 2.832 2.543 0 4.721-2.233 5.543-3.197a.144.144 0 0 0 .01-.016l.016-.016c.23-.244.654-.694.838-.724a.204.204 0 0 1 .028.116v.032l-.01.028c-.038.128-.089.28-.142.442-.196.598-.465 1.417-.465 2.093 0 .595.386.995.96.995.821 0 1.673-.93 2.66-2.006l.038-.042c.111-.119.189-.192.242-.236a2.613 2.613 0 0 1-.05.34c-.049.26-.074.52-.074.772 0 .847.345 1.225 1.119 1.225 1.056 0 2.5-.981 4.286-2.906.464.052 1.035.082 1.627.082.613 0 .844 0 .876 1.058l.005.174c.028.895.047 1.487.972 1.487 1.155 0 2.849-.922 4.26-2.024a2.347 2.347 0 0 0-.1.64c0 .373.117.681.34.89.226.214.547.322.957.322.047 0 .097-.001.147-.004 1.146-.055 2.296-1.107 3.423-3.131.828 1.333 1.908 2.037 3.136 2.037.94 0 1.902-.434 2.806-1.26 1.142 1.877 2.55 2.831 4.184 2.831 2.543 0 4.72-2.233 5.543-3.197a.216.216 0 0 0 .059-.147c.001-.14-.115-.293-.27-.293Zm-9.24-.184c-1.007-2.055-1.538-4.783-1.538-7.912 0-5.757 2.183-11.713 5.835-11.713 2.563 0 3.1 2.319 3.1 4.265 0 4.66-3.882 11.8-7.397 15.36Zm-7.298-1.038c.195 0 .443.099.517.284l.005.012c.03.06.079.157.17.204l-.065.14.094-.051a.748.748 0 0 0 .024.052c-.578 1.204-1.716 3.122-3.11 3.122-.453 0-.682-.224-.682-.665-.001-1.164 1.475-3.098 3.047-3.098Zm-10.698-3.16c.452 0 .682.289.682.858 0 1.033-.748 2.633-1.616 3.474-.708-.158-1.142-.475-1.142-1.48 0-1.279 1.145-2.852 2.076-2.852ZM52.02 52.968c0-.777.036-1.514.108-2.193a58.638 58.638 0 0 1 4.352-.148c1.217 0 2.329.016 3.401.032-1.358 3.674-3.872 7.74-6.322 10.22-1.008-2.052-1.54-4.782-1.54-7.91Zm6.89-2.887c-.907-.015-1.846-.032-2.82-.032a49.05 49.05 0 0 0-3.907.144c.562-4.483 2.517-8.938 5.672-8.938 2.563 0 3.1 2.319 3.1 4.265 0 1.298-.3 2.84-.888 4.581a214 214 0 0 1-1.158-.02ZM46.775 60.126l.006.012c.03.06.078.157.17.204l-.065.14.093-.051.025.052c-.579 1.204-1.717 3.122-3.111 3.122-.453 0-.682-.224-.682-.665 0-1.166 1.476-3.1 3.047-3.1.195.002.443.102.517.286Z" fill="#3E4241" fill-opacity=".6"/><g opacity=".999" fill="#3E4241" fill-opacity=".6"><path d="M49.367 76.187c.088.388.367.56.815.56.447 0 .638-.177.638-.46 0-.316-.187-.452-.849-.607-1.053-.247-1.314-.63-1.314-1.153 0-.675.505-1.133 1.421-1.133 1.028 0 1.438.553 1.493 1.12h-.843c-.04-.24-.172-.497-.67-.497-.34 0-.546.14-.546.415 0 .269.165.378.79.522 1.127.265 1.373.684 1.373 1.23 0 .708-.535 1.192-1.558 1.192-.983 0-1.5-.484-1.593-1.19h.843ZM56.32 73.45h.836v1.51h1.558v-1.51h.837v3.87h-.837v-1.674h-1.558v1.675h-.837V73.45ZM67.97 75.373c0 1.078-.647 2.004-1.905 2.004-1.215 0-1.85-.882-1.85-1.991 0-1.126.703-1.992 1.905-1.992 1.132 0 1.85.794 1.85 1.979Zm-2.891-.005c0 .756.332 1.327 1.018 1.327.745 0 1.008-.623 1.008-1.313 0-.732-.3-1.307-1.021-1.307-.7 0-1.005.54-1.005 1.293ZM72.632 73.45h1.602c.823 0 1.381.463 1.381 1.199 0 .84-.636 1.227-1.4 1.227h-.744v1.445h-.838V73.45Zm.839 1.76h.638c.388 0 .661-.15.661-.545 0-.399-.289-.548-.643-.548h-.656v1.092Z"/></g><g opacity=".999" fill="#3E4241" fill-opacity=".6"><path d="m52.406 110.121-.385 2.114c.13-.033.42-.022.55-.002l-.077.427c-.27.001-.594.105-.786.252l-.426-.078.514-2.826.61.113ZM44.745 109.653c.222-.702.694-1.357 1.507-1.1.781.247.838 1.003.6 1.75-.217.687-.727 1.32-1.51 1.072-.759-.242-.825-1-.597-1.722Zm1.513.468c.174-.551.204-.991-.156-1.106-.35-.11-.588.283-.759.823-.169.533-.208.964.145 1.076.35.11.582-.202.77-.793ZM38.43 107.014c.314-.666.87-1.252 1.641-.887.74.35.694 1.106.36 1.815-.308.652-.898 1.21-1.642.859-.72-.342-.683-1.102-.36-1.787Zm1.435.666c.247-.522.335-.954-.005-1.116-.332-.157-.62.201-.862.713-.239.505-.336.926-.003 1.084.332.159.605-.119.87-.681ZM34.592 103.168l-2.926 1.346-.364-.244 2.93-1.344.36.242Zm-2.785-.972c.26-.389.667-.51 1.058-.248.37.247.46.639.173 1.07-.246.367-.654.51-1.056.242-.36-.242-.463-.634-.175-1.064Zm.846.566c.151-.225.15-.404-.002-.505-.151-.101-.31-.05-.47.189-.166.248-.133.405.01.501.142.095.309.046.462-.185Zm.202 1.657c.26-.391.667-.51 1.058-.248.37.247.463.636.173 1.07-.246.367-.654.51-1.056.242-.358-.241-.462-.633-.175-1.064Zm.847.567c.151-.226.15-.404-.002-.505-.151-.101-.31-.05-.47.19-.165.248-.132.404.01.5.143.095.308.047.462-.185ZM22.171 94.187c.598-.53 1.431-.63 2.051.068.6.674.423 1.462-.192 2.008-.624.555-1.45.592-2.043-.075-.56-.628-.473-1.416.184-2.001Zm1.422 1.605c.42-.373.573-.838.235-1.22-.367-.412-.843-.25-1.225.09-.406.36-.579.81-.222 1.21.344.389.794.292 1.212-.08ZM19.167 89.684l.959-.635.335.507-2.395 1.585-.696-1.053c-.345-.521-.244-.993.126-1.238.32-.213.611-.154.798-.027-.035-.148-.03-.408.399-.692l.118-.078c.16-.107.343-.23.433-.336l.325.49c-.076.112-.25.238-.505.407l-.036.023c-.261.173-.342.322-.087.707l.226.34Zm-.412.273-.287-.434c-.188-.284-.368-.323-.568-.19-.196.13-.22.33-.052.582l.295.447.612-.405ZM15.9 81.436l.196.411c-.07.06-.152.116-.236.165.262.052.487.256.658.616.358.754-.013 1.445-.752 1.795-.78.37-1.583.194-1.971-.624-.317-.669-.126-1.24.286-1.513l.266.562c-.149.136-.289.37-.109.75.253.533.77.475 1.228.257.447-.212.804-.595.56-1.109-.227-.48-.602-.41-.835-.3l-.023.011.27.57-.46.218-.53-1.12 1.453-.69ZM13.394 76.66l.7.02.18.583-3.033-.091-.229-.746 2.45-1.815.19.625-.564.42.306 1.004Zm-.754-.726c-.52.373-.853.61-1.08.752l.002.005c.291-.016.764-.01 1.307-.006l-.23-.75ZM12.477 70.27l-2.838.438-.118-.761c.582-.453 1.63-1.286 1.92-1.464l-.002-.008c-.291.079-.784.154-1.25.225l-.841.13-.087-.555 2.839-.44.111.722c-.507.39-1.715 1.32-2.022 1.513l.001.007c.245-.058.828-.155 1.336-.235l.864-.133.087.56ZM8.842 62.503l2.872-.074.016.62-2.871.075-.017-.621ZM11.19 55.154c.522.168.87.608.8 1.324-.089.907-.771 1.272-1.585 1.191-.783-.077-1.441-.588-1.351-1.51.075-.761.558-1.087 1.043-1.109l-.061.618c-.226.038-.461.17-.499.558-.05.51.39.752.91.803.483.048 1.009-.072 1.063-.625.04-.404-.219-.557-.38-.628l.06-.622ZM13.768 45.069l.55.434-.206.575-2.377-1.886.263-.734 3.048.009-.22.614-.704-.001-.354.989Zm-.17-1.034c-.64-.012-1.049-.02-1.316-.042v.004c.242.162.618.45 1.05.777l.265-.74ZM16.854 39.395l-2.539-1.345.361-.68c.738-.016 2.076-.057 2.415-.027l.003-.007c-.28-.111-.72-.345-1.137-.566l-.753-.398.264-.498 2.539 1.345-.342.645c-.641.01-2.166.034-2.526.004l-.003.006c.232.1.757.37 1.211.61l.773.41-.266.5ZM18.237 31.463l.674-.92c.496-.675 1.263-.79 1.947-.287.676.495.874 1.298.353 2.008l-.658.896-2.316-1.697Zm2.28.9.275-.374c.326-.445.14-.883-.312-1.214-.378-.278-.86-.348-1.194.105l-.278.379 1.508 1.105ZM28.711 24.08l-1.831-2.213.593-.491c.688.268 1.94.741 2.242.899l.006-.005c-.217-.21-.534-.594-.834-.958l-.543-.657.433-.358 1.832 2.213-.563.465c-.596-.236-2.013-.796-2.335-.962l-.006.005c.177.18.558.63.886 1.027l.557.673-.437.362ZM34.605 18.906l.154.683-.52.317-.666-2.96.665-.407 2.365 1.921-.557.34-.547-.444-.895.55Zm.515-.911c-.49-.412-.803-.675-.996-.859l-.004.003c.087.279.2.738.33 1.265l.67-.41ZM39.81 14.19l-.798.356-.208-.465 2.16-.963.207.465-.794.354.962 2.159-.569.254-.96-2.16ZM46.133 11.28l.472 1.644c.153.53.47.61.768.523.342-.098.503-.345.359-.846l-.472-1.645.597-.171.464 1.615c.271.944-.213 1.344-.822 1.518-.623.179-1.232.082-1.497-.84l-.467-1.628.598-.17ZM53.718 11.354l.159 1.139-.602.084-.396-2.845 1.25-.175c.621-.086 1.002.209 1.064.649.053.382-.126.618-.32.73.148.032.382.15.452.659l.02.14c.026.19.058.41.116.537l-.584.08c-.067-.116-.106-.328-.148-.63l-.005-.042c-.043-.311-.142-.448-.601-.384l-.405.058Zm-.069-.488.517-.072c.336-.046.449-.193.416-.431-.032-.232-.202-.34-.502-.298l-.531.074.1.727ZM60.666 11.295l-.229.662-.61-.005.995-2.866.78.006.998 2.879-.654-.005-.231-.665-1.05-.006Zm.919-.503a27.23 27.23 0 0 1-.395-1.255h-.005c-.073.283-.22.733-.386 1.25l.786.005ZM67.438 9.453l.616.084-.32 2.341 1.418.194-.14.495-1.962-.268.388-2.846Z"/></g></svg>