<svg width="123" height="121" fill="none" xmlns="http://www.w3.org/2000/svg"><g opacity=".999" fill="#3E4241" fill-opacity=".6"><path d="M1.507 48.018a.444.444 0 0 0 .528-.339C7.978 20.567 32.467.89 60.266.89 73.94.89 87.298 5.634 97.88 14.251a.443.443 0 1 0 .56-.689 60.252 60.252 0 0 0-17.563-9.96A60.324 60.324 0 0 0 60.267 0a60.31 60.31 0 0 0-20.609 3.6 60.266 60.266 0 0 0-17.563 9.96 60.662 60.662 0 0 0-13.25 15.05 60.018 60.018 0 0 0-7.676 18.88.444.444 0 0 0 .338.528ZM99.75 105.166a59.537 59.537 0 0 1-39.484 14.949c-28.483 0-53.095-20.262-58.517-48.179a.444.444 0 0 0-.871.17c2.64 13.59 9.985 25.983 20.682 34.897a60.228 60.228 0 0 0 17.767 10.278 60.295 60.295 0 0 0 20.94 3.722 60.425 60.425 0 0 0 40.072-15.172.445.445 0 0 0-.59-.665Z"/><path d="M79.593 7.142a56.572 56.572 0 0 0-19.329-3.378 56.586 56.586 0 0 0-19.326 3.377 56.501 56.501 0 0 0-16.47 9.34A56.873 56.873 0 0 0 12.04 30.594a56.277 56.277 0 0 0-7.198 17.703.221.221 0 0 0 .217.27.222.222 0 0 0 .217-.174C10.888 22.792 34.014 4.209 60.264 4.209c12.912 0 25.527 4.481 35.52 12.619a.22.22 0 0 0 .312-.032.22.22 0 0 0-.032-.312 56.488 56.488 0 0 0-16.471-9.342ZM2.56 62.025a2.158 2.158 0 1 0 0-4.316 2.158 2.158 0 0 0 0 4.316ZM102.596 97.473l.019-.021a.033.033 0 0 1 .008-.01l-.027.03Z"/><path d="M122.451 82.682h-.022.002c-2.534.752-5.106 1.83-7.057 3.683l.025-.022c-1.423 1.275-2.584 2.787-3.85 4.209-4.762 5.145-5.292 9.846-12.833 11.68 2.452-2.437 5.045-4.818 6.842-7.805a.138.138 0 0 0-.011.014c1.261-1.812 2.512-3.695 3.433-5.704-.002.009-.007.017-.01.026.91-2.346 2.788-4.153 4.821-5.575 4.652-3.254 5.897-8.995 4.935-14.325-.108-2.56-.139-5.189-.446-7.702-.061-.008-.068.059-.089.102h.001l-.005.01c.002 0 .002-.003.003-.004l-.029.065.005-.01c-1.006 3.761-3.735 6.908-4.058 10.92l.001-.006-.005.058.001-.014c-.214 2.422.701 4.938-.015 7.3-.802 1.103-1.241 2.299-1.705 3.56-.629 1.088-1.56 1.94-2.322 2.925 2.693-6.574 4.252-13.823 3.299-20.919l.004.021c.249-4.399.521-10.341-3.773-13.004.002 0 .004.003.006.004-.222-.159-.434-.332-.652-.495a.458.458 0 0 0 .023.017c-.273-.221-.582-.39-.867-.594l.01.006a3.916 3.916 0 0 1-.129-.092l.024.017c-.106-.063-.179-.163-.268-.245a.072.072 0 0 1 .012.013l-.091-.088a.118.118 0 0 1 .012.011c-.225-.198-.654-1.207-.434-.218l-.002-.01c.005.02.009.04.015.059l-.001-.004c.011.045.023.089.037.133l-.001-.002c1.096 1.864 2.911 3.317 3.377 5.566.489 1.995.167 4.146 1.282 5.974 1.28 3.154 1.362 6.539 1.073 9.891-1.008-2.267-2.254-4.439-2.628-6.934-.308-2.784-1.632-5.036-3.236-7.265-.128-.121-.91-1.186-.842-.652 1.424 4.133-1.109 7.526 2.374 11.532v-.001l.027.032c-.002 0-.002 0-.003-.002l.014.016-.015-.018c1.088 1.354 2.562 2.284 3.688 3.593l-.039-.048.183.215-.016-.018.039.046a.42.42 0 0 0-.021-.024c1.375 4.108-3.513 15.448-5.895 19.263 1.898-4.038.522-7.556.971-11.638l-.001.012.005-.046c0 .002 0 .006-.002.008l.004-.041c.005-1.95-.022-3.953-.323-5.88-.436-1.553-1.478-2.87-1.788-4.464l.001.012c-.448-2.05-.337-.965-.515.258-.333 1.509-.802 2.996-1.024 4.53v-.003l-.003.025c-1.521 8.693 1.809 6.066 3.222 11.801.005.034.008.069.012.103l-.003-.026a.684.684 0 0 0 .008.063l-.001-.01a15.292 15.292 0 0 1-.061 1.06l-.008.081.002-.019-.004.049v-.005c-.151 1.926-.903 3.717-1.605 5.495l.008-.022c-.61 1.607-1.834 2.94-2.924 4.253l.007-.008-.016.018c-2.85 3.36-6.318 6.143-9.68 8.897a56.232 56.232 0 0 1-32.67 10.447c-26.899 0-50.138-19.134-55.26-45.495a.222.222 0 0 0-.435.084c2.476 12.744 9.364 24.367 19.396 32.726a56.522 56.522 0 0 0 16.662 9.639 56.553 56.553 0 0 0 19.638 3.49c11.73 0 23.09-3.618 32.592-10.29a.343.343 0 0 0 .125-.053l-.05.023.082-.037-.012.006a1.14 1.14 0 0 0 .209-.126l-.016.013c.573-.42 1.19-.943 1.768-1.357l-.03.024c.318-.232.619-.484.913-.741a57.592 57.592 0 0 0 1.675-1.404 5.331 5.331 0 0 1 1.385-.727c-.015.005-.03.011-.046.015 2.603-1.035 5.438-.594 8.105-1.265 8.191-3.194 8.534-13.952 15.499-18.542.061-.002.052-.103-.01-.094Zm-4.715-18.778c-.874 4.78-1.685 9.595-2.879 14.307-.094-1.676-.274-3.349-.334-5.027-.045-3.37 1.613-6.43 3.213-9.28Zm.319-.076c.053.759.03 1.526.138 2.276.552 5.805 1.243 12.223-4.019 16.177-.354.216-.696.446-1.052.656 3.447-5.712 3.602-12.71 4.933-19.108Zm-6.626 6.927-.04-.029.051.037-.001-.001.007.005a.48.48 0 0 0-.017-.012Zm-6.472.836c.001-.004.001-.008.003-.011-.002.004-.002.009-.003.013v-.002Zm-.618 8.761c-.654-2.835.108-5.879.608-8.702l-.001.007c.062-.403.136-.805.241-1.198-.072 4.715 1.578 9.206 1.944 13.871-.724-1.468-2.253-2.362-2.792-3.978Zm2.845.7c-.001-.007.001-.015.002-.023l-.002.021c-.405-2.082-.955-4.137-1.278-6.233l.009.048c-.223-1.26-.378-2.526-.397-3.807.146.47.413.893.624 1.335-.003-.003-.004-.008-.006-.01 1.334 2.389 1.121 5.254 1.131 7.901-.026.257-.06.512-.083.768ZM107.632 80.115l-.002.026.002-.026Z"/></g><g opacity=".999" fill="#3E4241" fill-opacity=".6"><path d="M47.651 85.008c.088.384.363.552.806.552.442 0 .63-.174.63-.455 0-.312-.184-.446-.839-.6-1.04-.243-1.298-.623-1.298-1.14 0-.666.5-1.12 1.405-1.12 1.017 0 1.42.547 1.476 1.108h-.833c-.04-.236-.17-.492-.664-.492-.337 0-.539.138-.539.41 0 .267.163.375.782.518 1.113.262 1.357.676 1.357 1.216 0 .7-.528 1.18-1.54 1.18-.971 0-1.483-.48-1.575-1.177h.832ZM53.414 82.301h.828v1.493h1.54v-1.493h.828v3.828h-.828v-1.657h-1.54v1.657h-.828V82.3ZM63.822 84.203c0 1.066-.64 1.982-1.883 1.982-1.2 0-1.83-.872-1.83-1.969 0-1.114.695-1.969 1.883-1.969 1.12-.001 1.83.784 1.83 1.956Zm-2.859-.005c0 .748.328 1.314 1.007 1.314.736 0 .997-.617.997-1.3 0-.723-.296-1.292-1.01-1.292-.692 0-.994.534-.994 1.278ZM67.32 82.301h1.584c.814 0 1.366.458 1.366 1.186 0 .831-.63 1.213-1.386 1.213h-.736v1.43h-.828V82.3Zm.829 1.74h.631c.383 0 .654-.148.654-.539 0-.395-.285-.542-.636-.542h-.65v1.08Z"/><path d="M74.688 88.992H42.026V79.88h32.663v9.112h-.001Zm-32.33-.333h31.998v-8.446H42.359v8.446Z"/></g><g opacity=".999" fill="#3E4241" fill-opacity=".6"><path d="M75.377 63.91c0-.86.61-1.471 1.526-1.471.805 0 1.47.61 1.47 1.47 0 .861-.554 1.25-.554 1.749 0 .527.638.777 1.831.777 3.47 0 3.691-3.191 3.691-6.272v-7.88c0-3.802-.25-4.135-1.61-4.19l-.582-.029v-.333h6.91v.333l-.583.028c-1.36.056-1.61.389-1.61 4.19v7.66c0 3.857-1.748 6.854-6.216 6.854-3.024 0-4.273-1.527-4.273-2.886ZM27.506 66.143v-.333l.582-.028c1.36-.055 1.61-.388 1.61-4.19V51.99c0-3.801-.25-4.134-1.61-4.19l-.582-.027v-.334h13.597v5.023h-.25l-.305-.943c-1.082-3.275-3.08-3.719-5.66-3.719h-1.36c-1.222 0-1.305.444-1.305 4.19v4.385h1.582c1.276 0 2.664-.166 3.274-2.386l.167-.611h.25v6.327h-.25l-.167-.61c-.61-2.22-1.998-2.387-3.274-2.387h-1.582v4.884c0 3.746.083 4.19 1.304 4.19h1.915c2.83 0 4.385-.666 5.661-4.55l.305-.944h.25v5.855H27.506ZM53.321 72.061l-.305-.133 13.847-31.87.305.133-13.847 31.87Z"/></g></svg>