<svg width="133" height="123" fill="none" xmlns="http://www.w3.org/2000/svg"><g opacity=".999" fill="#FF5845"><path d="M59.09 120.004c-15.11-1.906-28.688-9.661-38.234-21.836a.354.354 0 0 0-.505-.058.37.37 0 0 0-.056.514c4.717 6.017 10.436 10.992 16.997 14.786a57.564 57.564 0 0 0 21.71 7.321c.016.002.03.002.044.002a.36.36 0 0 0 .356-.32.362.362 0 0 0-.311-.409ZM112.474 97.85a.354.354 0 0 0-.504.06c-9.621 12.413-23.373 20.271-38.722 22.129a.365.365 0 0 0 .042.728l.043-.002a57.535 57.535 0 0 0 22.022-7.369c6.651-3.849 12.43-8.907 17.179-15.032a.37.37 0 0 0-.06-.514ZM73.532 2.592c14.27 1.799 27.333 8.92 36.782 20.052a.354.354 0 0 0 .506.037.37.37 0 0 0 .037-.515C101.292 10.897 88.068 3.688 73.621 1.867a.36.36 0 0 0-.401.318c-.024.2.116.383.312.407ZM59.003 1.867C44.78 3.661 31.697 10.705 22.17 21.701a.368.368 0 0 0 .032.515.356.356 0 0 0 .506-.033C32.12 11.321 45.041 4.363 59.092 2.591a.365.365 0 0 0-.089-.724ZM66.426 0c-1.012 0-1.835.838-1.835 1.868 0 1.03.823 1.869 1.835 1.869 1.013 0 1.836-.838 1.836-1.869C68.262.838 67.439 0 66.426 0Zm0 3.005c-.616 0-1.117-.51-1.117-1.138 0-.627.501-1.137 1.117-1.137.617 0 1.118.51 1.118 1.137a1.13 1.13 0 0 1-1.118 1.138ZM66.426 118.498c-1.012 0-1.835.838-1.835 1.868 0 1.031.823 1.869 1.835 1.869 1.013 0 1.836-.838 1.836-1.869-.001-1.03-.823-1.868-1.836-1.868Zm0 3.006c-.616 0-1.117-.51-1.117-1.138 0-.627.501-1.137 1.117-1.137.617 0 1.118.51 1.118 1.137 0 .628-.501 1.138-1.118 1.138ZM109.343 42.126c.001.002.004.002.005.003l-.01-.005.005.002ZM126.944 61.634c-.001.001-.001.001 0 0ZM120.132 90.437l-.007.004-.038.02a.432.432 0 0 0 .045-.024ZM125.289 51.284l.001-.004.006-.038a.753.753 0 0 0-.007.042ZM117.036 36.277l.002.01-.001-.007-.001-.004v.001ZM117.036 36.275v-.001l-.001-.003.001.004ZM113.821 32.294l-.004.033v.002l.004-.035ZM107.908 30.207l-.007-.001h-.003l.01.001ZM118.545 82.759l.002.004-.002-.004ZM113.29 31.623l.001.007.003.008-.004-.015Z"/><path d="M130.083 70.86c-2.807.358-4.306 3.412-5.804 5.534l.009-.01a.061.061 0 0 0-.012.017l.018-.023-.027.034c.004-.005.009-.01.012-.016l-.05.066.032-.041c-.017.02-.033.042-.049.063l.004-.005-.042.055.009-.013c-.597.712-1.221 1.411-1.695 2.22a58.943 58.943 0 0 0 1.636-9.523l-.003.029c.05-.508.097-1.017.131-1.528.718-.66 1.664-.965 2.415-1.59l.09-.07-.01.008.039-.03c-.002 0-.003.003-.006.004 1.746-1.302 3.528-3.079 3.906-5.338.192-1.593-1.232-2.942-2.531-1.59-1.678 2.301-2.369 5.15-3.844 7.59.146-2.948.093-5.909-.248-8.84 2.9-2.781 5.984-6.861 5.242-11.148-.279-.965-1.274-2.264-2.297-1.377l.006-.004c-1.542 1.503-1.305 3.966-1.721 5.948l-.025.175.002-.016-.011.073.001-.006-.01.07.001-.009-.004.022.001-.008c-.41 1.808-.524 3.745-1.286 5.444-.375-3.041-.635-6.12-1.703-9.014 5.279-9.185.285-15.995-1.006-10.094-.224 3.015 1.022 5.923.633 8.948-.773-2.905-2.371-5.442-3.952-7.951.053-.21.151-.405.207-.613a.23.23 0 0 1-.007.024c3.36-9.553-3.463-10.762-1.113-2.134l-.003-.018.013.068a.958.958 0 0 0-.006-.026l.007.037.004.02v.002-.002l.001.006c.165.762.488 1.483.628 2.252-1.193-1.54-2.441-3.045-3.818-4.419-.053-.56-.125-1.179-.032-1.773l-.002.012.004-.026c.082-2.11 1.111-7.839-2.191-7.556l.016-.007-.051.02.021-.008c-1.86 1.471-.014 4.828.521 6.698l-.013-.033.103.269a.861.861 0 0 0-.023-.056l.053.134-.023-.056.181.472-.022-.056c.103.267.209.53.32.794-1.019-1.13-2.334-1.91-3.565-2.772-1.639-1.705-3.714-3.175-5.903-4.081l.009.002c-1.568-.628-4.328.542-2.336 2.26 1.924 1.615 4.646 1.453 6.986 1.858.363-.027.691.317 1.022.23 2.152 1.284 3.901 3.056 5.579 4.905-2.299-1.343-7.804-1.991-8.901 1.11.672 1.39 2.352 1.3 3.625.97 1.936-.333 3.768-1.485 5.709-1.585.644.754 1.265 1.525 1.89 2.294l-.035-.042c.777.978 1.392 2.07 2.011 3.154-2.308-1.845-5.833-2.432-8.67-1.724-2.686.868-1.787 3.322.767 3.092l-.012.001h.031c.023-.002.045-.002.069-.002h-.016l.071-.002h-.028c9.918-1.024 8.082-3.182 11.658 8.98-1.792-3.04-5.002-5.693-8.634-5.553-1.211.285-2.077 1.363-.906 2.35l.005.008a.434.434 0 0 1-.021-.028l.03.04c-.002-.002-.005-.005-.006-.008 2.171 3.226 6.773 2.195 9.699 4.124.447 3.515.965 7.042.972 10.593-1.29-3.184-7.591-9.773-10.986-6.666-.074.04-.096.142-.061.216-.022.29.174.545.264.81a.04.04 0 0 1-.004-.01c.004.01.007.021.012.03l-.001-.003c1.552 4.041 6.809 3.504 9.822 5.792a16.07 16.07 0 0 0 .208.169c.244.228.548.41.742.684-.014 3.151-.306 6.301-.803 9.41-.127-.367-.276-.725-.422-1.085l.013.032-.004-.01-.057-.141.019.047c-2.666-9.916-12.536-10.106-7.309-3.681 2.405 1.793 5.025 3.272 7.3 5.245l-.059-.046c.102.08.2.17.286.268-.3 3.745-1.704 7.372-3.022 10.868-.738-12.133-9.502-13.604-5.713-5.928 1.764 2.378 4.049 4.329 5.212 7.127a27.016 27.016 0 0 1-.814 1.91 28.543 28.543 0 0 1-.951 1.837c-.339.6-.698 1.189-1.075 1.765-.377.577-.734 1.15-1.145 1.703a43.097 43.097 0 0 1-1.339 1.732c-.212.254-.168.444-.065.533.112.096.265.144.643-.332.297-.374 1.016-1.238 1.309-1.682.212-.323.393-.583.655-.922.006-.008.037-.05.045-.05 12.343.43 12.961-12.597 3.637-3.9l-.022.02-.062.058.008-.009-.045.042.002-.003-.009.009.019-.019c-.846.696-1.638 1.451-2.454 2.18.837-1.44 1.485-2.981 2.139-4.512.121-.057.194-.213.145-.343a69.266 69.266 0 0 0 2.258-6.23c3.628-1.05 9.352-2.457 9.912-7.014.048-1.115-.785-2.269-1.954-2.155Zm.002-11.663c1.392 3.19-2.83 6.202-5.209 7.56 1.83-2.466 3.864-4.916 4.946-7.839.101.08.183.18.263.28Zm-4.594 5.678c.684-.987 1.03-2.125 1.452-3.24l-.001.002.013-.03-.007.018c.622-1.072 1.133-2.872 2.608-2.83-.501 1.474-1.358 2.774-2.207 4.059l.021-.032-.221.326a.604.604 0 0 0-.017.024c.007-.009.014-.021.022-.03l-.045.065.022-.033a1.083 1.083 0 0 1-.019.028c-.259.387-.532.762-.783 1.155l.022-.033c-.602.748-1.115 1.56-1.731 2.296.299-.575.563-1.172.871-1.745Zm2.421-19.217v.012c.006-.087.015-.176.023-.264.055.014.102.048.148.08 2.678 2.868-.939 8.646-3.18 10.878 1.513-3.376 2.681-6.995 3.009-10.706Zm-3.218 10.2c.971-2.446.669-9.674 3-10.462-.156 2.545-.908 4.998-1.601 7.432-.5 1.27-.913 2.603-1.612 3.779a6.49 6.49 0 0 0 .213-.75Zm-7.164-18.52c-.418-1.974-1.691-5.04.03-6.602-.077 2.278-.092 4.576.035 6.854-.02-.084-.04-.168-.065-.252Zm-11.092-7.768c-1.441-.272-6.138-.561-5.629-2.572 2.219.319 4.132 1.722 6.162 2.626a7.07 7.07 0 0 1-.533-.054Zm.558-.475c-2.038-.887-4.098-2.546-6.369-2.433 2.548-1.377 5.028 1.24 6.979 2.664-.201-.081-.409-.146-.61-.231Zm5.941 3.265.005.013c-.181-.486-.357-.974-.552-1.455l.006.015-.032-.084a.038.038 0 0 0 .004.01l-.02-.05.016.04a1.767 1.767 0 0 0-.018-.045v-.001a3.404 3.404 0 0 0-.035-.088l.009.02c-.486-1.624-1.812-4.151-.545-5.578.059.211.168.402.22.614l-.002-.01.005.022a.012.012 0 0 0-.003-.007c.124 1.376.241 2.747.633 4.078l-.006-.03c.137.585.187 1.187.367 1.762-.003-.008-.004-.016-.005-.023l.008.036v-.002c.12.483.157.98.216 1.474-.099-.233-.178-.474-.271-.71Zm.476-.39-.018.12.01-.06-.01.069c-.027-.159-.065-.315-.102-.47-.223-.712-.338-1.449-.528-2.169l.001.008c-.531-1.408-.307-2.967-.829-4.356.063-.016.13-.005.195-.001 2.236 1.325 1.259 4.72 1.273 6.916l.008-.056Zm.291 3.832c-1.663.42-3.249 1.126-4.935 1.46.001 0 .003 0 .004-.002l-.031.006h.006c-1.021.212-2.199.232-2.844-.746 1.087.15 2.23-.061 3.309-.245a4.844 4.844 0 0 0-.053.01c.691-.122 1.385-.206 2.078-.31h-.004l.043-.008a.03.03 0 0 0-.01.002c.867-.21 1.744-.376 2.63-.225a5.903 5.903 0 0 0-.193.058Zm.445-.293c-1.276-.16-2.541.094-3.817.189l.05-.011c-1.482.131-2.977.644-4.468.46a2.36 2.36 0 0 1 .219-.325c2.185-1.98 5.733-1.564 8.185-.313a1.588 1.588 0 0 1-.169 0Zm3.704-4.786c.029.005.059.008.087.015.134.037.239.132.331.233 1.218 2.174.283 5.083-.349 7.351l-.01.028c-.095-2.537-.095-5.098-.059-7.627Zm-.111 10.772.011-.001c-.108.004-.215.005-.322.008-2.081.24-4.125.797-6.224.887h.027c-.634.02-1.308.044-1.888-.26l.01.006-.024-.014.004.003c-.353-.162-.523-.536-.633-.892 3.066.619 6.273-.677 9.325.266-.095-.002-.191-.005-.286-.003Zm-7.266-.456c-.34-.038-.678.02-1.019 0l.045.003-.205-.016.021.003c-.141-.008-.283-.01-.417-.066a.143.143 0 0 0 .011.004c-.01-.004-.02-.008-.029-.01l.008.004a1.29 1.29 0 0 0-.209-.059.524.524 0 0 1 .043-.116c2.063-2.498 7.592-1.221 9.84.513-2.653-.761-5.389-.168-8.089-.26Zm12.435-4.998c3.161 2.619.878 7.975-.548 11.063.735-3.656.426-7.377.37-11.081.059-.01.119.007.178.018Zm-.916 6.939c-.175-1.202-.451-2.392-.508-3.609-.007-1.117-.086-2.728 1.043-3.306-.024 3.566.333 7.17-.405 10.683.087-1.261.143-2.522-.13-3.768Zm-.73 8.264c-2.808-.786-7.259-.74-8.281-4.02.423.18.754.541 1.208.66l-.019-.005c.419.157.842.297 1.268.43-.002 0-.002 0-.003-.002.156.058.308.12.463.173l-.006-.002.145.05h-.001l.17.06-.025-.01.131.045-.002-.001.025.008-.005-.001a12.584 12.584 0 0 0 .354.12l-.01-.003.046.016-.027-.009c1.248.485 2.507.999 3.601 1.793l-.008-.005.099.067c-.011-.006-.02-.013-.03-.02.434.323.953.494 1.391.81a9.242 9.242 0 0 0-.484-.154Zm-5.424-2.98h.004c-.36-.14-.733-.233-1.101-.355l.005.002-.012-.003.005.001-.374-.127a.105.105 0 0 0 .021.007l-.24-.08.02.005a5.178 5.178 0 0 1-.076-.025c.006.002.013.003.019.006a2.732 2.732 0 0 1-.598-.317 2.263 2.263 0 0 0-.469-.263c.039-.063.096-.112.148-.165 3.157-1.641 6.882 1.655 8.791 4.08 0-.002-.001-.002-.002-.003a.038.038 0 0 0 .008.011l-.001-.001.003.005.016.022-.01-.014.004.005a.13.13 0 0 0 .011.015.03.03 0 0 1-.005-.008l.124.166-.001-.002.044.06c-.002-.004-.004-.008-.007-.01l.073.103c-2.014-1.274-4.08-2.497-6.4-3.115Zm6.409 14.151c-2.883-1.678-7.407-1.369-8.937-4.87l.001.003c-.087-.229-.195-.45-.281-.68 1.618 1.22 3.561 1.83 5.399 2.618 1.382.996 2.829 1.948 4.11 3.074-.096-.049-.194-.099-.292-.145Zm-5.204-3.899.044.022c-1.373-.622-2.742-1.227-4.014-2.045.015-.024.027-.05.044-.073 3.636-2.14 8.463 3.353 10.156 6.3a20.092 20.092 0 0 0-6.23-4.204Zm4.109 13.61c-2.343-2.095-6.813-3.03-6.984-6.72 2.757 1.888 5.006 4.481 7.279 6.928l-.295-.208Zm-3.301-4.313c0 .001 0 .001 0 0l-.002-.002-.038-.033a.47.47 0 0 0 .028.024l.009.008a2.05 2.05 0 0 1-.048-.042l.011.009-.015-.013.019.016-.051-.045.008.008c-1.089-.958-2.082-2.017-3.347-2.74.086-.065.177-.119.274-.166 3.889-.489 6.157 4.08 7.302 7.227-1.25-1.538-2.744-2.857-4.15-4.25Zm2.061 21.744c1.65-1.333 3.318-3.384 5.604-3.28-1.638 2.25-4.552 3.215-6.937 4.462.428-.414.872-.807 1.333-1.182Zm.209.884c1.99-1.095 4.398-2.005 5.726-3.94.131.202.18.456.189.695-.586 3.524-5.537 4.794-8.571 4.744.833-.604 1.741-1.049 2.656-1.5Zm-1.546-6.526c-1.632-2.851-5.974-5.063-4.81-8.863 1.26 2.274 2.319 4.723 4.003 6.739l-.02-.022c.566.847.983 1.83 1.213 2.832-.124-.23-.248-.46-.386-.686Zm-.031-1.152a78.71 78.71 0 0 1-4.546-7.876c.156-.05.319-.031.48-.014 3.701 1.392 4.435 6.81 4.944 10.341-.211-.844-.447-1.694-.878-2.451Zm4.987-4.859c2.199-2.066 3.691-7.066 7.297-6.388-1.957 3.074-5.066 5.21-7.945 7.306.197-.319.423-.62.648-.918Zm7.955-4.526c-.889 3.29-4.767 4.868-7.782 5.511 2.292-1.56 4.551-3.298 6.321-5.48l-.018.023.108-.133-.006.007c.397-.467.745-.979 1.005-1.54.364.448.447 1.05.372 1.612Z"/><path d="m130.121 73.294-.003.005.014-.017-.011.012ZM116.32 48.625l-.005-.001.017.006a.032.032 0 0 0-.012-.005ZM111.999 25.776l-.001-.005.001.005c0 .002 0 0 0 0ZM112.994 31.6l-.003-.012.003.012ZM23.099 42.126c.001 0 .003 0 .005-.002l-.01.005a.01.01 0 0 0 .005-.003ZM5.498 61.634l-.004-.01a.031.031 0 0 0 .004.01c0 .001 0 .001 0 0ZM18.624 32.328v-.003c-.001-.01-.002-.022-.005-.033l.005.036ZM13.894 82.763l.002-.004c0 .001 0 .003-.002.004ZM7.146 51.243c0 .012.003.024.004.037l.001.003-.005-.04ZM12.354 90.46c-.012-.005-.024-.013-.037-.019a.533.533 0 0 0 .038.02ZM15.404 36.288l.002-.01v-.002.004c-.002.001-.002.005-.002.008ZM15.406 36.27v.004-.004ZM24.545 30.206h-.003l-.008.001.011-.001ZM19.147 31.638l.003-.008v-.006c0 .005-.002.009-.003.014Z"/><path d="M19.314 48.385c1.17-.987.305-2.065-.906-2.35-3.632-.14-6.843 2.514-8.634 5.552 3.575-12.161 1.74-10.003 11.658-8.98h-.03c.025 0 .049.002.073.003h-.017.07l.03.002-.012-.001c2.554.23 3.452-2.223.766-3.093-2.836-.706-6.362-.12-8.67 1.725.62-1.084 1.234-2.176 2.01-3.154-.01.014-.022.028-.034.042.624-.77 1.246-1.54 1.89-2.294 1.94.1 3.773 1.252 5.709 1.584 1.273.33 2.953.42 3.625-.97-1.096-3.1-6.602-2.452-8.901-1.109 1.678-1.849 3.427-3.621 5.579-4.906.331.088.66-.256 1.022-.229 2.34-.406 5.062-.244 6.986-1.857 1.991-1.719-.768-2.89-2.336-2.261l.01-.002c-2.192.906-4.265 2.376-5.904 4.081-1.231.862-2.545 1.642-3.564 2.772.108-.263.216-.527.319-.794l-.021.056.18-.472c-.007.018-.014.037-.023.055l.053-.134a.782.782 0 0 1-.023.057c.035-.09.07-.18.103-.27l-.013.033c.535-1.87 2.381-5.226.52-6.697l.022.008-.051-.02.017.007c-3.305-.283-2.275 5.447-2.192 7.556l.004.027-.002-.012c.093.595.021 1.213-.031 1.773-1.378 1.373-2.626 2.88-3.82 4.419.14-.769.464-1.49.63-2.252v-.006.002-.002l.004-.02.007-.037-.006.026.013-.068-.003.018c2.35-8.628-4.472-7.42-1.113 2.134l-.007-.024c.057.208.155.403.207.613-1.581 2.509-3.179 5.046-3.952 7.95-.389-3.025.857-5.934.633-8.947-1.29-5.9-6.285.908-1.006 10.094-1.069 2.894-1.328 5.973-1.703 9.014-.762-1.7-.877-3.636-1.286-5.444v.008l-.003-.022.001.009-.01-.07v.006l-.01-.073.002.016a738.2 738.2 0 0 0-.025-.175c-.416-1.982-.18-4.445-1.72-5.948l.005.004c-1.023-.887-2.018.412-2.298 1.377-.742 4.286 2.342 8.367 5.242 11.147-.34 2.932-.395 5.893-.249 8.84-1.474-2.44-2.166-5.288-3.843-7.589-1.299-1.353-2.723-.003-2.531 1.59.378 2.26 2.16 4.036 3.906 5.338-.003-.001-.004-.004-.006-.005l.04.03a.68.68 0 0 0 .08.064c.748.625 1.695.93 2.414 1.59.034.51.08 1.02.13 1.528 0-.01 0-.02-.002-.03l.022.226a58.921 58.921 0 0 0 1.614 9.298c-.474-.809-1.098-1.508-1.696-2.22l.01.013a1.792 1.792 0 0 1-.042-.055l.004.005a2.274 2.274 0 0 1-.05-.063l.033.041a37.647 37.647 0 0 1-.05-.066l.012.016-.027-.034.018.023c-.003-.006-.008-.01-.013-.017.003.004.005.008.009.01-1.499-2.123-2.997-5.177-5.804-5.533-1.17-.113-2.004 1.04-1.953 2.153.56 4.558 6.285 5.965 9.912 7.013a69.206 69.206 0 0 0 2.258 6.23c-.05.13.024.287.145.344.654 1.53 1.303 3.073 2.14 4.511-.817-.728-1.61-1.483-2.455-2.179l.019.019-.01-.01.003.003-.046-.041.009.008-.063-.057-.021-.02c-9.323-8.696-8.705 4.33 3.637 3.9.008 0 .04.04.045.05.262.34.443.599.655.921.293.445 1.012 1.31 1.309 1.683.377.475.531.428.643.332.102-.09.148-.279-.065-.533-.442-.53-.928-1.18-1.34-1.732-.41-.552-.767-1.126-1.144-1.703a31.33 31.33 0 0 1-1.075-1.765c-.339-.6-.657-1.213-.951-1.838a26.949 26.949 0 0 1-.814-1.91c1.163-2.797 3.447-4.749 5.211-7.126 3.79-7.676-4.974-6.206-5.712 5.928-1.318-3.496-2.722-7.124-3.022-10.868.086-.099.184-.188.286-.268-.02.016-.038.032-.059.046 2.275-1.972 4.895-3.452 7.3-5.246 5.227-6.425-4.643-6.235-7.31 3.682l.02-.047-.058.141c0 .004-.002.007-.003.01l.013-.032c-.146.36-.296.717-.422 1.084-.497-3.11-.789-6.258-.803-9.409.193-.273.496-.457.742-.684-.002 0-.004.002-.005.003.072-.057.142-.115.213-.173 3.012-2.287 8.27-1.75 9.822-5.791l-.001.004.012-.03-.004.009c.09-.266.287-.52.263-.81.037-.074.014-.175-.06-.216-3.395-3.107-9.696 3.481-10.986 6.666.008-3.552.527-7.079.972-10.594 2.926-1.928 7.53-.896 9.699-4.124a.802.802 0 0 0 .024-.032l-.02.029.007-.008Zm3.79-6.261c0-.002.003-.002.004-.003a.142.142 0 0 0-.024.014l.01-.006c-.58.303-1.253.28-1.889.26h.028c-2.099-.09-4.143-.647-6.224-.887-.108-.003-.214-.004-.322-.008l.01.001c-.095-.002-.19.001-.286.003 3.051-.943 6.258.353 9.324-.266-.109.356-.279.73-.632.892Zm.612-1.339a.592.592 0 0 1 .043.116 1.214 1.214 0 0 0-.21.058l.009-.003-.029.01.011-.004c-.133.056-.276.058-.418.066.008 0 .015-.002.022-.003l-.205.016.045-.004c-.34.021-.679-.038-1.019 0-2.7.093-5.436-.502-8.09.26 2.25-1.732 7.778-3.01 9.841-.512Zm-.021-3.52.005.001c-.01-.002-.021-.003-.03-.006 0 0 .002 0 .003.002-1.686-.334-3.273-1.04-4.935-1.46l-.192-.058c.887-.152 1.764.016 2.63.225l-.01-.002.043.008h-.004c.693.104 1.387.19 2.078.31a3.97 3.97 0 0 1-.053-.01c1.08.184 2.222.395 3.309.245-.646.979-1.824.958-2.845.745Zm2.612-1.443c.081.102.155.21.219.325-1.491.185-2.986-.329-4.469-.46l.05.01c-1.275-.094-2.54-.349-3.817-.188a1.58 1.58 0 0 1-.168-.001c2.451-1.251 6-1.666 8.185.314Zm-.304-6.252a7.717 7.717 0 0 1-.533.055c2.03-.904 3.943-2.307 6.162-2.626.509 2.01-4.188 2.3-5.63 2.571Zm5.81-2.909c-2.27-.112-4.33 1.548-6.368 2.434-.2.084-.41.15-.611.231 1.951-1.422 4.432-4.04 6.98-2.665Zm-11.148-1.503c1.267 1.427-.06 3.954-.545 5.579l.008-.02c-.012.028-.022.059-.034.088v-.001.001l-.018.045.017-.043c-.008.018-.014.036-.02.053 0-.004.002-.006.003-.01l-.033.084.006-.015c-.195.482-.37.969-.551 1.455l.005-.012c-.094.236-.173.478-.272.712.058-.493.096-.99.215-1.474v.003a.4.4 0 0 1 .007-.037c0 .009-.003.016-.004.023.178-.574.23-1.176.366-1.76-.003.009-.005.019-.006.029.391-1.332.51-2.703.633-4.078-.001.002-.001.005-.003.007a.143.143 0 0 0 .005-.022c0 .004 0 .006-.002.01.055-.215.164-.407.223-.616Zm-.355-.045c.065-.003.132-.014.195.002-.521 1.388-.298 2.947-.829 4.355l.001-.007c-.191.72-.305 1.456-.527 2.168-.038.156-.076.312-.103.47l-.01-.068c.002.02.006.04.01.06l-.018-.12.008.059c.014-2.199-.963-5.593 1.273-6.919Zm-5.429 5.623c1.72 1.562.447 4.628.03 6.602a4.856 4.856 0 0 0-.065.252c.127-2.278.112-4.577.035-6.854Zm-.71.235c.091-.101.195-.195.33-.232.028-.007.058-.01.087-.014.036 2.528.036 5.09-.058 7.625l-.01-.028c-.633-2.268-1.568-5.177-.35-7.351Zm-4.64 5.07c.058-.01.12-.028.18-.02-.057 3.706-.366 7.427.369 11.082-1.428-3.088-3.71-8.443-.55-11.062Zm.38.023c1.129.578 1.05 2.189 1.043 3.306-.057 1.217-.333 2.407-.508 3.609-.271 1.246-.216 2.506-.13 3.768-.74-3.511-.38-7.118-.405-10.683Zm-5.553 9.422c.046-.031.093-.066.148-.08.008.088.018.175.023.264v-.012c.329 3.711 1.495 7.329 3.01 10.705-2.242-2.233-5.86-8.01-3.181-10.877Zm1.99 7.343c-.692-2.435-1.444-4.888-1.602-7.433 2.332.788 2.03 8.016 3 10.462.06.252.125.505.213.749-.697-1.176-1.111-2.508-1.61-3.779Zm-3.993 6.368c.082-.098.163-.198.264-.277 1.082 2.923 3.116 5.372 4.946 7.838-2.38-1.36-6.601-4.372-5.21-7.56Zm3.735 5.13c.006.01.013.021.022.032-.251-.392-.524-.767-.783-1.155l.022.033a1.792 1.792 0 0 0-.04-.06l.02.032c-.014-.022-.028-.045-.044-.066l.022.032-.022-.031.005.007a31.11 31.11 0 0 0-.221-.327l.021.032c-.85-1.285-1.706-2.584-2.208-4.06 1.476-.042 1.987 1.758 2.61 2.831l-.008-.018.013.03-.001-.002c.422 1.116.768 2.253 1.451 3.24.31.573.572 1.17.873 1.746-.616-.737-1.13-1.549-1.732-2.297ZM.953 73.377c-.075-.561.008-1.164.372-1.61.26.56.608 1.072 1.005 1.54l-.006-.008.108.133-.018-.022c1.77 2.181 4.028 3.918 6.32 5.48-3.013-.646-6.892-2.223-7.781-5.513Zm.657-1.862c3.606-.677 5.098 4.322 7.297 6.388.226.299.451.598.648.917-2.878-2.095-5.988-4.23-7.945-7.305Zm10.916 18.04c.462.376.905.77 1.332 1.183-2.384-1.247-5.299-2.213-6.937-4.461 2.288-.105 3.955 1.946 5.605 3.279Zm2.447 2.384c-3.033.05-7.985-1.22-8.572-4.744.01-.239.059-.493.19-.694 1.327 1.935 3.735 2.845 5.725 3.94.917.45 1.825.894 2.657 1.498Zm-1.11-8.025c-.137.224-.262.455-.386.688a8.63 8.63 0 0 1 1.213-2.832.287.287 0 0 1-.02.022c1.684-2.017 2.742-4.466 4.003-6.739 1.163 3.799-3.178 6.01-4.81 8.86Zm4.096-9.042c.16-.016.324-.035.48.014a78.594 78.594 0 0 1-4.546 7.876c-.431.757-.667 1.607-.88 2.451.512-3.532 1.246-8.95 4.946-10.341Zm-6.673-2.747c-.1.068-.197.138-.295.208 2.273-2.448 4.522-5.04 7.279-6.929-.171 3.692-4.64 4.626-6.984 6.721Zm6.453-7.286c.097.046.188.101.274.166-1.266.723-2.258 1.783-3.347 2.74l.008-.007-.051.045.019-.016a.121.121 0 0 0-.013.012l.01-.008-.049.041.01-.008.029-.025a.922.922 0 0 0-.04.034l-.002.003v-.001c-1.406 1.393-2.9 2.71-4.15 4.254 1.145-3.148 3.413-7.717 7.302-7.23Zm1.388-7.292.001-.004c-1.53 3.503-6.054 3.193-8.937 4.871-.098.047-.195.096-.292.145 1.28-1.125 2.728-2.078 4.11-3.074 1.836-.79 3.78-1.4 5.399-2.617-.086.23-.194.45-.281.68Zm.194-1.129c.016.023.028.05.044.073-1.272.819-2.641 1.423-4.014 2.045l.043-.022a20.138 20.138 0 0 0-6.23 4.202c1.694-2.945 6.521-8.438 10.157-6.298Zm-9.048-5.142-.008.01.045-.06-.002.002c.042-.054.084-.11.124-.165l-.005.007.01-.015c.002 0 .003-.003.004-.005l-.01.014c.007-.007.012-.015.016-.022.002-.001.003-.002.004-.005l-.001.001.006-.008c1.908-2.425 5.634-5.721 8.79-4.08.053.053.11.102.149.165a2.256 2.256 0 0 0-.455.254c-.191.13-.394.248-.613.326l.02-.006-.076.025.02-.006-.24.08a.105.105 0 0 1 .02-.005l-.373.126h.005a.136.136 0 0 1-.012.003.01.01 0 0 0 .005-.003c-.367.122-.74.215-1.101.356l.003-.001c-2.319.618-4.384 1.841-6.4 3.117l.075-.105Zm.903-.033a8.653 8.653 0 0 0-.485.155c.438-.317.958-.488 1.392-.81l-.03.02.098-.068-.007.005c1.094-.794 2.353-1.307 3.601-1.793l-.027.009.046-.016a.336.336 0 0 1-.01.003l.023-.007c.11-.036.22-.075.33-.113l-.004.001.025-.008h-.003l.132-.044-.025.01.17-.06h-.001l.145-.05-.006.002c.155-.053.308-.115.463-.173-.002 0-.002 0-.003.002.426-.132.849-.272 1.268-.43-.006.002-.014.003-.02.006.455-.118.785-.479 1.209-.66-1.022 3.28-5.474 3.233-8.28 4.019Z"/><path d="m2.31 73.282.014.017-.003-.005-.011-.012ZM16.12 48.625l-.011.003c.006 0 .01-.003.017-.005a.01.01 0 0 1-.005.002ZM20.443 25.776s0 .002 0 0l.001-.005v.005ZM19.449 31.6c-.002 0 0 0 0 0l.002-.012a.028.028 0 0 0-.002.012Z"/></g><path d="M38.79 48.236c-5.08 0-8.224 4.071-8.224 7.843 0 .82.134 1.597.398 2.307a.537.537 0 0 0 .511.373c.256 0 .45-.213.45-.497a.796.796 0 0 0-.05-.252 6.885 6.885 0 0 1-.352-2.145c0-3.799 3.251-6.889 7.247-6.889 1.87 0 3.3.923 4.255 2.743 1.025 1.954 1.136 4.246 1.136 5.14 0 6.021-1.874 9.729-3.446 11.779-1.986 2.59-4.704 4.074-7.458 4.074-2.538 0-4.435-1.213-5.639-3.604-.913-1.815-1.416-4.36-1.416-7.163 0-8.706 5.508-15.71 10.953-18.13.09-.032.324-.137.324-.344a.287.287 0 0 0-.297-.283.887.887 0 0 0-.36.098c-2.833 1.207-5.645 3.667-7.714 6.747-1.675 2.495-3.672 6.596-3.672 11.972 0 5.563 2.039 11.507 7.764 11.507 2.96 0 5.896-1.465 8.053-4.022 2.567-3.04 3.923-7.427 3.923-12.69-.001-3.95-1.673-8.564-6.387-8.564ZM91.786 66.593a.718.718 0 0 0 .718-.73.715.715 0 0 0-.718-.712.715.715 0 0 0-.718.711c0 .41.316.731.718.731Z" fill="#FF5845"/><path d="M107.716 68.288a.265.265 0 0 0-.098.02h-.044l-.071.078c-1.718 1.879-4.678 3.352-6.737 3.352-1.34 0-2.02-.6-2.02-1.784 0-1.286 1.49-2.991 2.613-2.991.332 0 .467.091.523.186a.524.524 0 0 0-.149.389c0 .322.197.555.469.555.045 0 .1-.005.175-.041.19-.084.313-.323.313-.612 0-.567-.428-1.178-1.369-1.178-1.207 0-2.582 1.11-3.193 2.368-2.045 2.061-3.908 3.109-5.538 3.109-.755 0-1.062-.326-1.062-1.12 0-.411.076-.87.152-1.314.069-.415.135-.809.135-1.142 0-.83-.454-1.004-.833-1.004-.608 0-1.196.636-1.585 1.056-.058.063-.11.12-.155.166l-.004.005c-1.492 1.535-3.063 2.222-3.96 2.222-.29 0-.47-.092-.47-.555 0-.27.066-.619.13-.957.068-.36.138-.735.138-1.05 0-.856-.557-.984-.89-.984-1.291 0-2.375 1.633-3.281 3.417l.12-.48c.193-.764.394-1.556.394-2.09 0-.503-.29-.79-.794-.79-.626 0-1.25.706-1.623 1.129a7.704 7.704 0 0 1-.12.135c-.904.958-1.905 1.464-2.89 1.464-1.169 0-2.174-.754-2.827-2.121-.155-.33-.289-.617-.535-.698-.009-.003-.018-.007-.028-.009a.615.615 0 0 0-.063-.129c-.214-.341-.742-.59-1.257-.59-1.399 0-2.689 1.053-3.447 2.226-.873.91-2.169 1.967-3.374 2.933-.304-1.693-.771-2.97-1.395-3.797-.486-.645-1.027-.972-1.607-.972-.193 0-.384.038-.573.112a.46.46 0 0 0 .008-.083c0-.161-.076-.315-.243-.484-.243-.248-.602-.384-1.012-.384-1.299 0-3.477 1.439-4.484 2.883-1.695 1.5-3.618 2.554-4.707 2.554-.107 0-.308-.256-.374-1.215-.042-.634-.229-1.101-.554-1.388-.282-.248-.658-.355-1.129-.319-.159.018-.366.018-.567.018-.257 0-.53-.01-.756-.02.903-1.11 1.57-2.735 1.57-3.906 0-.998-.485-1.57-1.33-1.57-1.704 0-3.074 2.107-3.074 3.85 0 1.169.584 1.939 1.648 2.168.554.113 1.437.18 2.363.18.659 0 .857 0 .89 1.108l.007.193c.03.988.051 1.7 1.114 1.7 1.184 0 2.883-.898 4.36-2.016-.002.02-.004.04-.004.058 0 .705.496 1.179 1.234 1.179 1.198 0 2.666-1.43 3.843-2.579.44-.427.817-.796 1.107-1.018a.934.934 0 0 1 .565-.205c.394 0 .809.326 1.113.871.499.894.88 2.208 1.1 3.81-3.738 3.038-7.354 6.293-7.354 9.79 0 2.483 1.61 3.596 3.207 3.596 1.67 0 3.256-1.105 4.138-2.88.772-1.515 1.233-4.165 1.233-7.088 0-1.151-.072-2.27-.213-3.327l.03-.024c.919-.746 1.805-1.467 2.552-2.13-.022.129-.034.255-.034.375 0 .429.135.784.388 1.028.256.246.62.37 1.078.37.053 0 .108-.001.163-.005 1.247-.06 2.495-1.202 3.713-3.4.904 1.437 2.072 2.192 3.399 2.192 1.176 0 2.381-.626 3.486-1.81l.1-.106-.002-.002.072-.082c.27-.307.714-.811 1.043-.86l.002.026c0 .411-.233 1.312-.439 2.106-.051.197-.101.393-.148.582a3.509 3.509 0 0 0-.122.839c0 .538.302.73.584.73.236 0 .558-.16.753-.608 1.075-2.352 2.154-3.758 2.885-3.758.05 0 .086 0 .086.205 0 .22-.06.526-.123.85-.077.391-.164.836-.164 1.235 0 1.088.682 1.316 1.254 1.316 1.017 0 2.826-.647 4.572-2.47.002 0 .003-.003.004-.004.055-.056.115-.12.178-.189.283-.303.665-.715.989-.747.005.025.01.064.01.125 0 .207-.052.514-.112.87-.082.486-.176 1.038-.176 1.566 0 1.325.622 1.997 1.848 1.997 1.672 0 3.468-.87 5.351-2.59.005 1.646 1.033 2.59 2.824 2.59 2.338 0 5.5-1.559 7.35-3.619a.305.305 0 0 0 .09-.21c.001-.177-.151-.378-.353-.378Zm-36.417-1.227c.193 0 .436.096.505.275l.008.018a.61.61 0 0 0 .162.222l-.124.271.17-.093c-.63 1.32-1.833 3.34-3.287 3.34-.457 0-.68-.22-.68-.672 0-1.234 1.604-3.361 3.246-3.361Zm-7.495 8.585c0 2.648-.379 5.11-1.013 6.587-.83 1.933-2.292 2.62-3.38 2.62-1.145 0-2.48-.762-2.48-2.912 0-2.992 3.422-6.148 6.75-8.903.08.84.123 1.732.123 2.608Zm-4.202-9.053c.213 0 .37.06.488.187v.017c0 .157.105.283.257.326-.336.266-.744.662-1.174 1.08-1.031 1.001-2.314 2.248-3.17 2.248-.273 0-.355-.089-.355-.38 0-1.169 2.623-3.478 3.954-3.478Zm-12.33-3.02c.167 0 .679 0 .679.886 0 1.117-.79 2.844-1.711 3.768-.739-.173-1.162-.509-1.162-1.566 0-1.357 1.23-3.089 2.193-3.089Z" fill="#FF5845"/><g opacity=".999" fill="#FF5845"><path d="m54.208 53.764-.503 1.52H52.33l2.194-6.578h1.756l2.29 6.578h-1.47l-.53-1.52h-2.363Zm2.06-1.166c-.457-1.388-.75-2.275-.906-2.867h-.01c-.159.65-.482 1.681-.85 2.867h1.767ZM66.946 55.284l-2.281-6.578h1.5l.962 3.038c.291.92.514 1.7.663 2.372h.02c.132-.614.384-1.418.691-2.35l1.009-3.062h1.425l-2.342 6.58h-1.647ZM78.394 53.764l-.504 1.52h-1.374l2.195-6.578h1.756l2.29 6.578h-1.47l-.53-1.52h-2.363Zm2.06-1.166c-.458-1.388-.75-2.275-.906-2.867h-.01c-.159.65-.482 1.68-.85 2.867h1.767Z"/></g><g opacity=".999" fill="#FF5845"><path d="M25.839 92.912c-.742.552-1.705.573-2.338-.308-.61-.851-.324-1.749.44-2.317.775-.576 1.724-.527 2.329.316.57.794.385 1.703-.431 2.31Zm-1.45-2.027c-.521.387-.747.913-.403 1.393.375.52.936.387 1.411.034.504-.375.75-.88.387-1.385-.352-.49-.877-.428-1.395-.042ZM28.023 96.062l-.972.911-.473-.522 2.428-2.276.983 1.087c.487.538.458 1.102.084 1.454-.326.306-.666.29-.9.179.066.165.108.467-.327.873l-.12.112c-.162.154-.348.33-.43.47l-.459-.507c.066-.143.24-.32.5-.563l.035-.033c.266-.248.33-.435-.03-.833l-.32-.352Zm.418-.391.405.448c.265.293.477.303.68.112.197-.185.189-.42-.047-.68l-.416-.461-.622.581ZM32.82 102.589l-.396-.348c.046-.097.107-.196.172-.287-.299.069-.63-.043-.977-.349-.724-.638-.655-1.552-.04-2.275.65-.764 1.575-.954 2.361-.261.643.566.706 1.268.399 1.754l-.54-.475c.093-.216.133-.532-.232-.854-.512-.452-1.03-.144-1.41.303-.372.438-.57 1.015-.075 1.451.46.407.823.156 1.017-.072l.02-.023-.548-.482.383-.451 1.076.949-1.21 1.42ZM36.465 104.41l-.642.493-.58-.402 2.785-2.131.74.514-.893 3.444-.62-.43.206-.796-.996-.692Zm1.198.111c.199-.72.327-1.179.427-1.475l-.003-.003c-.25.227-.679.568-1.17.96l.746.518ZM40.496 107.921l1.536-2.973.783.419c.02.863.072 2.428.038 2.823l.008.005c.129-.327.395-.844.648-1.331l.456-.88.572.306L43 109.264l-.742-.399c-.013-.749-.045-2.532-.013-2.952l-.008-.005c-.114.272-.422.885-.698 1.418l-.468.903-.575-.308ZM47.993 107.83l-1.245 3.111-.66-.274 1.244-3.111.66.274ZM52.89 111.955c-.303.562-.876.863-1.669.621-1.002-.305-1.263-1.172-.993-2.087.26-.882.981-1.524 2.002-1.212.842.257 1.102.884 1.021 1.446l-.683-.209c.007-.268-.09-.567-.52-.698-.563-.171-.933.278-1.105.864-.16.544-.14 1.174.47 1.361.446.136.676-.126.79-.295l.688.209ZM60.087 113.618l-.338.743-.698-.077 1.47-3.215.892.098.806 3.468-.746-.083-.188-.801-1.197-.133Zm1.109-.476c-.158-.731-.259-1.198-.305-1.506h-.005c-.116.321-.335.826-.587 1.407l.897.099ZM65.281 114.799l-.054-3.358.885-.014c.423.746 1.207 2.095 1.365 2.458h.01c-.043-.35-.052-.933-.061-1.485l-.016-.995.646-.011.054 3.358-.839.013c-.365-.65-1.235-2.198-1.403-2.583h-.01c.029.293.048.983.057 1.584l.017 1.022-.65.011ZM71.098 111.216l1.3-.159c.955-.117 1.653.445 1.77 1.432.116.973-.403 1.783-1.404 1.907l-1.27.156-.396-3.336Zm1.034 2.666.531-.066c.629-.076.85-.587.773-1.236-.064-.544-.384-1.013-1.025-.934l-.535.066.256 2.17ZM81.165 112.686l-1-3.201.843-.273c.617.592 1.748 1.653 2 1.955l.009-.002c-.14-.323-.312-.878-.476-1.405l-.296-.948.616-.2 1 3.201-.8.258c-.534-.517-1.802-1.745-2.074-2.065l-.008.003c.11.273.323.928.503 1.5l.303.974-.62.203ZM87.297 109.597l.078.815-.639.294-.333-3.531.818-.374 2.42 2.573-.684.313-.56-.594-1.1.504Zm.72-.981c-.5-.549-.819-.899-1.013-1.142l-.005.003c.06.336.122.885.195 1.515l.822-.376ZM91.227 105.376l-.869.51-.291-.515 2.352-1.381.292.515-.865.508 1.357 2.394-.619.363-1.357-2.394ZM95.303 102.026l1.164 1.613c.375.52.748.477 1.035.263.33-.246.405-.582.05-1.074l-1.164-1.614.576-.43 1.143 1.585c.668.925.306 1.56-.281 1.998-.601.45-1.295.59-1.948-.314l-1.152-1.596.577-.431ZM101.133 99.83l.895.987-.512.481-2.236-2.469 1.066-1c.529-.497 1.082-.466 1.427-.085.301.331.287.677.178.915.161-.069.457-.111.858.331l.11.122c.15.166.323.353.46.438l-.496.467c-.14-.067-.316-.245-.553-.507l-.032-.036c-.244-.27-.428-.335-.819.031l-.346.324Zm-.385-.426.439-.413c.287-.269.297-.484.11-.69-.182-.201-.413-.193-.669.048l-.452.425.572.63ZM105.53 96.122l.407.706-.46.54-1.758-3.064.588-.689 3.258 1.302-.491.576-.754-.3-.79.929Zm.248-1.199c-.68-.284-1.115-.466-1.39-.603l-.003.004c.192.28.475.751.801 1.293l.592-.694ZM106.697 90.54l.408-.595 2.228 1.58.94-1.373.434.408-1.302 1.902-2.708-1.921Z"/></g><g opacity=".999" fill="#FF5845"><path d="m37.992 19.897-1.319-1.861c-.069.125-.29.34-.398.425l-.267-.377c.196-.208.354-.534.382-.791l.368-.27 1.763 2.487-.529.387ZM41.982 15.44c.394.675.577 1.517-.193 1.98-.74.447-1.369-.047-1.788-.765-.385-.663-.524-1.518.218-1.965.718-.432 1.357.054 1.763.75Zm-1.423.87c.309.53.633.867.973.663.331-.2.189-.67-.114-1.19-.298-.512-.608-.85-.941-.65-.332.2-.25.608.082 1.177ZM46.444 13.178c.326.713.425 1.57-.386 1.953-.78.368-1.358-.186-1.704-.944-.319-.698-.374-1.564.409-1.933.758-.358 1.346.191 1.681.925Zm-1.5.723c.255.559.544.928.902.759.35-.166.255-.647.005-1.195-.247-.541-.522-.909-.874-.743-.35.164-.307.578-.033 1.179ZM53.35 10.112c.125.485-.066.894-.543 1.02-.451.12-.82-.081-.96-.62-.117-.457.058-.884.547-1.014.44-.116.819.079.956.614Zm-1.034.274c.072.28.212.405.398.357.184-.05.255-.212.18-.51-.08-.308-.226-.393-.4-.347-.175.047-.252.212-.178.5Zm.804 1.998.985-3.29.446-.117-.988 3.29-.443.117Zm2.704-1.532c.123.484-.066.894-.543 1.02-.453.12-.823-.083-.96-.62-.117-.457.056-.883.547-1.014.44-.117.818.08.956.614Zm-1.034.274c.072.28.212.406.397.357.184-.049.255-.212.18-.509-.08-.307-.225-.393-.4-.347-.173.045-.25.213-.177.5ZM64.93 10.537l-.05-3.066.808-.013c.388.682 1.102 1.912 1.247 2.243h.008c-.04-.319-.046-.851-.055-1.355l-.014-.909.59-.01.049 3.066-.766.012c-.334-.593-1.127-2.007-1.282-2.36h-.008c.026.269.043.899.053 1.448l.015.933-.596.01ZM70.97 10.014l-.305.68-.637-.067 1.328-2.944.814.086.75 3.163-.68-.071-.175-.731-1.095-.116Zm1.01-.44a27.683 27.683 0 0 1-.285-1.373h-.005c-.104.293-.302.756-.53 1.287l.82.087ZM76.155 8.936l-.897-.182.105-.534 2.432.496-.106.533-.894-.182-.487 2.475-.639-.13.486-2.476ZM81.207 9.638l-.536 1.744c-.172.562.06.819.371.917.356.113.64-.012.803-.544l.536-1.744.623.198-.526 1.714c-.307 1.001-.962 1.073-1.596.87-.65-.206-1.127-.65-.827-1.628l.53-1.724.623.197ZM85.786 13.272l-.481 1.126-.584-.258 1.201-2.813 1.215.537c.603.267.783.748.597 1.183-.161.378-.45.492-.685.487.114.112.26.349.044.852l-.06.139c-.08.188-.171.405-.19.554l-.565-.251c.003-.144.085-.358.212-.657l.018-.041c.131-.307.117-.487-.328-.684l-.394-.174Zm.206-.484.501.221c.327.145.508.075.608-.16.098-.23.006-.422-.287-.551l-.515-.228-.307.718ZM90.147 16.006l-.548.498-.558-.322 2.378-2.153.712.411-.56 3.205-.596-.345.128-.74-.956-.554Zm1.1.01c.127-.672.209-1.1.28-1.376l-.004-.002c-.212.225-.576.569-.993.963l.716.414ZM95.41 16.53l.53.384-1.434 2.058 1.224.885-.37.4-1.694-1.225 1.743-2.502Z"/></g></svg>