<svg width="85" height="12" viewBox="0 0 85 12" fill="none" xmlns="http://www.w3.org/2000/svg">
<path d="M12.155 5.228C12.0163 5.37533 11.7997 5.59633 11.505 5.891L11.466 5.93C10.6947 6.684 10.114 7.24733 9.724 7.62C9.60267 7.74133 9.51167 7.83667 9.451 7.906C9.41633 7.94067 9.399 7.99267 9.399 8.062L10.062 11.91V11.936C10.0533 11.9447 10.01 11.9273 9.932 11.884C9.776 11.806 9.55067 11.689 9.256 11.533L6.565 10.116C6.50433 10.0813 6.43933 10.0857 6.37 10.129L5.044 10.831C4.14267 11.3077 3.46233 11.663 3.003 11.897C2.98567 11.9143 2.96833 11.923 2.951 11.923C2.90767 11.9403 2.89467 11.9057 2.912 11.819L3.055 10.922C3.28033 9.63933 3.445 8.67733 3.549 8.036C3.55767 8.01867 3.55333 7.997 3.536 7.971C3.52733 7.93633 3.51433 7.91033 3.497 7.893L3.055 7.464C2.47433 6.90067 2.041 6.47167 1.755 6.177C1.48633 5.917 1.183 5.59633 0.845 5.215C0.819 5.189 0.810333 5.16733 0.819 5.15C0.827667 5.124 0.849333 5.10667 0.884 5.098L4.004 4.643C4.24667 4.59967 4.42867 4.57367 4.55 4.565C4.602 4.55633 4.641 4.54333 4.667 4.526C4.693 4.50867 4.719 4.474 4.745 4.422C5.473 2.93133 6.02333 1.81333 6.396 1.068L6.435 1.003C6.44367 0.985666 6.45667 0.977 6.474 0.977C6.49133 0.968333 6.50433 0.972666 6.513 0.989999C6.53033 1.00733 6.539 1.02467 6.539 1.042L8.216 4.435C8.25067 4.513 8.31133 4.55633 8.398 4.565L12.116 5.111C12.1507 5.111 12.1723 5.124 12.181 5.15C12.1897 5.16733 12.181 5.19333 12.155 5.228ZM30.355 5.228C30.2163 5.37533 29.9997 5.59633 29.705 5.891L29.666 5.93C28.8947 6.684 28.314 7.24733 27.924 7.62C27.8027 7.74133 27.7117 7.83667 27.651 7.906C27.6163 7.94067 27.599 7.99267 27.599 8.062L28.262 11.91V11.936C28.2533 11.9447 28.21 11.9273 28.132 11.884C27.976 11.806 27.7507 11.689 27.456 11.533L24.765 10.116C24.7043 10.0813 24.6393 10.0857 24.57 10.129L23.244 10.831C22.3427 11.3077 21.6623 11.663 21.203 11.897C21.1857 11.9143 21.1683 11.923 21.151 11.923C21.1077 11.9403 21.0947 11.9057 21.112 11.819L21.255 10.922C21.4803 9.63933 21.645 8.67733 21.749 8.036C21.7577 8.01867 21.7533 7.997 21.736 7.971C21.7273 7.93633 21.7143 7.91033 21.697 7.893L21.255 7.464C20.6743 6.90067 20.241 6.47167 19.955 6.177C19.6863 5.917 19.383 5.59633 19.045 5.215C19.019 5.189 19.0103 5.16733 19.019 5.15C19.0277 5.124 19.0493 5.10667 19.084 5.098L22.204 4.643C22.4467 4.59967 22.6287 4.57367 22.75 4.565C22.802 4.55633 22.841 4.54333 22.867 4.526C22.893 4.50867 22.919 4.474 22.945 4.422C23.673 2.93133 24.2233 1.81333 24.596 1.068L24.635 1.003C24.6437 0.985666 24.6567 0.977 24.674 0.977C24.6913 0.968333 24.7043 0.972666 24.713 0.989999C24.7303 1.00733 24.739 1.02467 24.739 1.042L26.416 4.435C26.4507 4.513 26.5113 4.55633 26.598 4.565L30.316 5.111C30.3507 5.111 30.3723 5.124 30.381 5.15C30.3897 5.16733 30.381 5.19333 30.355 5.228ZM48.555 5.228C48.4163 5.37533 48.1997 5.59633 47.905 5.891L47.866 5.93C47.0947 6.684 46.514 7.24733 46.124 7.62C46.0027 7.74133 45.9117 7.83667 45.851 7.906C45.8163 7.94067 45.799 7.99267 45.799 8.062L46.462 11.91V11.936C46.4533 11.9447 46.41 11.9273 46.332 11.884C46.176 11.806 45.9507 11.689 45.656 11.533L42.965 10.116C42.9043 10.0813 42.8393 10.0857 42.77 10.129L41.444 10.831C40.5427 11.3077 39.8623 11.663 39.403 11.897C39.3857 11.9143 39.3683 11.923 39.351 11.923C39.3077 11.9403 39.2947 11.9057 39.312 11.819L39.455 10.922C39.6803 9.63933 39.845 8.67733 39.949 8.036C39.9577 8.01867 39.9533 7.997 39.936 7.971C39.9273 7.93633 39.9143 7.91033 39.897 7.893L39.455 7.464C38.8743 6.90067 38.441 6.47167 38.155 6.177C37.8863 5.917 37.583 5.59633 37.245 5.215C37.219 5.189 37.2103 5.16733 37.219 5.15C37.2277 5.124 37.2493 5.10667 37.284 5.098L40.404 4.643C40.6467 4.59967 40.8287 4.57367 40.95 4.565C41.002 4.55633 41.041 4.54333 41.067 4.526C41.093 4.50867 41.119 4.474 41.145 4.422C41.873 2.93133 42.4233 1.81333 42.796 1.068L42.835 1.003C42.8437 0.985666 42.8567 0.977 42.874 0.977C42.8913 0.968333 42.9043 0.972666 42.913 0.989999C42.9303 1.00733 42.939 1.02467 42.939 1.042L44.616 4.435C44.6507 4.513 44.7113 4.55633 44.798 4.565L48.516 5.111C48.5507 5.111 48.5723 5.124 48.581 5.15C48.5897 5.16733 48.581 5.19333 48.555 5.228ZM66.755 5.228C66.6163 5.37533 66.3997 5.59633 66.105 5.891L66.066 5.93C65.2947 6.684 64.714 7.24733 64.324 7.62C64.2027 7.74133 64.1117 7.83667 64.051 7.906C64.0163 7.94067 63.999 7.99267 63.999 8.062L64.662 11.91V11.936C64.6533 11.9447 64.61 11.9273 64.532 11.884C64.376 11.806 64.1507 11.689 63.856 11.533L61.165 10.116C61.1043 10.0813 61.0393 10.0857 60.97 10.129L59.644 10.831C58.7427 11.3077 58.0623 11.663 57.603 11.897C57.5857 11.9143 57.5683 11.923 57.551 11.923C57.5077 11.9403 57.4947 11.9057 57.512 11.819L57.655 10.922C57.8803 9.63933 58.045 8.67733 58.149 8.036C58.1577 8.01867 58.1533 7.997 58.136 7.971C58.1273 7.93633 58.1143 7.91033 58.097 7.893L57.655 7.464C57.0743 6.90067 56.641 6.47167 56.355 6.177C56.0863 5.917 55.783 5.59633 55.445 5.215C55.419 5.189 55.4103 5.16733 55.419 5.15C55.4277 5.124 55.4493 5.10667 55.484 5.098L58.604 4.643C58.8467 4.59967 59.0287 4.57367 59.15 4.565C59.202 4.55633 59.241 4.54333 59.267 4.526C59.293 4.50867 59.319 4.474 59.345 4.422C60.073 2.93133 60.6233 1.81333 60.996 1.068L61.035 1.003C61.0437 0.985666 61.0567 0.977 61.074 0.977C61.0913 0.968333 61.1043 0.972666 61.113 0.989999C61.1303 1.00733 61.139 1.02467 61.139 1.042L62.816 4.435C62.8507 4.513 62.9113 4.55633 62.998 4.565L66.716 5.111C66.7507 5.111 66.7723 5.124 66.781 5.15C66.7897 5.16733 66.781 5.19333 66.755 5.228ZM84.955 5.228C84.8163 5.37533 84.5997 5.59633 84.305 5.891L84.266 5.93C83.4947 6.684 82.914 7.24733 82.524 7.62C82.4027 7.74133 82.3117 7.83667 82.251 7.906C82.2163 7.94067 82.199 7.99267 82.199 8.062L82.862 11.91V11.936C82.8533 11.9447 82.81 11.9273 82.732 11.884C82.576 11.806 82.3507 11.689 82.056 11.533L79.365 10.116C79.3043 10.0813 79.2393 10.0857 79.17 10.129L77.844 10.831C76.9427 11.3077 76.2623 11.663 75.803 11.897C75.7857 11.9143 75.7683 11.923 75.751 11.923C75.7077 11.9403 75.6947 11.9057 75.712 11.819L75.855 10.922C76.0803 9.63933 76.245 8.67733 76.349 8.036C76.3577 8.01867 76.3533 7.997 76.336 7.971C76.3273 7.93633 76.3143 7.91033 76.297 7.893L75.855 7.464C75.2743 6.90067 74.841 6.47167 74.555 6.177C74.2863 5.917 73.983 5.59633 73.645 5.215C73.619 5.189 73.6103 5.16733 73.619 5.15C73.6277 5.124 73.6493 5.10667 73.684 5.098L76.804 4.643C77.0467 4.59967 77.2287 4.57367 77.35 4.565C77.402 4.55633 77.441 4.54333 77.467 4.526C77.493 4.50867 77.519 4.474 77.545 4.422C78.273 2.93133 78.8233 1.81333 79.196 1.068L79.235 1.003C79.2437 0.985666 79.2567 0.977 79.274 0.977C79.2913 0.968333 79.3043 0.972666 79.313 0.989999C79.3303 1.00733 79.339 1.02467 79.339 1.042L81.016 4.435C81.0507 4.513 81.1113 4.55633 81.198 4.565L84.916 5.111C84.9507 5.111 84.9723 5.124 84.981 5.15C84.9897 5.16733 84.981 5.19333 84.955 5.228Z" fill="#FFB801"/>
</svg>
