<svg width="100" height="13" viewBox="0 0 100 13" fill="none" xmlns="http://www.w3.org/2000/svg">
<path d="M13.09 4.784C12.9407 4.94267 12.7073 5.18067 12.39 5.498L12.348 5.54C11.5173 6.352 10.892 6.95867 10.472 7.36C10.3413 7.49067 10.2433 7.59333 10.178 7.668C10.1407 7.70533 10.122 7.76133 10.122 7.836L10.836 11.98V12.008C10.8267 12.0173 10.78 11.9987 10.696 11.952C10.528 11.868 10.2853 11.742 9.968 11.574L7.07 10.048C7.00467 10.0107 6.93467 10.0153 6.86 10.062L5.432 10.818C4.46133 11.3313 3.72867 11.714 3.234 11.966C3.21533 11.9847 3.19667 11.994 3.178 11.994C3.13133 12.0127 3.11733 11.9753 3.136 11.882L3.29 10.916C3.53267 9.53467 3.71 8.49867 3.822 7.808C3.83133 7.78933 3.82667 7.766 3.808 7.738C3.79867 7.70067 3.78467 7.67267 3.766 7.654L3.29 7.192C2.66467 6.58533 2.198 6.12333 1.89 5.806C1.60067 5.526 1.274 5.18067 0.91 4.77C0.882 4.742 0.872667 4.71867 0.882 4.7C0.891333 4.672 0.914667 4.65333 0.952 4.644L4.312 4.154C4.57333 4.10733 4.76933 4.07933 4.9 4.07C4.956 4.06067 4.998 4.04667 5.026 4.028C5.054 4.00933 5.082 3.972 5.11 3.916C5.894 2.31067 6.48667 1.10667 6.888 0.303999L6.93 0.233999C6.93933 0.215333 6.95333 0.206 6.972 0.206C6.99067 0.196666 7.00467 0.201333 7.014 0.219999C7.03267 0.238666 7.042 0.257333 7.042 0.276L8.848 3.93C8.88533 4.014 8.95067 4.06067 9.044 4.07L13.048 4.658C13.0853 4.658 13.1087 4.672 13.118 4.7C13.1273 4.71867 13.118 4.74667 13.09 4.784ZM34.79 4.784C34.6407 4.94267 34.4073 5.18067 34.09 5.498L34.048 5.54C33.2173 6.352 32.592 6.95867 32.172 7.36C32.0413 7.49067 31.9433 7.59333 31.878 7.668C31.8407 7.70533 31.822 7.76133 31.822 7.836L32.536 11.98V12.008C32.5267 12.0173 32.48 11.9987 32.396 11.952C32.228 11.868 31.9853 11.742 31.668 11.574L28.77 10.048C28.7047 10.0107 28.6347 10.0153 28.56 10.062L27.132 10.818C26.1613 11.3313 25.4287 11.714 24.934 11.966C24.9153 11.9847 24.8967 11.994 24.878 11.994C24.8313 12.0127 24.8173 11.9753 24.836 11.882L24.99 10.916C25.2327 9.53467 25.41 8.49867 25.522 7.808C25.5313 7.78933 25.5267 7.766 25.508 7.738C25.4987 7.70067 25.4847 7.67267 25.466 7.654L24.99 7.192C24.3647 6.58533 23.898 6.12333 23.59 5.806C23.3007 5.526 22.974 5.18067 22.61 4.77C22.582 4.742 22.5727 4.71867 22.582 4.7C22.5913 4.672 22.6147 4.65333 22.652 4.644L26.012 4.154C26.2733 4.10733 26.4693 4.07933 26.6 4.07C26.656 4.06067 26.698 4.04667 26.726 4.028C26.754 4.00933 26.782 3.972 26.81 3.916C27.594 2.31067 28.1867 1.10667 28.588 0.303999L28.63 0.233999C28.6393 0.215333 28.6533 0.206 28.672 0.206C28.6907 0.196666 28.7047 0.201333 28.714 0.219999C28.7327 0.238666 28.742 0.257333 28.742 0.276L30.548 3.93C30.5853 4.014 30.6507 4.06067 30.744 4.07L34.748 4.658C34.7853 4.658 34.8087 4.672 34.818 4.7C34.8273 4.71867 34.818 4.74667 34.79 4.784ZM56.49 4.784C56.3407 4.94267 56.1073 5.18067 55.79 5.498L55.748 5.54C54.9173 6.352 54.292 6.95867 53.872 7.36C53.7413 7.49067 53.6433 7.59333 53.578 7.668C53.5407 7.70533 53.522 7.76133 53.522 7.836L54.236 11.98V12.008C54.2267 12.0173 54.18 11.9987 54.096 11.952C53.928 11.868 53.6853 11.742 53.368 11.574L50.47 10.048C50.4047 10.0107 50.3347 10.0153 50.26 10.062L48.832 10.818C47.8613 11.3313 47.1287 11.714 46.634 11.966C46.6153 11.9847 46.5967 11.994 46.578 11.994C46.5313 12.0127 46.5173 11.9753 46.536 11.882L46.69 10.916C46.9327 9.53467 47.11 8.49867 47.222 7.808C47.2313 7.78933 47.2267 7.766 47.208 7.738C47.1987 7.70067 47.1847 7.67267 47.166 7.654L46.69 7.192C46.0647 6.58533 45.598 6.12333 45.29 5.806C45.0007 5.526 44.674 5.18067 44.31 4.77C44.282 4.742 44.2727 4.71867 44.282 4.7C44.2913 4.672 44.3147 4.65333 44.352 4.644L47.712 4.154C47.9733 4.10733 48.1693 4.07933 48.3 4.07C48.356 4.06067 48.398 4.04667 48.426 4.028C48.454 4.00933 48.482 3.972 48.51 3.916C49.294 2.31067 49.8867 1.10667 50.288 0.303999L50.33 0.233999C50.3393 0.215333 50.3533 0.206 50.372 0.206C50.3907 0.196666 50.4047 0.201333 50.414 0.219999C50.4327 0.238666 50.442 0.257333 50.442 0.276L52.248 3.93C52.2853 4.014 52.3507 4.06067 52.444 4.07L56.448 4.658C56.4853 4.658 56.5087 4.672 56.518 4.7C56.5273 4.71867 56.518 4.74667 56.49 4.784ZM78.19 4.784C78.0407 4.94267 77.8073 5.18067 77.49 5.498L77.448 5.54C76.6173 6.352 75.992 6.95867 75.572 7.36C75.4413 7.49067 75.3433 7.59333 75.278 7.668C75.2407 7.70533 75.222 7.76133 75.222 7.836L75.936 11.98V12.008C75.9267 12.0173 75.88 11.9987 75.796 11.952C75.628 11.868 75.3853 11.742 75.068 11.574L72.17 10.048C72.1047 10.0107 72.0347 10.0153 71.96 10.062L70.532 10.818C69.5613 11.3313 68.8287 11.714 68.334 11.966C68.3153 11.9847 68.2967 11.994 68.278 11.994C68.2313 12.0127 68.2173 11.9753 68.236 11.882L68.39 10.916C68.6327 9.53467 68.81 8.49867 68.922 7.808C68.9313 7.78933 68.9267 7.766 68.908 7.738C68.8987 7.70067 68.8847 7.67267 68.866 7.654L68.39 7.192C67.7647 6.58533 67.298 6.12333 66.99 5.806C66.7007 5.526 66.374 5.18067 66.01 4.77C65.982 4.742 65.9727 4.71867 65.982 4.7C65.9913 4.672 66.0147 4.65333 66.052 4.644L69.412 4.154C69.6733 4.10733 69.8693 4.07933 70 4.07C70.056 4.06067 70.098 4.04667 70.126 4.028C70.154 4.00933 70.182 3.972 70.21 3.916C70.994 2.31067 71.5867 1.10667 71.988 0.303999L72.03 0.233999C72.0393 0.215333 72.0533 0.206 72.072 0.206C72.0907 0.196666 72.1047 0.201333 72.114 0.219999C72.1327 0.238666 72.142 0.257333 72.142 0.276L73.948 3.93C73.9853 4.014 74.0507 4.06067 74.144 4.07L78.148 4.658C78.1853 4.658 78.2087 4.672 78.218 4.7C78.2273 4.71867 78.218 4.74667 78.19 4.784ZM99.89 4.784C99.7407 4.94267 99.5073 5.18067 99.19 5.498L99.148 5.54C98.3173 6.352 97.692 6.95867 97.272 7.36C97.1413 7.49067 97.0433 7.59333 96.978 7.668C96.9407 7.70533 96.922 7.76133 96.922 7.836L97.636 11.98V12.008C97.6267 12.0173 97.58 11.9987 97.496 11.952C97.328 11.868 97.0853 11.742 96.768 11.574L93.87 10.048C93.8047 10.0107 93.7347 10.0153 93.66 10.062L92.232 10.818C91.2613 11.3313 90.5287 11.714 90.034 11.966C90.0153 11.9847 89.9967 11.994 89.978 11.994C89.9313 12.0127 89.9173 11.9753 89.936 11.882L90.09 10.916C90.3327 9.53467 90.51 8.49867 90.622 7.808C90.6313 7.78933 90.6267 7.766 90.608 7.738C90.5987 7.70067 90.5847 7.67267 90.566 7.654L90.09 7.192C89.4647 6.58533 88.998 6.12333 88.69 5.806C88.4007 5.526 88.074 5.18067 87.71 4.77C87.682 4.742 87.6727 4.71867 87.682 4.7C87.6913 4.672 87.7147 4.65333 87.752 4.644L91.112 4.154C91.3733 4.10733 91.5693 4.07933 91.7 4.07C91.756 4.06067 91.798 4.04667 91.826 4.028C91.854 4.00933 91.882 3.972 91.91 3.916C92.694 2.31067 93.2867 1.10667 93.688 0.303999L93.73 0.233999C93.7393 0.215333 93.7533 0.206 93.772 0.206C93.7907 0.196666 93.8047 0.201333 93.814 0.219999C93.8327 0.238666 93.842 0.257333 93.842 0.276L95.648 3.93C95.6853 4.014 95.7507 4.06067 95.844 4.07L99.848 4.658C99.8853 4.658 99.9087 4.672 99.918 4.7C99.9273 4.71867 99.918 4.74667 99.89 4.784Z" fill="#FFC701"/>
</svg>
