<svg width="1170" height="220" fill="none" xmlns="http://www.w3.org/2000/svg"><path opacity=".15" d="M-343.997 936.151s23.167 23.253 70.034 10.976c63.692-16.685 71.374-27.759 93.697-59.032 22.323-31.273-175.917 57.359-202.349 20.803-10.032-13.872 221.511-52.525 217.562-79.443-3.32-22.645-230.143 65.233-237.183 43.486-5.891-18.194 235.546-68.449 229.138-90.362-6.228-21.292-239.747 71.967-246.516 49.744-7.271-23.851 243.117-70.433 237.482-92.429-4.084-15.946-246.131 65.609-248.047 60.456-1.914-5.145 3.474-22.329-8.313-32.799-11.787-10.471 39.108-12.502 235.394-64.547 22.195-5.882 31.623-17.328 27.659-51.884-3.963-34.555-11.94-71.458-6.541-122.033 5.398-50.574 77.868-220.421 15.997-346.606-61.872-126.185-213.9-193.15-339.75-160.183-125.85 32.968-231.378 161.063-218.45 287.762 16.42 160.906 125.663 252.147 173.938 300.52 48.27 48.383 52.934 85.579 69.261 111.249 16.327 25.671 89.684 11.256 121.249.164 31.565-11.093 97.644-17.668 65.965-99.778-31.678-82.111-78.244 9.762-104.722-22.294-21.041-25.467-114.738-199.635-142.366-245.793-24.894-41.591 119.18 10.595 132.959 104.173 13.779 93.579-88.242-159.959-33.886-172.499 54.347-12.538 99.542 176.508 80.04 179.343-22.166 3.22-20.961-73.947-.913-128.588 17.134-46.692 52.834-76.787 46.358-27.967-10.034 75.634 14.135 158.765 5.43 228.438-4.169 33.39-46.737 55.851-72.72 36.818-25.983-19.033-14.324-60.843 16.764-59.3 31.089 1.543 220.43 47.153 405.076-19.187C395.796 366.914 465.225-114.149 307.426-88.237 129.592-59.04 334.027 318.465 561.151 153.876c233.42-169.146-85.689-758.821 418.898-560.606 355.831 139.79 337.881-588.028 661.861-262.675 171.44 172.162-85.3 368.64-89.38 182.349-4.94-225.001 511.57-120.454 694.98-489.498 16.68-33.557 32.29-113.067 43.68-183.707 13.96-86.59 55.88-166.23 119.41-226.7l355.22-338.07c3.3-3.15 8.63.14 7.29 4.51l-162.54 529.82c-2.4 7.82-10.82 12.09-18.55 9.38l-211.9-74.15c-6.11-2.14-12.89.05-16.59 5.37l-99.05 142.27c-7.03 10.1-22.67 7.32-25.78-4.58l-52.74-201.31c-1.51-5.76.67-11.85 5.5-15.34l518.42-374.9c4.29-3.11.53-9.75-4.34-7.68l-725.65 310.32c-13.02 5.56-11.06 24.59 2.82 27.39l174.05 35.04" stroke="#fff" stroke-width="8" stroke-miterlimit="10" stroke-linecap="round" stroke-linejoin="round"/></svg>